%TF.GenerationSoftware,KiCad,Pcbnew,9.0.0*%
%TF.CreationDate,2025-05-20T14:46:27+04:00*%
%TF.ProjectId,_1921__015,1a313932-3112-4133-9031-352e6b696361,rev?*%
%TF.SameCoordinates,Original*%
%TF.FileFunction,Legend,Bot*%
%TF.FilePolarity,Positive*%
%FSLAX46Y46*%
G04 Gerber Fmt 4.6, Leading zero omitted, Abs format (unit mm)*
G04 Created by KiCad (PCBNEW 9.0.0) date 2025-05-20 14:46:27*
%MOMM*%
%LPD*%
G01*
G04 APERTURE LIST*
%ADD10C,0.100000*%
%ADD11C,0.200000*%
%ADD12C,0.150000*%
%ADD13C,0.120000*%
%ADD14C,0.010000*%
G04 APERTURE END LIST*
D10*
X184510000Y-121010000D02*
X184010000Y-121810000D01*
X184110000Y-121910000D02*
X184410000Y-122310000D01*
X183610000Y-121110000D02*
X183910000Y-120710000D01*
X184010000Y-121810000D02*
X183610000Y-121110000D01*
X186010000Y-121810000D02*
X185510000Y-121010000D01*
X183910000Y-120710000D02*
X186910000Y-120710000D01*
X186510000Y-121020000D02*
X186010000Y-121820000D01*
X185010000Y-121810000D02*
X184510000Y-121010000D01*
X187010000Y-121820000D02*
X186510000Y-121020000D01*
X184410000Y-122310000D02*
X187410000Y-122310000D01*
X185510000Y-121010000D02*
X185010000Y-121810000D01*
D11*
G36*
X186121238Y-124707023D02*
G01*
X186185417Y-124771202D01*
X186223332Y-124922861D01*
X186223332Y-125231575D01*
X186185416Y-125383235D01*
X186121240Y-125447413D01*
X186061630Y-125477219D01*
X185918368Y-125477219D01*
X185858758Y-125447414D01*
X185794581Y-125383236D01*
X185756666Y-125231575D01*
X185756666Y-124922862D01*
X185794581Y-124771202D01*
X185858760Y-124707023D01*
X185918368Y-124677219D01*
X186061630Y-124677219D01*
X186121238Y-124707023D01*
G37*
G36*
X184628094Y-123867275D02*
G01*
X184506225Y-123867275D01*
X184401160Y-123832253D01*
X184334090Y-123765183D01*
X184298636Y-123694274D01*
X184256666Y-123526393D01*
X184256666Y-123408156D01*
X184298636Y-123240274D01*
X184334089Y-123169368D01*
X184401161Y-123102296D01*
X184506225Y-123067275D01*
X184628094Y-123067275D01*
X184628094Y-123867275D01*
G37*
G36*
X187534443Y-125788330D02*
G01*
X183495095Y-125788330D01*
X183495095Y-124557710D01*
X183606206Y-124557710D01*
X183606206Y-124596728D01*
X183621138Y-124632776D01*
X183648728Y-124660366D01*
X183684776Y-124675298D01*
X183704285Y-124677219D01*
X184080475Y-124677219D01*
X184080475Y-124953409D01*
X183847142Y-124953409D01*
X183827633Y-124955330D01*
X183791585Y-124970262D01*
X183763995Y-124997852D01*
X183749063Y-125033900D01*
X183749063Y-125072918D01*
X183763995Y-125108966D01*
X183791585Y-125136556D01*
X183827633Y-125151488D01*
X183847142Y-125153409D01*
X184080475Y-125153409D01*
X184080475Y-125477219D01*
X183704285Y-125477219D01*
X183684776Y-125479140D01*
X183648728Y-125494072D01*
X183621138Y-125521662D01*
X183606206Y-125557710D01*
X183606206Y-125596728D01*
X183621138Y-125632776D01*
X183648728Y-125660366D01*
X183684776Y-125675298D01*
X183704285Y-125677219D01*
X184180475Y-125677219D01*
X184199984Y-125675298D01*
X184236032Y-125660366D01*
X184263622Y-125632776D01*
X184278554Y-125596728D01*
X184280475Y-125577219D01*
X184280475Y-124577219D01*
X184556666Y-124577219D01*
X184556666Y-125577219D01*
X184557160Y-125582236D01*
X184556910Y-125584204D01*
X184557604Y-125586750D01*
X184558587Y-125596728D01*
X184563678Y-125609018D01*
X184567177Y-125621847D01*
X184571079Y-125626885D01*
X184573519Y-125632776D01*
X184582924Y-125642181D01*
X184591067Y-125652696D01*
X184596601Y-125655858D01*
X184601109Y-125660366D01*
X184613394Y-125665454D01*
X184624944Y-125672055D01*
X184631268Y-125672858D01*
X184637157Y-125675298D01*
X184650458Y-125675298D01*
X184663651Y-125676975D01*
X184669800Y-125675298D01*
X184676175Y-125675298D01*
X184688465Y-125670206D01*
X184701294Y-125666708D01*
X184706332Y-125662805D01*
X184712223Y-125660366D01*
X184721628Y-125650960D01*
X184732143Y-125642818D01*
X184737946Y-125634642D01*
X184739813Y-125632776D01*
X184740571Y-125630943D01*
X184743490Y-125626833D01*
X185128094Y-124953775D01*
X185128094Y-125577219D01*
X185130015Y-125596728D01*
X185144947Y-125632776D01*
X185172537Y-125660366D01*
X185208585Y-125675298D01*
X185247603Y-125675298D01*
X185283651Y-125660366D01*
X185311241Y-125632776D01*
X185326173Y-125596728D01*
X185328094Y-125577219D01*
X185328094Y-124910552D01*
X185556666Y-124910552D01*
X185556666Y-125243885D01*
X185557001Y-125247287D01*
X185556784Y-125248746D01*
X185557863Y-125256043D01*
X185558587Y-125263394D01*
X185559151Y-125264757D01*
X185559652Y-125268139D01*
X185607271Y-125458614D01*
X185613866Y-125477075D01*
X185618291Y-125483047D01*
X185621137Y-125489918D01*
X185633574Y-125505071D01*
X185728812Y-125600311D01*
X185736480Y-125606604D01*
X185738211Y-125608600D01*
X185741218Y-125610493D01*
X185743965Y-125612747D01*
X185746405Y-125613757D01*
X185754802Y-125619043D01*
X185850039Y-125666662D01*
X185868348Y-125673668D01*
X185871931Y-125673922D01*
X185875252Y-125675298D01*
X185894761Y-125677219D01*
X186085237Y-125677219D01*
X186104746Y-125675298D01*
X186108066Y-125673922D01*
X186111650Y-125673668D01*
X186129958Y-125666662D01*
X186225196Y-125619043D01*
X186233591Y-125613758D01*
X186236033Y-125612747D01*
X186238780Y-125610491D01*
X186241786Y-125608600D01*
X186243516Y-125606605D01*
X186251186Y-125600310D01*
X186346424Y-125505071D01*
X186358861Y-125489918D01*
X186361706Y-125483047D01*
X186366132Y-125477075D01*
X186372727Y-125458615D01*
X186420346Y-125268139D01*
X186420846Y-125264757D01*
X186421411Y-125263394D01*
X186422134Y-125256043D01*
X186423214Y-125248746D01*
X186422996Y-125247287D01*
X186423332Y-125243885D01*
X186423332Y-124910552D01*
X186422996Y-124907149D01*
X186423214Y-124905691D01*
X186422134Y-124898393D01*
X186421411Y-124891043D01*
X186420846Y-124889679D01*
X186420346Y-124886298D01*
X186372727Y-124695822D01*
X186366132Y-124677362D01*
X186361705Y-124671387D01*
X186358860Y-124664519D01*
X186346424Y-124649365D01*
X186274173Y-124577114D01*
X186556666Y-124577114D01*
X186558587Y-124586824D01*
X186558587Y-124596728D01*
X186562336Y-124605780D01*
X186564238Y-124615391D01*
X186573461Y-124632689D01*
X187136480Y-125477219D01*
X186656666Y-125477219D01*
X186637157Y-125479140D01*
X186601109Y-125494072D01*
X186573519Y-125521662D01*
X186558587Y-125557710D01*
X186558587Y-125596728D01*
X186573519Y-125632776D01*
X186601109Y-125660366D01*
X186637157Y-125675298D01*
X186656666Y-125677219D01*
X187323227Y-125677219D01*
X187323332Y-125677219D01*
X187342841Y-125675298D01*
X187351893Y-125671548D01*
X187361504Y-125669647D01*
X187369742Y-125664154D01*
X187378889Y-125660366D01*
X187385815Y-125653439D01*
X187393969Y-125648004D01*
X187399479Y-125639775D01*
X187406479Y-125632776D01*
X187410228Y-125623724D01*
X187415680Y-125615584D01*
X187417621Y-125605876D01*
X187421411Y-125596728D01*
X187421411Y-125586929D01*
X187423332Y-125577324D01*
X187421411Y-125567613D01*
X187421411Y-125557710D01*
X187417661Y-125548657D01*
X187415760Y-125539047D01*
X187406537Y-125521749D01*
X186843518Y-124677219D01*
X187323332Y-124677219D01*
X187342841Y-124675298D01*
X187378889Y-124660366D01*
X187406479Y-124632776D01*
X187421411Y-124596728D01*
X187421411Y-124557710D01*
X187406479Y-124521662D01*
X187378889Y-124494072D01*
X187342841Y-124479140D01*
X187323332Y-124477219D01*
X186656666Y-124477219D01*
X186637157Y-124479140D01*
X186628104Y-124482889D01*
X186618494Y-124484791D01*
X186610255Y-124490283D01*
X186601109Y-124494072D01*
X186594182Y-124500998D01*
X186586029Y-124506434D01*
X186580518Y-124514662D01*
X186573519Y-124521662D01*
X186569769Y-124530713D01*
X186564318Y-124538854D01*
X186562376Y-124548561D01*
X186558587Y-124557710D01*
X186558587Y-124567509D01*
X186556666Y-124577114D01*
X186274173Y-124577114D01*
X186251186Y-124554127D01*
X186243515Y-124547832D01*
X186241786Y-124545838D01*
X186238778Y-124543944D01*
X186236032Y-124541691D01*
X186233592Y-124540680D01*
X186225196Y-124535395D01*
X186129958Y-124487776D01*
X186111650Y-124480770D01*
X186108066Y-124480515D01*
X186104746Y-124479140D01*
X186085237Y-124477219D01*
X185894761Y-124477219D01*
X185875252Y-124479140D01*
X185871931Y-124480515D01*
X185868348Y-124480770D01*
X185850039Y-124487776D01*
X185754802Y-124535395D01*
X185746403Y-124540681D01*
X185743966Y-124541691D01*
X185741222Y-124543942D01*
X185738211Y-124545838D01*
X185736478Y-124547835D01*
X185728812Y-124554127D01*
X185633574Y-124649365D01*
X185621138Y-124664519D01*
X185618292Y-124671387D01*
X185613866Y-124677362D01*
X185607271Y-124695823D01*
X185559652Y-124886298D01*
X185559151Y-124889679D01*
X185558587Y-124891043D01*
X185557863Y-124898393D01*
X185556784Y-124905691D01*
X185557001Y-124907149D01*
X185556666Y-124910552D01*
X185328094Y-124910552D01*
X185328094Y-124577219D01*
X185327599Y-124572201D01*
X185327850Y-124570234D01*
X185327155Y-124567687D01*
X185326173Y-124557710D01*
X185321083Y-124545423D01*
X185317584Y-124532591D01*
X185313679Y-124527549D01*
X185311241Y-124521662D01*
X185301837Y-124512258D01*
X185293693Y-124501742D01*
X185288158Y-124498579D01*
X185283651Y-124494072D01*
X185271365Y-124488983D01*
X185259816Y-124482383D01*
X185253491Y-124481579D01*
X185247603Y-124479140D01*
X185234303Y-124479140D01*
X185221110Y-124477463D01*
X185214961Y-124479140D01*
X185208585Y-124479140D01*
X185196298Y-124484229D01*
X185183466Y-124487729D01*
X185178424Y-124491633D01*
X185172537Y-124494072D01*
X185163133Y-124503475D01*
X185152617Y-124511620D01*
X185146813Y-124519795D01*
X185144947Y-124521662D01*
X185144188Y-124523494D01*
X185141270Y-124527605D01*
X184756666Y-125200662D01*
X184756666Y-124577219D01*
X184754745Y-124557710D01*
X184739813Y-124521662D01*
X184712223Y-124494072D01*
X184676175Y-124479140D01*
X184637157Y-124479140D01*
X184601109Y-124494072D01*
X184573519Y-124521662D01*
X184558587Y-124557710D01*
X184556666Y-124577219D01*
X184280475Y-124577219D01*
X184278554Y-124557710D01*
X184263622Y-124521662D01*
X184236032Y-124494072D01*
X184199984Y-124479140D01*
X184180475Y-124477219D01*
X183704285Y-124477219D01*
X183684776Y-124479140D01*
X183648728Y-124494072D01*
X183621138Y-124521662D01*
X183606206Y-124557710D01*
X183495095Y-124557710D01*
X183495095Y-123395846D01*
X184056666Y-123395846D01*
X184056666Y-123538703D01*
X184057001Y-123542105D01*
X184056784Y-123543564D01*
X184057863Y-123550861D01*
X184058587Y-123558212D01*
X184059151Y-123559575D01*
X184059652Y-123562957D01*
X184107271Y-123753432D01*
X184107784Y-123754869D01*
X184107836Y-123755592D01*
X184110944Y-123763716D01*
X184113866Y-123771893D01*
X184114296Y-123772473D01*
X184114842Y-123773900D01*
X184162461Y-123869138D01*
X184167743Y-123877530D01*
X184168756Y-123879974D01*
X184171012Y-123882723D01*
X184172904Y-123885728D01*
X184174898Y-123887457D01*
X184181193Y-123895127D01*
X184276431Y-123990367D01*
X184291584Y-124002803D01*
X184294903Y-124004178D01*
X184297619Y-124006533D01*
X184315519Y-124014524D01*
X184458376Y-124062143D01*
X184468048Y-124064342D01*
X184470490Y-124065354D01*
X184474027Y-124065702D01*
X184477491Y-124066490D01*
X184480125Y-124066302D01*
X184489999Y-124067275D01*
X184728094Y-124067275D01*
X184747603Y-124065354D01*
X184783651Y-124050422D01*
X184811241Y-124022832D01*
X184826173Y-123986784D01*
X184828094Y-123967275D01*
X184828094Y-122967275D01*
X185104285Y-122967275D01*
X185104285Y-123967275D01*
X185104779Y-123972292D01*
X185104529Y-123974260D01*
X185105223Y-123976806D01*
X185106206Y-123986784D01*
X185111297Y-123999074D01*
X185114796Y-124011903D01*
X185118698Y-124016941D01*
X185121138Y-124022832D01*
X185130543Y-124032237D01*
X185138686Y-124042752D01*
X185144220Y-124045914D01*
X185148728Y-124050422D01*
X185161013Y-124055510D01*
X185172563Y-124062111D01*
X185178887Y-124062914D01*
X185184776Y-124065354D01*
X185198077Y-124065354D01*
X185211270Y-124067031D01*
X185217419Y-124065354D01*
X185223794Y-124065354D01*
X185236084Y-124060262D01*
X185248913Y-124056764D01*
X185253951Y-124052861D01*
X185259842Y-124050422D01*
X185269247Y-124041016D01*
X185279762Y-124032874D01*
X185285565Y-124024698D01*
X185287432Y-124022832D01*
X185288190Y-124020999D01*
X185291109Y-124016889D01*
X185675713Y-123343831D01*
X185675713Y-123967275D01*
X185677634Y-123986784D01*
X185692566Y-124022832D01*
X185720156Y-124050422D01*
X185756204Y-124065354D01*
X185795222Y-124065354D01*
X185831270Y-124050422D01*
X185858860Y-124022832D01*
X185873792Y-123986784D01*
X185875713Y-123967275D01*
X185875713Y-123538703D01*
X186104285Y-123538703D01*
X186104285Y-123872036D01*
X186106206Y-123891544D01*
X186121137Y-123927593D01*
X186133574Y-123942746D01*
X186181192Y-123990366D01*
X186196346Y-124002803D01*
X186199665Y-124004178D01*
X186202381Y-124006533D01*
X186220281Y-124014524D01*
X186363138Y-124062143D01*
X186372810Y-124064342D01*
X186375252Y-124065354D01*
X186378789Y-124065702D01*
X186382253Y-124066490D01*
X186384887Y-124066302D01*
X186394761Y-124067275D01*
X186489999Y-124067275D01*
X186499872Y-124066302D01*
X186502506Y-124066490D01*
X186505969Y-124065702D01*
X186509508Y-124065354D01*
X186511950Y-124064342D01*
X186521622Y-124062143D01*
X186664478Y-124014524D01*
X186682379Y-124006533D01*
X186685094Y-124004178D01*
X186688414Y-124002803D01*
X186703567Y-123990366D01*
X186798805Y-123895127D01*
X186805097Y-123887460D01*
X186807094Y-123885729D01*
X186808987Y-123882721D01*
X186811242Y-123879974D01*
X186812253Y-123877532D01*
X186817537Y-123869138D01*
X186865156Y-123773901D01*
X186865702Y-123772472D01*
X186866132Y-123771893D01*
X186869053Y-123763716D01*
X186872162Y-123755592D01*
X186872213Y-123754871D01*
X186872727Y-123753433D01*
X186920346Y-123562957D01*
X186920846Y-123559575D01*
X186921411Y-123558212D01*
X186922134Y-123550861D01*
X186923214Y-123543564D01*
X186922996Y-123542105D01*
X186923332Y-123538703D01*
X186923332Y-123395846D01*
X186922996Y-123392443D01*
X186923214Y-123390985D01*
X186922134Y-123383687D01*
X186921411Y-123376337D01*
X186920846Y-123374973D01*
X186920346Y-123371592D01*
X186872727Y-123181116D01*
X186872213Y-123179677D01*
X186872162Y-123178957D01*
X186869053Y-123170832D01*
X186866132Y-123162656D01*
X186865702Y-123162076D01*
X186865156Y-123160648D01*
X186817537Y-123065411D01*
X186812250Y-123057012D01*
X186811241Y-123054575D01*
X186808989Y-123051831D01*
X186807094Y-123048820D01*
X186805096Y-123047087D01*
X186798805Y-123039421D01*
X186703567Y-122944183D01*
X186688413Y-122931747D01*
X186685094Y-122930372D01*
X186682379Y-122928017D01*
X186664478Y-122920026D01*
X186521622Y-122872407D01*
X186511950Y-122870207D01*
X186509508Y-122869196D01*
X186505969Y-122868847D01*
X186502506Y-122868060D01*
X186499872Y-122868247D01*
X186489999Y-122867275D01*
X186347142Y-122867275D01*
X186327633Y-122869196D01*
X186324312Y-122870571D01*
X186320729Y-122870826D01*
X186302420Y-122877832D01*
X186207183Y-122925451D01*
X186190592Y-122935894D01*
X186165028Y-122965371D01*
X186152689Y-123002387D01*
X186155455Y-123041307D01*
X186172904Y-123076206D01*
X186202381Y-123101770D01*
X186239397Y-123114109D01*
X186278317Y-123111343D01*
X186296625Y-123104337D01*
X186370749Y-123067275D01*
X186473772Y-123067275D01*
X186578836Y-123102296D01*
X186645909Y-123169369D01*
X186681361Y-123240274D01*
X186723332Y-123408155D01*
X186723332Y-123526393D01*
X186681361Y-123694274D01*
X186645908Y-123765180D01*
X186578837Y-123832253D01*
X186473772Y-123867275D01*
X186410987Y-123867275D01*
X186305922Y-123832253D01*
X186304285Y-123830615D01*
X186304285Y-123638703D01*
X186394761Y-123638703D01*
X186414270Y-123636782D01*
X186450318Y-123621850D01*
X186477908Y-123594260D01*
X186492840Y-123558212D01*
X186492840Y-123519194D01*
X186477908Y-123483146D01*
X186450318Y-123455556D01*
X186414270Y-123440624D01*
X186394761Y-123438703D01*
X186204285Y-123438703D01*
X186184776Y-123440624D01*
X186148728Y-123455556D01*
X186121138Y-123483146D01*
X186106206Y-123519194D01*
X186104285Y-123538703D01*
X185875713Y-123538703D01*
X185875713Y-122967275D01*
X185875218Y-122962257D01*
X185875469Y-122960290D01*
X185874774Y-122957743D01*
X185873792Y-122947766D01*
X185868702Y-122935479D01*
X185865203Y-122922647D01*
X185861298Y-122917605D01*
X185858860Y-122911718D01*
X185849456Y-122902314D01*
X185841312Y-122891798D01*
X185835777Y-122888635D01*
X185831270Y-122884128D01*
X185818984Y-122879039D01*
X185807435Y-122872439D01*
X185801110Y-122871635D01*
X185795222Y-122869196D01*
X185781922Y-122869196D01*
X185768729Y-122867519D01*
X185762580Y-122869196D01*
X185756204Y-122869196D01*
X185743917Y-122874285D01*
X185731085Y-122877785D01*
X185726043Y-122881689D01*
X185720156Y-122884128D01*
X185710752Y-122893531D01*
X185700236Y-122901676D01*
X185694432Y-122909851D01*
X185692566Y-122911718D01*
X185691807Y-122913550D01*
X185688889Y-122917661D01*
X185304285Y-123590718D01*
X185304285Y-122967275D01*
X185302364Y-122947766D01*
X185287432Y-122911718D01*
X185259842Y-122884128D01*
X185223794Y-122869196D01*
X185184776Y-122869196D01*
X185148728Y-122884128D01*
X185121138Y-122911718D01*
X185106206Y-122947766D01*
X185104285Y-122967275D01*
X184828094Y-122967275D01*
X184826173Y-122947766D01*
X184811241Y-122911718D01*
X184783651Y-122884128D01*
X184747603Y-122869196D01*
X184728094Y-122867275D01*
X184489999Y-122867275D01*
X184480125Y-122868247D01*
X184477491Y-122868060D01*
X184474027Y-122868847D01*
X184470490Y-122869196D01*
X184468048Y-122870207D01*
X184458376Y-122872407D01*
X184315519Y-122920026D01*
X184297619Y-122928017D01*
X184294903Y-122930372D01*
X184291585Y-122931747D01*
X184276431Y-122944183D01*
X184181193Y-123039421D01*
X184174898Y-123047091D01*
X184172904Y-123048821D01*
X184171010Y-123051828D01*
X184168757Y-123054575D01*
X184167746Y-123057014D01*
X184162461Y-123065411D01*
X184114842Y-123160649D01*
X184114296Y-123162075D01*
X184113866Y-123162656D01*
X184110944Y-123170832D01*
X184107836Y-123178957D01*
X184107784Y-123179679D01*
X184107271Y-123181117D01*
X184059652Y-123371592D01*
X184059151Y-123374973D01*
X184058587Y-123376337D01*
X184057863Y-123383687D01*
X184056784Y-123390985D01*
X184057001Y-123392443D01*
X184056666Y-123395846D01*
X183495095Y-123395846D01*
X183495095Y-122756164D01*
X187534443Y-122756164D01*
X187534443Y-125788330D01*
G37*
D12*
X115642857Y-61954819D02*
X115976190Y-61478628D01*
X116214285Y-61954819D02*
X116214285Y-60954819D01*
X116214285Y-60954819D02*
X115833333Y-60954819D01*
X115833333Y-60954819D02*
X115738095Y-61002438D01*
X115738095Y-61002438D02*
X115690476Y-61050057D01*
X115690476Y-61050057D02*
X115642857Y-61145295D01*
X115642857Y-61145295D02*
X115642857Y-61288152D01*
X115642857Y-61288152D02*
X115690476Y-61383390D01*
X115690476Y-61383390D02*
X115738095Y-61431009D01*
X115738095Y-61431009D02*
X115833333Y-61478628D01*
X115833333Y-61478628D02*
X116214285Y-61478628D01*
X115261904Y-61050057D02*
X115214285Y-61002438D01*
X115214285Y-61002438D02*
X115119047Y-60954819D01*
X115119047Y-60954819D02*
X114880952Y-60954819D01*
X114880952Y-60954819D02*
X114785714Y-61002438D01*
X114785714Y-61002438D02*
X114738095Y-61050057D01*
X114738095Y-61050057D02*
X114690476Y-61145295D01*
X114690476Y-61145295D02*
X114690476Y-61240533D01*
X114690476Y-61240533D02*
X114738095Y-61383390D01*
X114738095Y-61383390D02*
X115309523Y-61954819D01*
X115309523Y-61954819D02*
X114690476Y-61954819D01*
X113833333Y-60954819D02*
X114023809Y-60954819D01*
X114023809Y-60954819D02*
X114119047Y-61002438D01*
X114119047Y-61002438D02*
X114166666Y-61050057D01*
X114166666Y-61050057D02*
X114261904Y-61192914D01*
X114261904Y-61192914D02*
X114309523Y-61383390D01*
X114309523Y-61383390D02*
X114309523Y-61764342D01*
X114309523Y-61764342D02*
X114261904Y-61859580D01*
X114261904Y-61859580D02*
X114214285Y-61907200D01*
X114214285Y-61907200D02*
X114119047Y-61954819D01*
X114119047Y-61954819D02*
X113928571Y-61954819D01*
X113928571Y-61954819D02*
X113833333Y-61907200D01*
X113833333Y-61907200D02*
X113785714Y-61859580D01*
X113785714Y-61859580D02*
X113738095Y-61764342D01*
X113738095Y-61764342D02*
X113738095Y-61526247D01*
X113738095Y-61526247D02*
X113785714Y-61431009D01*
X113785714Y-61431009D02*
X113833333Y-61383390D01*
X113833333Y-61383390D02*
X113928571Y-61335771D01*
X113928571Y-61335771D02*
X114119047Y-61335771D01*
X114119047Y-61335771D02*
X114214285Y-61383390D01*
X114214285Y-61383390D02*
X114261904Y-61431009D01*
X114261904Y-61431009D02*
X114309523Y-61526247D01*
X175854819Y-68583333D02*
X175378628Y-68250000D01*
X175854819Y-68011905D02*
X174854819Y-68011905D01*
X174854819Y-68011905D02*
X174854819Y-68392857D01*
X174854819Y-68392857D02*
X174902438Y-68488095D01*
X174902438Y-68488095D02*
X174950057Y-68535714D01*
X174950057Y-68535714D02*
X175045295Y-68583333D01*
X175045295Y-68583333D02*
X175188152Y-68583333D01*
X175188152Y-68583333D02*
X175283390Y-68535714D01*
X175283390Y-68535714D02*
X175331009Y-68488095D01*
X175331009Y-68488095D02*
X175378628Y-68392857D01*
X175378628Y-68392857D02*
X175378628Y-68011905D01*
X174854819Y-68916667D02*
X174854819Y-69535714D01*
X174854819Y-69535714D02*
X175235771Y-69202381D01*
X175235771Y-69202381D02*
X175235771Y-69345238D01*
X175235771Y-69345238D02*
X175283390Y-69440476D01*
X175283390Y-69440476D02*
X175331009Y-69488095D01*
X175331009Y-69488095D02*
X175426247Y-69535714D01*
X175426247Y-69535714D02*
X175664342Y-69535714D01*
X175664342Y-69535714D02*
X175759580Y-69488095D01*
X175759580Y-69488095D02*
X175807200Y-69440476D01*
X175807200Y-69440476D02*
X175854819Y-69345238D01*
X175854819Y-69345238D02*
X175854819Y-69059524D01*
X175854819Y-69059524D02*
X175807200Y-68964286D01*
X175807200Y-68964286D02*
X175759580Y-68916667D01*
X183554819Y-45557142D02*
X183078628Y-45223809D01*
X183554819Y-44985714D02*
X182554819Y-44985714D01*
X182554819Y-44985714D02*
X182554819Y-45366666D01*
X182554819Y-45366666D02*
X182602438Y-45461904D01*
X182602438Y-45461904D02*
X182650057Y-45509523D01*
X182650057Y-45509523D02*
X182745295Y-45557142D01*
X182745295Y-45557142D02*
X182888152Y-45557142D01*
X182888152Y-45557142D02*
X182983390Y-45509523D01*
X182983390Y-45509523D02*
X183031009Y-45461904D01*
X183031009Y-45461904D02*
X183078628Y-45366666D01*
X183078628Y-45366666D02*
X183078628Y-44985714D01*
X183554819Y-46509523D02*
X183554819Y-45938095D01*
X183554819Y-46223809D02*
X182554819Y-46223809D01*
X182554819Y-46223809D02*
X182697676Y-46128571D01*
X182697676Y-46128571D02*
X182792914Y-46033333D01*
X182792914Y-46033333D02*
X182840533Y-45938095D01*
X182650057Y-46890476D02*
X182602438Y-46938095D01*
X182602438Y-46938095D02*
X182554819Y-47033333D01*
X182554819Y-47033333D02*
X182554819Y-47271428D01*
X182554819Y-47271428D02*
X182602438Y-47366666D01*
X182602438Y-47366666D02*
X182650057Y-47414285D01*
X182650057Y-47414285D02*
X182745295Y-47461904D01*
X182745295Y-47461904D02*
X182840533Y-47461904D01*
X182840533Y-47461904D02*
X182983390Y-47414285D01*
X182983390Y-47414285D02*
X183554819Y-46842857D01*
X183554819Y-46842857D02*
X183554819Y-47461904D01*
X143254819Y-98733333D02*
X142778628Y-98400000D01*
X143254819Y-98161905D02*
X142254819Y-98161905D01*
X142254819Y-98161905D02*
X142254819Y-98542857D01*
X142254819Y-98542857D02*
X142302438Y-98638095D01*
X142302438Y-98638095D02*
X142350057Y-98685714D01*
X142350057Y-98685714D02*
X142445295Y-98733333D01*
X142445295Y-98733333D02*
X142588152Y-98733333D01*
X142588152Y-98733333D02*
X142683390Y-98685714D01*
X142683390Y-98685714D02*
X142731009Y-98638095D01*
X142731009Y-98638095D02*
X142778628Y-98542857D01*
X142778628Y-98542857D02*
X142778628Y-98161905D01*
X143254819Y-99685714D02*
X143254819Y-99114286D01*
X143254819Y-99400000D02*
X142254819Y-99400000D01*
X142254819Y-99400000D02*
X142397676Y-99304762D01*
X142397676Y-99304762D02*
X142492914Y-99209524D01*
X142492914Y-99209524D02*
X142540533Y-99114286D01*
X114334819Y-57837142D02*
X113858628Y-57503809D01*
X114334819Y-57265714D02*
X113334819Y-57265714D01*
X113334819Y-57265714D02*
X113334819Y-57646666D01*
X113334819Y-57646666D02*
X113382438Y-57741904D01*
X113382438Y-57741904D02*
X113430057Y-57789523D01*
X113430057Y-57789523D02*
X113525295Y-57837142D01*
X113525295Y-57837142D02*
X113668152Y-57837142D01*
X113668152Y-57837142D02*
X113763390Y-57789523D01*
X113763390Y-57789523D02*
X113811009Y-57741904D01*
X113811009Y-57741904D02*
X113858628Y-57646666D01*
X113858628Y-57646666D02*
X113858628Y-57265714D01*
X113430057Y-58218095D02*
X113382438Y-58265714D01*
X113382438Y-58265714D02*
X113334819Y-58360952D01*
X113334819Y-58360952D02*
X113334819Y-58599047D01*
X113334819Y-58599047D02*
X113382438Y-58694285D01*
X113382438Y-58694285D02*
X113430057Y-58741904D01*
X113430057Y-58741904D02*
X113525295Y-58789523D01*
X113525295Y-58789523D02*
X113620533Y-58789523D01*
X113620533Y-58789523D02*
X113763390Y-58741904D01*
X113763390Y-58741904D02*
X114334819Y-58170476D01*
X114334819Y-58170476D02*
X114334819Y-58789523D01*
X113334819Y-59122857D02*
X113334819Y-59789523D01*
X113334819Y-59789523D02*
X114334819Y-59360952D01*
X172178628Y-68473809D02*
X172654819Y-68473809D01*
X171654819Y-68140476D02*
X172178628Y-68473809D01*
X172178628Y-68473809D02*
X171654819Y-68807142D01*
X172654819Y-69664285D02*
X172654819Y-69092857D01*
X172654819Y-69378571D02*
X171654819Y-69378571D01*
X171654819Y-69378571D02*
X171797676Y-69283333D01*
X171797676Y-69283333D02*
X171892914Y-69188095D01*
X171892914Y-69188095D02*
X171940533Y-69092857D01*
X119988094Y-51704819D02*
X119988094Y-50704819D01*
X119988094Y-50704819D02*
X119749999Y-50704819D01*
X119749999Y-50704819D02*
X119607142Y-50752438D01*
X119607142Y-50752438D02*
X119511904Y-50847676D01*
X119511904Y-50847676D02*
X119464285Y-50942914D01*
X119464285Y-50942914D02*
X119416666Y-51133390D01*
X119416666Y-51133390D02*
X119416666Y-51276247D01*
X119416666Y-51276247D02*
X119464285Y-51466723D01*
X119464285Y-51466723D02*
X119511904Y-51561961D01*
X119511904Y-51561961D02*
X119607142Y-51657200D01*
X119607142Y-51657200D02*
X119749999Y-51704819D01*
X119749999Y-51704819D02*
X119988094Y-51704819D01*
X119083332Y-50704819D02*
X118416666Y-50704819D01*
X118416666Y-50704819D02*
X118845237Y-51704819D01*
X145054819Y-98733333D02*
X144578628Y-98400000D01*
X145054819Y-98161905D02*
X144054819Y-98161905D01*
X144054819Y-98161905D02*
X144054819Y-98542857D01*
X144054819Y-98542857D02*
X144102438Y-98638095D01*
X144102438Y-98638095D02*
X144150057Y-98685714D01*
X144150057Y-98685714D02*
X144245295Y-98733333D01*
X144245295Y-98733333D02*
X144388152Y-98733333D01*
X144388152Y-98733333D02*
X144483390Y-98685714D01*
X144483390Y-98685714D02*
X144531009Y-98638095D01*
X144531009Y-98638095D02*
X144578628Y-98542857D01*
X144578628Y-98542857D02*
X144578628Y-98161905D01*
X144150057Y-99114286D02*
X144102438Y-99161905D01*
X144102438Y-99161905D02*
X144054819Y-99257143D01*
X144054819Y-99257143D02*
X144054819Y-99495238D01*
X144054819Y-99495238D02*
X144102438Y-99590476D01*
X144102438Y-99590476D02*
X144150057Y-99638095D01*
X144150057Y-99638095D02*
X144245295Y-99685714D01*
X144245295Y-99685714D02*
X144340533Y-99685714D01*
X144340533Y-99685714D02*
X144483390Y-99638095D01*
X144483390Y-99638095D02*
X145054819Y-99066667D01*
X145054819Y-99066667D02*
X145054819Y-99685714D01*
X114842857Y-87354819D02*
X115176190Y-86878628D01*
X115414285Y-87354819D02*
X115414285Y-86354819D01*
X115414285Y-86354819D02*
X115033333Y-86354819D01*
X115033333Y-86354819D02*
X114938095Y-86402438D01*
X114938095Y-86402438D02*
X114890476Y-86450057D01*
X114890476Y-86450057D02*
X114842857Y-86545295D01*
X114842857Y-86545295D02*
X114842857Y-86688152D01*
X114842857Y-86688152D02*
X114890476Y-86783390D01*
X114890476Y-86783390D02*
X114938095Y-86831009D01*
X114938095Y-86831009D02*
X115033333Y-86878628D01*
X115033333Y-86878628D02*
X115414285Y-86878628D01*
X113890476Y-87354819D02*
X114461904Y-87354819D01*
X114176190Y-87354819D02*
X114176190Y-86354819D01*
X114176190Y-86354819D02*
X114271428Y-86497676D01*
X114271428Y-86497676D02*
X114366666Y-86592914D01*
X114366666Y-86592914D02*
X114461904Y-86640533D01*
X112985714Y-86354819D02*
X113461904Y-86354819D01*
X113461904Y-86354819D02*
X113509523Y-86831009D01*
X113509523Y-86831009D02*
X113461904Y-86783390D01*
X113461904Y-86783390D02*
X113366666Y-86735771D01*
X113366666Y-86735771D02*
X113128571Y-86735771D01*
X113128571Y-86735771D02*
X113033333Y-86783390D01*
X113033333Y-86783390D02*
X112985714Y-86831009D01*
X112985714Y-86831009D02*
X112938095Y-86926247D01*
X112938095Y-86926247D02*
X112938095Y-87164342D01*
X112938095Y-87164342D02*
X112985714Y-87259580D01*
X112985714Y-87259580D02*
X113033333Y-87307200D01*
X113033333Y-87307200D02*
X113128571Y-87354819D01*
X113128571Y-87354819D02*
X113366666Y-87354819D01*
X113366666Y-87354819D02*
X113461904Y-87307200D01*
X113461904Y-87307200D02*
X113509523Y-87259580D01*
X157659580Y-88957142D02*
X157707200Y-88909523D01*
X157707200Y-88909523D02*
X157754819Y-88766666D01*
X157754819Y-88766666D02*
X157754819Y-88671428D01*
X157754819Y-88671428D02*
X157707200Y-88528571D01*
X157707200Y-88528571D02*
X157611961Y-88433333D01*
X157611961Y-88433333D02*
X157516723Y-88385714D01*
X157516723Y-88385714D02*
X157326247Y-88338095D01*
X157326247Y-88338095D02*
X157183390Y-88338095D01*
X157183390Y-88338095D02*
X156992914Y-88385714D01*
X156992914Y-88385714D02*
X156897676Y-88433333D01*
X156897676Y-88433333D02*
X156802438Y-88528571D01*
X156802438Y-88528571D02*
X156754819Y-88671428D01*
X156754819Y-88671428D02*
X156754819Y-88766666D01*
X156754819Y-88766666D02*
X156802438Y-88909523D01*
X156802438Y-88909523D02*
X156850057Y-88957142D01*
X157754819Y-89909523D02*
X157754819Y-89338095D01*
X157754819Y-89623809D02*
X156754819Y-89623809D01*
X156754819Y-89623809D02*
X156897676Y-89528571D01*
X156897676Y-89528571D02*
X156992914Y-89433333D01*
X156992914Y-89433333D02*
X157040533Y-89338095D01*
X157754819Y-90861904D02*
X157754819Y-90290476D01*
X157754819Y-90576190D02*
X156754819Y-90576190D01*
X156754819Y-90576190D02*
X156897676Y-90480952D01*
X156897676Y-90480952D02*
X156992914Y-90385714D01*
X156992914Y-90385714D02*
X157040533Y-90290476D01*
X116166666Y-123759580D02*
X116214285Y-123807200D01*
X116214285Y-123807200D02*
X116357142Y-123854819D01*
X116357142Y-123854819D02*
X116452380Y-123854819D01*
X116452380Y-123854819D02*
X116595237Y-123807200D01*
X116595237Y-123807200D02*
X116690475Y-123711961D01*
X116690475Y-123711961D02*
X116738094Y-123616723D01*
X116738094Y-123616723D02*
X116785713Y-123426247D01*
X116785713Y-123426247D02*
X116785713Y-123283390D01*
X116785713Y-123283390D02*
X116738094Y-123092914D01*
X116738094Y-123092914D02*
X116690475Y-122997676D01*
X116690475Y-122997676D02*
X116595237Y-122902438D01*
X116595237Y-122902438D02*
X116452380Y-122854819D01*
X116452380Y-122854819D02*
X116357142Y-122854819D01*
X116357142Y-122854819D02*
X116214285Y-122902438D01*
X116214285Y-122902438D02*
X116166666Y-122950057D01*
X115833332Y-122854819D02*
X115166666Y-122854819D01*
X115166666Y-122854819D02*
X115595237Y-123854819D01*
X148459580Y-88957142D02*
X148507200Y-88909523D01*
X148507200Y-88909523D02*
X148554819Y-88766666D01*
X148554819Y-88766666D02*
X148554819Y-88671428D01*
X148554819Y-88671428D02*
X148507200Y-88528571D01*
X148507200Y-88528571D02*
X148411961Y-88433333D01*
X148411961Y-88433333D02*
X148316723Y-88385714D01*
X148316723Y-88385714D02*
X148126247Y-88338095D01*
X148126247Y-88338095D02*
X147983390Y-88338095D01*
X147983390Y-88338095D02*
X147792914Y-88385714D01*
X147792914Y-88385714D02*
X147697676Y-88433333D01*
X147697676Y-88433333D02*
X147602438Y-88528571D01*
X147602438Y-88528571D02*
X147554819Y-88671428D01*
X147554819Y-88671428D02*
X147554819Y-88766666D01*
X147554819Y-88766666D02*
X147602438Y-88909523D01*
X147602438Y-88909523D02*
X147650057Y-88957142D01*
X148554819Y-89909523D02*
X148554819Y-89338095D01*
X148554819Y-89623809D02*
X147554819Y-89623809D01*
X147554819Y-89623809D02*
X147697676Y-89528571D01*
X147697676Y-89528571D02*
X147792914Y-89433333D01*
X147792914Y-89433333D02*
X147840533Y-89338095D01*
X147554819Y-90814285D02*
X147554819Y-90338095D01*
X147554819Y-90338095D02*
X148031009Y-90290476D01*
X148031009Y-90290476D02*
X147983390Y-90338095D01*
X147983390Y-90338095D02*
X147935771Y-90433333D01*
X147935771Y-90433333D02*
X147935771Y-90671428D01*
X147935771Y-90671428D02*
X147983390Y-90766666D01*
X147983390Y-90766666D02*
X148031009Y-90814285D01*
X148031009Y-90814285D02*
X148126247Y-90861904D01*
X148126247Y-90861904D02*
X148364342Y-90861904D01*
X148364342Y-90861904D02*
X148459580Y-90814285D01*
X148459580Y-90814285D02*
X148507200Y-90766666D01*
X148507200Y-90766666D02*
X148554819Y-90671428D01*
X148554819Y-90671428D02*
X148554819Y-90433333D01*
X148554819Y-90433333D02*
X148507200Y-90338095D01*
X148507200Y-90338095D02*
X148459580Y-90290476D01*
X172566666Y-61609580D02*
X172614285Y-61657200D01*
X172614285Y-61657200D02*
X172757142Y-61704819D01*
X172757142Y-61704819D02*
X172852380Y-61704819D01*
X172852380Y-61704819D02*
X172995237Y-61657200D01*
X172995237Y-61657200D02*
X173090475Y-61561961D01*
X173090475Y-61561961D02*
X173138094Y-61466723D01*
X173138094Y-61466723D02*
X173185713Y-61276247D01*
X173185713Y-61276247D02*
X173185713Y-61133390D01*
X173185713Y-61133390D02*
X173138094Y-60942914D01*
X173138094Y-60942914D02*
X173090475Y-60847676D01*
X173090475Y-60847676D02*
X172995237Y-60752438D01*
X172995237Y-60752438D02*
X172852380Y-60704819D01*
X172852380Y-60704819D02*
X172757142Y-60704819D01*
X172757142Y-60704819D02*
X172614285Y-60752438D01*
X172614285Y-60752438D02*
X172566666Y-60800057D01*
X171995237Y-61133390D02*
X172090475Y-61085771D01*
X172090475Y-61085771D02*
X172138094Y-61038152D01*
X172138094Y-61038152D02*
X172185713Y-60942914D01*
X172185713Y-60942914D02*
X172185713Y-60895295D01*
X172185713Y-60895295D02*
X172138094Y-60800057D01*
X172138094Y-60800057D02*
X172090475Y-60752438D01*
X172090475Y-60752438D02*
X171995237Y-60704819D01*
X171995237Y-60704819D02*
X171804761Y-60704819D01*
X171804761Y-60704819D02*
X171709523Y-60752438D01*
X171709523Y-60752438D02*
X171661904Y-60800057D01*
X171661904Y-60800057D02*
X171614285Y-60895295D01*
X171614285Y-60895295D02*
X171614285Y-60942914D01*
X171614285Y-60942914D02*
X171661904Y-61038152D01*
X171661904Y-61038152D02*
X171709523Y-61085771D01*
X171709523Y-61085771D02*
X171804761Y-61133390D01*
X171804761Y-61133390D02*
X171995237Y-61133390D01*
X171995237Y-61133390D02*
X172090475Y-61181009D01*
X172090475Y-61181009D02*
X172138094Y-61228628D01*
X172138094Y-61228628D02*
X172185713Y-61323866D01*
X172185713Y-61323866D02*
X172185713Y-61514342D01*
X172185713Y-61514342D02*
X172138094Y-61609580D01*
X172138094Y-61609580D02*
X172090475Y-61657200D01*
X172090475Y-61657200D02*
X171995237Y-61704819D01*
X171995237Y-61704819D02*
X171804761Y-61704819D01*
X171804761Y-61704819D02*
X171709523Y-61657200D01*
X171709523Y-61657200D02*
X171661904Y-61609580D01*
X171661904Y-61609580D02*
X171614285Y-61514342D01*
X171614285Y-61514342D02*
X171614285Y-61323866D01*
X171614285Y-61323866D02*
X171661904Y-61228628D01*
X171661904Y-61228628D02*
X171709523Y-61181009D01*
X171709523Y-61181009D02*
X171804761Y-61133390D01*
X110742857Y-79229819D02*
X111076190Y-78753628D01*
X111314285Y-79229819D02*
X111314285Y-78229819D01*
X111314285Y-78229819D02*
X110933333Y-78229819D01*
X110933333Y-78229819D02*
X110838095Y-78277438D01*
X110838095Y-78277438D02*
X110790476Y-78325057D01*
X110790476Y-78325057D02*
X110742857Y-78420295D01*
X110742857Y-78420295D02*
X110742857Y-78563152D01*
X110742857Y-78563152D02*
X110790476Y-78658390D01*
X110790476Y-78658390D02*
X110838095Y-78706009D01*
X110838095Y-78706009D02*
X110933333Y-78753628D01*
X110933333Y-78753628D02*
X111314285Y-78753628D01*
X109790476Y-79229819D02*
X110361904Y-79229819D01*
X110076190Y-79229819D02*
X110076190Y-78229819D01*
X110076190Y-78229819D02*
X110171428Y-78372676D01*
X110171428Y-78372676D02*
X110266666Y-78467914D01*
X110266666Y-78467914D02*
X110361904Y-78515533D01*
X108933333Y-78229819D02*
X109123809Y-78229819D01*
X109123809Y-78229819D02*
X109219047Y-78277438D01*
X109219047Y-78277438D02*
X109266666Y-78325057D01*
X109266666Y-78325057D02*
X109361904Y-78467914D01*
X109361904Y-78467914D02*
X109409523Y-78658390D01*
X109409523Y-78658390D02*
X109409523Y-79039342D01*
X109409523Y-79039342D02*
X109361904Y-79134580D01*
X109361904Y-79134580D02*
X109314285Y-79182200D01*
X109314285Y-79182200D02*
X109219047Y-79229819D01*
X109219047Y-79229819D02*
X109028571Y-79229819D01*
X109028571Y-79229819D02*
X108933333Y-79182200D01*
X108933333Y-79182200D02*
X108885714Y-79134580D01*
X108885714Y-79134580D02*
X108838095Y-79039342D01*
X108838095Y-79039342D02*
X108838095Y-78801247D01*
X108838095Y-78801247D02*
X108885714Y-78706009D01*
X108885714Y-78706009D02*
X108933333Y-78658390D01*
X108933333Y-78658390D02*
X109028571Y-78610771D01*
X109028571Y-78610771D02*
X109219047Y-78610771D01*
X109219047Y-78610771D02*
X109314285Y-78658390D01*
X109314285Y-78658390D02*
X109361904Y-78706009D01*
X109361904Y-78706009D02*
X109409523Y-78801247D01*
X165705357Y-56359580D02*
X165752976Y-56407200D01*
X165752976Y-56407200D02*
X165895833Y-56454819D01*
X165895833Y-56454819D02*
X165991071Y-56454819D01*
X165991071Y-56454819D02*
X166133928Y-56407200D01*
X166133928Y-56407200D02*
X166229166Y-56311961D01*
X166229166Y-56311961D02*
X166276785Y-56216723D01*
X166276785Y-56216723D02*
X166324404Y-56026247D01*
X166324404Y-56026247D02*
X166324404Y-55883390D01*
X166324404Y-55883390D02*
X166276785Y-55692914D01*
X166276785Y-55692914D02*
X166229166Y-55597676D01*
X166229166Y-55597676D02*
X166133928Y-55502438D01*
X166133928Y-55502438D02*
X165991071Y-55454819D01*
X165991071Y-55454819D02*
X165895833Y-55454819D01*
X165895833Y-55454819D02*
X165752976Y-55502438D01*
X165752976Y-55502438D02*
X165705357Y-55550057D01*
X164752976Y-56454819D02*
X165324404Y-56454819D01*
X165038690Y-56454819D02*
X165038690Y-55454819D01*
X165038690Y-55454819D02*
X165133928Y-55597676D01*
X165133928Y-55597676D02*
X165229166Y-55692914D01*
X165229166Y-55692914D02*
X165324404Y-55740533D01*
X164419642Y-55454819D02*
X163752976Y-55454819D01*
X163752976Y-55454819D02*
X164181547Y-56454819D01*
X181659580Y-66833333D02*
X181707200Y-66785714D01*
X181707200Y-66785714D02*
X181754819Y-66642857D01*
X181754819Y-66642857D02*
X181754819Y-66547619D01*
X181754819Y-66547619D02*
X181707200Y-66404762D01*
X181707200Y-66404762D02*
X181611961Y-66309524D01*
X181611961Y-66309524D02*
X181516723Y-66261905D01*
X181516723Y-66261905D02*
X181326247Y-66214286D01*
X181326247Y-66214286D02*
X181183390Y-66214286D01*
X181183390Y-66214286D02*
X180992914Y-66261905D01*
X180992914Y-66261905D02*
X180897676Y-66309524D01*
X180897676Y-66309524D02*
X180802438Y-66404762D01*
X180802438Y-66404762D02*
X180754819Y-66547619D01*
X180754819Y-66547619D02*
X180754819Y-66642857D01*
X180754819Y-66642857D02*
X180802438Y-66785714D01*
X180802438Y-66785714D02*
X180850057Y-66833333D01*
X181754819Y-67785714D02*
X181754819Y-67214286D01*
X181754819Y-67500000D02*
X180754819Y-67500000D01*
X180754819Y-67500000D02*
X180897676Y-67404762D01*
X180897676Y-67404762D02*
X180992914Y-67309524D01*
X180992914Y-67309524D02*
X181040533Y-67214286D01*
X165705357Y-60359580D02*
X165752976Y-60407200D01*
X165752976Y-60407200D02*
X165895833Y-60454819D01*
X165895833Y-60454819D02*
X165991071Y-60454819D01*
X165991071Y-60454819D02*
X166133928Y-60407200D01*
X166133928Y-60407200D02*
X166229166Y-60311961D01*
X166229166Y-60311961D02*
X166276785Y-60216723D01*
X166276785Y-60216723D02*
X166324404Y-60026247D01*
X166324404Y-60026247D02*
X166324404Y-59883390D01*
X166324404Y-59883390D02*
X166276785Y-59692914D01*
X166276785Y-59692914D02*
X166229166Y-59597676D01*
X166229166Y-59597676D02*
X166133928Y-59502438D01*
X166133928Y-59502438D02*
X165991071Y-59454819D01*
X165991071Y-59454819D02*
X165895833Y-59454819D01*
X165895833Y-59454819D02*
X165752976Y-59502438D01*
X165752976Y-59502438D02*
X165705357Y-59550057D01*
X164752976Y-60454819D02*
X165324404Y-60454819D01*
X165038690Y-60454819D02*
X165038690Y-59454819D01*
X165038690Y-59454819D02*
X165133928Y-59597676D01*
X165133928Y-59597676D02*
X165229166Y-59692914D01*
X165229166Y-59692914D02*
X165324404Y-59740533D01*
X164181547Y-59883390D02*
X164276785Y-59835771D01*
X164276785Y-59835771D02*
X164324404Y-59788152D01*
X164324404Y-59788152D02*
X164372023Y-59692914D01*
X164372023Y-59692914D02*
X164372023Y-59645295D01*
X164372023Y-59645295D02*
X164324404Y-59550057D01*
X164324404Y-59550057D02*
X164276785Y-59502438D01*
X164276785Y-59502438D02*
X164181547Y-59454819D01*
X164181547Y-59454819D02*
X163991071Y-59454819D01*
X163991071Y-59454819D02*
X163895833Y-59502438D01*
X163895833Y-59502438D02*
X163848214Y-59550057D01*
X163848214Y-59550057D02*
X163800595Y-59645295D01*
X163800595Y-59645295D02*
X163800595Y-59692914D01*
X163800595Y-59692914D02*
X163848214Y-59788152D01*
X163848214Y-59788152D02*
X163895833Y-59835771D01*
X163895833Y-59835771D02*
X163991071Y-59883390D01*
X163991071Y-59883390D02*
X164181547Y-59883390D01*
X164181547Y-59883390D02*
X164276785Y-59931009D01*
X164276785Y-59931009D02*
X164324404Y-59978628D01*
X164324404Y-59978628D02*
X164372023Y-60073866D01*
X164372023Y-60073866D02*
X164372023Y-60264342D01*
X164372023Y-60264342D02*
X164324404Y-60359580D01*
X164324404Y-60359580D02*
X164276785Y-60407200D01*
X164276785Y-60407200D02*
X164181547Y-60454819D01*
X164181547Y-60454819D02*
X163991071Y-60454819D01*
X163991071Y-60454819D02*
X163895833Y-60407200D01*
X163895833Y-60407200D02*
X163848214Y-60359580D01*
X163848214Y-60359580D02*
X163800595Y-60264342D01*
X163800595Y-60264342D02*
X163800595Y-60073866D01*
X163800595Y-60073866D02*
X163848214Y-59978628D01*
X163848214Y-59978628D02*
X163895833Y-59931009D01*
X163895833Y-59931009D02*
X163991071Y-59883390D01*
X181609580Y-64433333D02*
X181657200Y-64385714D01*
X181657200Y-64385714D02*
X181704819Y-64242857D01*
X181704819Y-64242857D02*
X181704819Y-64147619D01*
X181704819Y-64147619D02*
X181657200Y-64004762D01*
X181657200Y-64004762D02*
X181561961Y-63909524D01*
X181561961Y-63909524D02*
X181466723Y-63861905D01*
X181466723Y-63861905D02*
X181276247Y-63814286D01*
X181276247Y-63814286D02*
X181133390Y-63814286D01*
X181133390Y-63814286D02*
X180942914Y-63861905D01*
X180942914Y-63861905D02*
X180847676Y-63909524D01*
X180847676Y-63909524D02*
X180752438Y-64004762D01*
X180752438Y-64004762D02*
X180704819Y-64147619D01*
X180704819Y-64147619D02*
X180704819Y-64242857D01*
X180704819Y-64242857D02*
X180752438Y-64385714D01*
X180752438Y-64385714D02*
X180800057Y-64433333D01*
X180800057Y-64814286D02*
X180752438Y-64861905D01*
X180752438Y-64861905D02*
X180704819Y-64957143D01*
X180704819Y-64957143D02*
X180704819Y-65195238D01*
X180704819Y-65195238D02*
X180752438Y-65290476D01*
X180752438Y-65290476D02*
X180800057Y-65338095D01*
X180800057Y-65338095D02*
X180895295Y-65385714D01*
X180895295Y-65385714D02*
X180990533Y-65385714D01*
X180990533Y-65385714D02*
X181133390Y-65338095D01*
X181133390Y-65338095D02*
X181704819Y-64766667D01*
X181704819Y-64766667D02*
X181704819Y-65385714D01*
X115916666Y-112659580D02*
X115964285Y-112707200D01*
X115964285Y-112707200D02*
X116107142Y-112754819D01*
X116107142Y-112754819D02*
X116202380Y-112754819D01*
X116202380Y-112754819D02*
X116345237Y-112707200D01*
X116345237Y-112707200D02*
X116440475Y-112611961D01*
X116440475Y-112611961D02*
X116488094Y-112516723D01*
X116488094Y-112516723D02*
X116535713Y-112326247D01*
X116535713Y-112326247D02*
X116535713Y-112183390D01*
X116535713Y-112183390D02*
X116488094Y-111992914D01*
X116488094Y-111992914D02*
X116440475Y-111897676D01*
X116440475Y-111897676D02*
X116345237Y-111802438D01*
X116345237Y-111802438D02*
X116202380Y-111754819D01*
X116202380Y-111754819D02*
X116107142Y-111754819D01*
X116107142Y-111754819D02*
X115964285Y-111802438D01*
X115964285Y-111802438D02*
X115916666Y-111850057D01*
X115011904Y-111754819D02*
X115488094Y-111754819D01*
X115488094Y-111754819D02*
X115535713Y-112231009D01*
X115535713Y-112231009D02*
X115488094Y-112183390D01*
X115488094Y-112183390D02*
X115392856Y-112135771D01*
X115392856Y-112135771D02*
X115154761Y-112135771D01*
X115154761Y-112135771D02*
X115059523Y-112183390D01*
X115059523Y-112183390D02*
X115011904Y-112231009D01*
X115011904Y-112231009D02*
X114964285Y-112326247D01*
X114964285Y-112326247D02*
X114964285Y-112564342D01*
X114964285Y-112564342D02*
X115011904Y-112659580D01*
X115011904Y-112659580D02*
X115059523Y-112707200D01*
X115059523Y-112707200D02*
X115154761Y-112754819D01*
X115154761Y-112754819D02*
X115392856Y-112754819D01*
X115392856Y-112754819D02*
X115488094Y-112707200D01*
X115488094Y-112707200D02*
X115535713Y-112659580D01*
X121654819Y-120320833D02*
X121178628Y-119987500D01*
X121654819Y-119749405D02*
X120654819Y-119749405D01*
X120654819Y-119749405D02*
X120654819Y-120130357D01*
X120654819Y-120130357D02*
X120702438Y-120225595D01*
X120702438Y-120225595D02*
X120750057Y-120273214D01*
X120750057Y-120273214D02*
X120845295Y-120320833D01*
X120845295Y-120320833D02*
X120988152Y-120320833D01*
X120988152Y-120320833D02*
X121083390Y-120273214D01*
X121083390Y-120273214D02*
X121131009Y-120225595D01*
X121131009Y-120225595D02*
X121178628Y-120130357D01*
X121178628Y-120130357D02*
X121178628Y-119749405D01*
X120654819Y-121177976D02*
X120654819Y-120987500D01*
X120654819Y-120987500D02*
X120702438Y-120892262D01*
X120702438Y-120892262D02*
X120750057Y-120844643D01*
X120750057Y-120844643D02*
X120892914Y-120749405D01*
X120892914Y-120749405D02*
X121083390Y-120701786D01*
X121083390Y-120701786D02*
X121464342Y-120701786D01*
X121464342Y-120701786D02*
X121559580Y-120749405D01*
X121559580Y-120749405D02*
X121607200Y-120797024D01*
X121607200Y-120797024D02*
X121654819Y-120892262D01*
X121654819Y-120892262D02*
X121654819Y-121082738D01*
X121654819Y-121082738D02*
X121607200Y-121177976D01*
X121607200Y-121177976D02*
X121559580Y-121225595D01*
X121559580Y-121225595D02*
X121464342Y-121273214D01*
X121464342Y-121273214D02*
X121226247Y-121273214D01*
X121226247Y-121273214D02*
X121131009Y-121225595D01*
X121131009Y-121225595D02*
X121083390Y-121177976D01*
X121083390Y-121177976D02*
X121035771Y-121082738D01*
X121035771Y-121082738D02*
X121035771Y-120892262D01*
X121035771Y-120892262D02*
X121083390Y-120797024D01*
X121083390Y-120797024D02*
X121131009Y-120749405D01*
X121131009Y-120749405D02*
X121226247Y-120701786D01*
X186054819Y-45557142D02*
X185578628Y-45223809D01*
X186054819Y-44985714D02*
X185054819Y-44985714D01*
X185054819Y-44985714D02*
X185054819Y-45366666D01*
X185054819Y-45366666D02*
X185102438Y-45461904D01*
X185102438Y-45461904D02*
X185150057Y-45509523D01*
X185150057Y-45509523D02*
X185245295Y-45557142D01*
X185245295Y-45557142D02*
X185388152Y-45557142D01*
X185388152Y-45557142D02*
X185483390Y-45509523D01*
X185483390Y-45509523D02*
X185531009Y-45461904D01*
X185531009Y-45461904D02*
X185578628Y-45366666D01*
X185578628Y-45366666D02*
X185578628Y-44985714D01*
X186054819Y-46509523D02*
X186054819Y-45938095D01*
X186054819Y-46223809D02*
X185054819Y-46223809D01*
X185054819Y-46223809D02*
X185197676Y-46128571D01*
X185197676Y-46128571D02*
X185292914Y-46033333D01*
X185292914Y-46033333D02*
X185340533Y-45938095D01*
X185054819Y-47128571D02*
X185054819Y-47223809D01*
X185054819Y-47223809D02*
X185102438Y-47319047D01*
X185102438Y-47319047D02*
X185150057Y-47366666D01*
X185150057Y-47366666D02*
X185245295Y-47414285D01*
X185245295Y-47414285D02*
X185435771Y-47461904D01*
X185435771Y-47461904D02*
X185673866Y-47461904D01*
X185673866Y-47461904D02*
X185864342Y-47414285D01*
X185864342Y-47414285D02*
X185959580Y-47366666D01*
X185959580Y-47366666D02*
X186007200Y-47319047D01*
X186007200Y-47319047D02*
X186054819Y-47223809D01*
X186054819Y-47223809D02*
X186054819Y-47128571D01*
X186054819Y-47128571D02*
X186007200Y-47033333D01*
X186007200Y-47033333D02*
X185959580Y-46985714D01*
X185959580Y-46985714D02*
X185864342Y-46938095D01*
X185864342Y-46938095D02*
X185673866Y-46890476D01*
X185673866Y-46890476D02*
X185435771Y-46890476D01*
X185435771Y-46890476D02*
X185245295Y-46938095D01*
X185245295Y-46938095D02*
X185150057Y-46985714D01*
X185150057Y-46985714D02*
X185102438Y-47033333D01*
X185102438Y-47033333D02*
X185054819Y-47128571D01*
X178666666Y-61609580D02*
X178714285Y-61657200D01*
X178714285Y-61657200D02*
X178857142Y-61704819D01*
X178857142Y-61704819D02*
X178952380Y-61704819D01*
X178952380Y-61704819D02*
X179095237Y-61657200D01*
X179095237Y-61657200D02*
X179190475Y-61561961D01*
X179190475Y-61561961D02*
X179238094Y-61466723D01*
X179238094Y-61466723D02*
X179285713Y-61276247D01*
X179285713Y-61276247D02*
X179285713Y-61133390D01*
X179285713Y-61133390D02*
X179238094Y-60942914D01*
X179238094Y-60942914D02*
X179190475Y-60847676D01*
X179190475Y-60847676D02*
X179095237Y-60752438D01*
X179095237Y-60752438D02*
X178952380Y-60704819D01*
X178952380Y-60704819D02*
X178857142Y-60704819D01*
X178857142Y-60704819D02*
X178714285Y-60752438D01*
X178714285Y-60752438D02*
X178666666Y-60800057D01*
X178190475Y-61704819D02*
X177999999Y-61704819D01*
X177999999Y-61704819D02*
X177904761Y-61657200D01*
X177904761Y-61657200D02*
X177857142Y-61609580D01*
X177857142Y-61609580D02*
X177761904Y-61466723D01*
X177761904Y-61466723D02*
X177714285Y-61276247D01*
X177714285Y-61276247D02*
X177714285Y-60895295D01*
X177714285Y-60895295D02*
X177761904Y-60800057D01*
X177761904Y-60800057D02*
X177809523Y-60752438D01*
X177809523Y-60752438D02*
X177904761Y-60704819D01*
X177904761Y-60704819D02*
X178095237Y-60704819D01*
X178095237Y-60704819D02*
X178190475Y-60752438D01*
X178190475Y-60752438D02*
X178238094Y-60800057D01*
X178238094Y-60800057D02*
X178285713Y-60895295D01*
X178285713Y-60895295D02*
X178285713Y-61133390D01*
X178285713Y-61133390D02*
X178238094Y-61228628D01*
X178238094Y-61228628D02*
X178190475Y-61276247D01*
X178190475Y-61276247D02*
X178095237Y-61323866D01*
X178095237Y-61323866D02*
X177904761Y-61323866D01*
X177904761Y-61323866D02*
X177809523Y-61276247D01*
X177809523Y-61276247D02*
X177761904Y-61228628D01*
X177761904Y-61228628D02*
X177714285Y-61133390D01*
X151059580Y-88957142D02*
X151107200Y-88909523D01*
X151107200Y-88909523D02*
X151154819Y-88766666D01*
X151154819Y-88766666D02*
X151154819Y-88671428D01*
X151154819Y-88671428D02*
X151107200Y-88528571D01*
X151107200Y-88528571D02*
X151011961Y-88433333D01*
X151011961Y-88433333D02*
X150916723Y-88385714D01*
X150916723Y-88385714D02*
X150726247Y-88338095D01*
X150726247Y-88338095D02*
X150583390Y-88338095D01*
X150583390Y-88338095D02*
X150392914Y-88385714D01*
X150392914Y-88385714D02*
X150297676Y-88433333D01*
X150297676Y-88433333D02*
X150202438Y-88528571D01*
X150202438Y-88528571D02*
X150154819Y-88671428D01*
X150154819Y-88671428D02*
X150154819Y-88766666D01*
X150154819Y-88766666D02*
X150202438Y-88909523D01*
X150202438Y-88909523D02*
X150250057Y-88957142D01*
X151154819Y-89909523D02*
X151154819Y-89338095D01*
X151154819Y-89623809D02*
X150154819Y-89623809D01*
X150154819Y-89623809D02*
X150297676Y-89528571D01*
X150297676Y-89528571D02*
X150392914Y-89433333D01*
X150392914Y-89433333D02*
X150440533Y-89338095D01*
X150488152Y-90766666D02*
X151154819Y-90766666D01*
X150107200Y-90528571D02*
X150821485Y-90290476D01*
X150821485Y-90290476D02*
X150821485Y-90909523D01*
X112238094Y-51604819D02*
X112238094Y-50604819D01*
X112238094Y-50604819D02*
X111999999Y-50604819D01*
X111999999Y-50604819D02*
X111857142Y-50652438D01*
X111857142Y-50652438D02*
X111761904Y-50747676D01*
X111761904Y-50747676D02*
X111714285Y-50842914D01*
X111714285Y-50842914D02*
X111666666Y-51033390D01*
X111666666Y-51033390D02*
X111666666Y-51176247D01*
X111666666Y-51176247D02*
X111714285Y-51366723D01*
X111714285Y-51366723D02*
X111761904Y-51461961D01*
X111761904Y-51461961D02*
X111857142Y-51557200D01*
X111857142Y-51557200D02*
X111999999Y-51604819D01*
X111999999Y-51604819D02*
X112238094Y-51604819D01*
X111190475Y-51604819D02*
X110999999Y-51604819D01*
X110999999Y-51604819D02*
X110904761Y-51557200D01*
X110904761Y-51557200D02*
X110857142Y-51509580D01*
X110857142Y-51509580D02*
X110761904Y-51366723D01*
X110761904Y-51366723D02*
X110714285Y-51176247D01*
X110714285Y-51176247D02*
X110714285Y-50795295D01*
X110714285Y-50795295D02*
X110761904Y-50700057D01*
X110761904Y-50700057D02*
X110809523Y-50652438D01*
X110809523Y-50652438D02*
X110904761Y-50604819D01*
X110904761Y-50604819D02*
X111095237Y-50604819D01*
X111095237Y-50604819D02*
X111190475Y-50652438D01*
X111190475Y-50652438D02*
X111238094Y-50700057D01*
X111238094Y-50700057D02*
X111285713Y-50795295D01*
X111285713Y-50795295D02*
X111285713Y-51033390D01*
X111285713Y-51033390D02*
X111238094Y-51128628D01*
X111238094Y-51128628D02*
X111190475Y-51176247D01*
X111190475Y-51176247D02*
X111095237Y-51223866D01*
X111095237Y-51223866D02*
X110904761Y-51223866D01*
X110904761Y-51223866D02*
X110809523Y-51176247D01*
X110809523Y-51176247D02*
X110761904Y-51128628D01*
X110761904Y-51128628D02*
X110714285Y-51033390D01*
X165705357Y-64259580D02*
X165752976Y-64307200D01*
X165752976Y-64307200D02*
X165895833Y-64354819D01*
X165895833Y-64354819D02*
X165991071Y-64354819D01*
X165991071Y-64354819D02*
X166133928Y-64307200D01*
X166133928Y-64307200D02*
X166229166Y-64211961D01*
X166229166Y-64211961D02*
X166276785Y-64116723D01*
X166276785Y-64116723D02*
X166324404Y-63926247D01*
X166324404Y-63926247D02*
X166324404Y-63783390D01*
X166324404Y-63783390D02*
X166276785Y-63592914D01*
X166276785Y-63592914D02*
X166229166Y-63497676D01*
X166229166Y-63497676D02*
X166133928Y-63402438D01*
X166133928Y-63402438D02*
X165991071Y-63354819D01*
X165991071Y-63354819D02*
X165895833Y-63354819D01*
X165895833Y-63354819D02*
X165752976Y-63402438D01*
X165752976Y-63402438D02*
X165705357Y-63450057D01*
X164752976Y-64354819D02*
X165324404Y-64354819D01*
X165038690Y-64354819D02*
X165038690Y-63354819D01*
X165038690Y-63354819D02*
X165133928Y-63497676D01*
X165133928Y-63497676D02*
X165229166Y-63592914D01*
X165229166Y-63592914D02*
X165324404Y-63640533D01*
X164276785Y-64354819D02*
X164086309Y-64354819D01*
X164086309Y-64354819D02*
X163991071Y-64307200D01*
X163991071Y-64307200D02*
X163943452Y-64259580D01*
X163943452Y-64259580D02*
X163848214Y-64116723D01*
X163848214Y-64116723D02*
X163800595Y-63926247D01*
X163800595Y-63926247D02*
X163800595Y-63545295D01*
X163800595Y-63545295D02*
X163848214Y-63450057D01*
X163848214Y-63450057D02*
X163895833Y-63402438D01*
X163895833Y-63402438D02*
X163991071Y-63354819D01*
X163991071Y-63354819D02*
X164181547Y-63354819D01*
X164181547Y-63354819D02*
X164276785Y-63402438D01*
X164276785Y-63402438D02*
X164324404Y-63450057D01*
X164324404Y-63450057D02*
X164372023Y-63545295D01*
X164372023Y-63545295D02*
X164372023Y-63783390D01*
X164372023Y-63783390D02*
X164324404Y-63878628D01*
X164324404Y-63878628D02*
X164276785Y-63926247D01*
X164276785Y-63926247D02*
X164181547Y-63973866D01*
X164181547Y-63973866D02*
X163991071Y-63973866D01*
X163991071Y-63973866D02*
X163895833Y-63926247D01*
X163895833Y-63926247D02*
X163848214Y-63878628D01*
X163848214Y-63878628D02*
X163800595Y-63783390D01*
X111238094Y-98604819D02*
X111238094Y-97604819D01*
X111238094Y-97604819D02*
X110999999Y-97604819D01*
X110999999Y-97604819D02*
X110857142Y-97652438D01*
X110857142Y-97652438D02*
X110761904Y-97747676D01*
X110761904Y-97747676D02*
X110714285Y-97842914D01*
X110714285Y-97842914D02*
X110666666Y-98033390D01*
X110666666Y-98033390D02*
X110666666Y-98176247D01*
X110666666Y-98176247D02*
X110714285Y-98366723D01*
X110714285Y-98366723D02*
X110761904Y-98461961D01*
X110761904Y-98461961D02*
X110857142Y-98557200D01*
X110857142Y-98557200D02*
X110999999Y-98604819D01*
X110999999Y-98604819D02*
X111238094Y-98604819D01*
X110285713Y-97700057D02*
X110238094Y-97652438D01*
X110238094Y-97652438D02*
X110142856Y-97604819D01*
X110142856Y-97604819D02*
X109904761Y-97604819D01*
X109904761Y-97604819D02*
X109809523Y-97652438D01*
X109809523Y-97652438D02*
X109761904Y-97700057D01*
X109761904Y-97700057D02*
X109714285Y-97795295D01*
X109714285Y-97795295D02*
X109714285Y-97890533D01*
X109714285Y-97890533D02*
X109761904Y-98033390D01*
X109761904Y-98033390D02*
X110333332Y-98604819D01*
X110333332Y-98604819D02*
X109714285Y-98604819D01*
X181054819Y-45557142D02*
X180578628Y-45223809D01*
X181054819Y-44985714D02*
X180054819Y-44985714D01*
X180054819Y-44985714D02*
X180054819Y-45366666D01*
X180054819Y-45366666D02*
X180102438Y-45461904D01*
X180102438Y-45461904D02*
X180150057Y-45509523D01*
X180150057Y-45509523D02*
X180245295Y-45557142D01*
X180245295Y-45557142D02*
X180388152Y-45557142D01*
X180388152Y-45557142D02*
X180483390Y-45509523D01*
X180483390Y-45509523D02*
X180531009Y-45461904D01*
X180531009Y-45461904D02*
X180578628Y-45366666D01*
X180578628Y-45366666D02*
X180578628Y-44985714D01*
X181054819Y-46509523D02*
X181054819Y-45938095D01*
X181054819Y-46223809D02*
X180054819Y-46223809D01*
X180054819Y-46223809D02*
X180197676Y-46128571D01*
X180197676Y-46128571D02*
X180292914Y-46033333D01*
X180292914Y-46033333D02*
X180340533Y-45938095D01*
X181054819Y-47461904D02*
X181054819Y-46890476D01*
X181054819Y-47176190D02*
X180054819Y-47176190D01*
X180054819Y-47176190D02*
X180197676Y-47080952D01*
X180197676Y-47080952D02*
X180292914Y-46985714D01*
X180292914Y-46985714D02*
X180340533Y-46890476D01*
X165605357Y-52359580D02*
X165652976Y-52407200D01*
X165652976Y-52407200D02*
X165795833Y-52454819D01*
X165795833Y-52454819D02*
X165891071Y-52454819D01*
X165891071Y-52454819D02*
X166033928Y-52407200D01*
X166033928Y-52407200D02*
X166129166Y-52311961D01*
X166129166Y-52311961D02*
X166176785Y-52216723D01*
X166176785Y-52216723D02*
X166224404Y-52026247D01*
X166224404Y-52026247D02*
X166224404Y-51883390D01*
X166224404Y-51883390D02*
X166176785Y-51692914D01*
X166176785Y-51692914D02*
X166129166Y-51597676D01*
X166129166Y-51597676D02*
X166033928Y-51502438D01*
X166033928Y-51502438D02*
X165891071Y-51454819D01*
X165891071Y-51454819D02*
X165795833Y-51454819D01*
X165795833Y-51454819D02*
X165652976Y-51502438D01*
X165652976Y-51502438D02*
X165605357Y-51550057D01*
X165224404Y-51550057D02*
X165176785Y-51502438D01*
X165176785Y-51502438D02*
X165081547Y-51454819D01*
X165081547Y-51454819D02*
X164843452Y-51454819D01*
X164843452Y-51454819D02*
X164748214Y-51502438D01*
X164748214Y-51502438D02*
X164700595Y-51550057D01*
X164700595Y-51550057D02*
X164652976Y-51645295D01*
X164652976Y-51645295D02*
X164652976Y-51740533D01*
X164652976Y-51740533D02*
X164700595Y-51883390D01*
X164700595Y-51883390D02*
X165272023Y-52454819D01*
X165272023Y-52454819D02*
X164652976Y-52454819D01*
X164033928Y-51454819D02*
X163938690Y-51454819D01*
X163938690Y-51454819D02*
X163843452Y-51502438D01*
X163843452Y-51502438D02*
X163795833Y-51550057D01*
X163795833Y-51550057D02*
X163748214Y-51645295D01*
X163748214Y-51645295D02*
X163700595Y-51835771D01*
X163700595Y-51835771D02*
X163700595Y-52073866D01*
X163700595Y-52073866D02*
X163748214Y-52264342D01*
X163748214Y-52264342D02*
X163795833Y-52359580D01*
X163795833Y-52359580D02*
X163843452Y-52407200D01*
X163843452Y-52407200D02*
X163938690Y-52454819D01*
X163938690Y-52454819D02*
X164033928Y-52454819D01*
X164033928Y-52454819D02*
X164129166Y-52407200D01*
X164129166Y-52407200D02*
X164176785Y-52359580D01*
X164176785Y-52359580D02*
X164224404Y-52264342D01*
X164224404Y-52264342D02*
X164272023Y-52073866D01*
X164272023Y-52073866D02*
X164272023Y-51835771D01*
X164272023Y-51835771D02*
X164224404Y-51645295D01*
X164224404Y-51645295D02*
X164176785Y-51550057D01*
X164176785Y-51550057D02*
X164129166Y-51502438D01*
X164129166Y-51502438D02*
X164033928Y-51454819D01*
X155159580Y-88957142D02*
X155207200Y-88909523D01*
X155207200Y-88909523D02*
X155254819Y-88766666D01*
X155254819Y-88766666D02*
X155254819Y-88671428D01*
X155254819Y-88671428D02*
X155207200Y-88528571D01*
X155207200Y-88528571D02*
X155111961Y-88433333D01*
X155111961Y-88433333D02*
X155016723Y-88385714D01*
X155016723Y-88385714D02*
X154826247Y-88338095D01*
X154826247Y-88338095D02*
X154683390Y-88338095D01*
X154683390Y-88338095D02*
X154492914Y-88385714D01*
X154492914Y-88385714D02*
X154397676Y-88433333D01*
X154397676Y-88433333D02*
X154302438Y-88528571D01*
X154302438Y-88528571D02*
X154254819Y-88671428D01*
X154254819Y-88671428D02*
X154254819Y-88766666D01*
X154254819Y-88766666D02*
X154302438Y-88909523D01*
X154302438Y-88909523D02*
X154350057Y-88957142D01*
X155254819Y-89909523D02*
X155254819Y-89338095D01*
X155254819Y-89623809D02*
X154254819Y-89623809D01*
X154254819Y-89623809D02*
X154397676Y-89528571D01*
X154397676Y-89528571D02*
X154492914Y-89433333D01*
X154492914Y-89433333D02*
X154540533Y-89338095D01*
X154254819Y-90528571D02*
X154254819Y-90623809D01*
X154254819Y-90623809D02*
X154302438Y-90719047D01*
X154302438Y-90719047D02*
X154350057Y-90766666D01*
X154350057Y-90766666D02*
X154445295Y-90814285D01*
X154445295Y-90814285D02*
X154635771Y-90861904D01*
X154635771Y-90861904D02*
X154873866Y-90861904D01*
X154873866Y-90861904D02*
X155064342Y-90814285D01*
X155064342Y-90814285D02*
X155159580Y-90766666D01*
X155159580Y-90766666D02*
X155207200Y-90719047D01*
X155207200Y-90719047D02*
X155254819Y-90623809D01*
X155254819Y-90623809D02*
X155254819Y-90528571D01*
X155254819Y-90528571D02*
X155207200Y-90433333D01*
X155207200Y-90433333D02*
X155159580Y-90385714D01*
X155159580Y-90385714D02*
X155064342Y-90338095D01*
X155064342Y-90338095D02*
X154873866Y-90290476D01*
X154873866Y-90290476D02*
X154635771Y-90290476D01*
X154635771Y-90290476D02*
X154445295Y-90338095D01*
X154445295Y-90338095D02*
X154350057Y-90385714D01*
X154350057Y-90385714D02*
X154302438Y-90433333D01*
X154302438Y-90433333D02*
X154254819Y-90528571D01*
X115642857Y-56054819D02*
X115976190Y-55578628D01*
X116214285Y-56054819D02*
X116214285Y-55054819D01*
X116214285Y-55054819D02*
X115833333Y-55054819D01*
X115833333Y-55054819D02*
X115738095Y-55102438D01*
X115738095Y-55102438D02*
X115690476Y-55150057D01*
X115690476Y-55150057D02*
X115642857Y-55245295D01*
X115642857Y-55245295D02*
X115642857Y-55388152D01*
X115642857Y-55388152D02*
X115690476Y-55483390D01*
X115690476Y-55483390D02*
X115738095Y-55531009D01*
X115738095Y-55531009D02*
X115833333Y-55578628D01*
X115833333Y-55578628D02*
X116214285Y-55578628D01*
X115261904Y-55150057D02*
X115214285Y-55102438D01*
X115214285Y-55102438D02*
X115119047Y-55054819D01*
X115119047Y-55054819D02*
X114880952Y-55054819D01*
X114880952Y-55054819D02*
X114785714Y-55102438D01*
X114785714Y-55102438D02*
X114738095Y-55150057D01*
X114738095Y-55150057D02*
X114690476Y-55245295D01*
X114690476Y-55245295D02*
X114690476Y-55340533D01*
X114690476Y-55340533D02*
X114738095Y-55483390D01*
X114738095Y-55483390D02*
X115309523Y-56054819D01*
X115309523Y-56054819D02*
X114690476Y-56054819D01*
X114119047Y-55483390D02*
X114214285Y-55435771D01*
X114214285Y-55435771D02*
X114261904Y-55388152D01*
X114261904Y-55388152D02*
X114309523Y-55292914D01*
X114309523Y-55292914D02*
X114309523Y-55245295D01*
X114309523Y-55245295D02*
X114261904Y-55150057D01*
X114261904Y-55150057D02*
X114214285Y-55102438D01*
X114214285Y-55102438D02*
X114119047Y-55054819D01*
X114119047Y-55054819D02*
X113928571Y-55054819D01*
X113928571Y-55054819D02*
X113833333Y-55102438D01*
X113833333Y-55102438D02*
X113785714Y-55150057D01*
X113785714Y-55150057D02*
X113738095Y-55245295D01*
X113738095Y-55245295D02*
X113738095Y-55292914D01*
X113738095Y-55292914D02*
X113785714Y-55388152D01*
X113785714Y-55388152D02*
X113833333Y-55435771D01*
X113833333Y-55435771D02*
X113928571Y-55483390D01*
X113928571Y-55483390D02*
X114119047Y-55483390D01*
X114119047Y-55483390D02*
X114214285Y-55531009D01*
X114214285Y-55531009D02*
X114261904Y-55578628D01*
X114261904Y-55578628D02*
X114309523Y-55673866D01*
X114309523Y-55673866D02*
X114309523Y-55864342D01*
X114309523Y-55864342D02*
X114261904Y-55959580D01*
X114261904Y-55959580D02*
X114214285Y-56007200D01*
X114214285Y-56007200D02*
X114119047Y-56054819D01*
X114119047Y-56054819D02*
X113928571Y-56054819D01*
X113928571Y-56054819D02*
X113833333Y-56007200D01*
X113833333Y-56007200D02*
X113785714Y-55959580D01*
X113785714Y-55959580D02*
X113738095Y-55864342D01*
X113738095Y-55864342D02*
X113738095Y-55673866D01*
X113738095Y-55673866D02*
X113785714Y-55578628D01*
X113785714Y-55578628D02*
X113833333Y-55531009D01*
X113833333Y-55531009D02*
X113928571Y-55483390D01*
D13*
%TO.C,R26*%
X111727064Y-60715000D02*
X111272936Y-60715000D01*
X111727064Y-62185000D02*
X111272936Y-62185000D01*
%TO.C,R3*%
X174665000Y-66027064D02*
X174665000Y-65572936D01*
X176135000Y-66027064D02*
X176135000Y-65572936D01*
%TO.C,R12*%
X175165000Y-46314564D02*
X175165000Y-45860436D01*
X176635000Y-46314564D02*
X176635000Y-45860436D01*
%TO.C,R1*%
X145965000Y-98685436D02*
X145965000Y-99139564D01*
X147435000Y-98685436D02*
X147435000Y-99139564D01*
%TO.C,R27*%
X110965000Y-58235436D02*
X110965000Y-58689564D01*
X112435000Y-58235436D02*
X112435000Y-58689564D01*
%TO.C,Y1*%
X170400000Y-63900000D02*
X173700000Y-63900000D01*
X173700000Y-63900000D02*
X173700000Y-67900000D01*
%TO.C,D7*%
X118110000Y-50650000D02*
X115450000Y-50650000D01*
X118110000Y-50650000D02*
X118110000Y-52350000D01*
X118110000Y-52350000D02*
X115450000Y-52350000D01*
%TO.C,R2*%
X148565000Y-99139564D02*
X148565000Y-98685436D01*
X150035000Y-99139564D02*
X150035000Y-98685436D01*
%TO.C,R15*%
X110139564Y-86040000D02*
X109685436Y-86040000D01*
X110139564Y-87510000D02*
X109685436Y-87510000D01*
%TO.C,C11*%
X156565000Y-93138748D02*
X156565000Y-93661252D01*
X158035000Y-93138748D02*
X158035000Y-93661252D01*
D14*
%TO.C,REF\u002A\u002A*%
X110303684Y-130652216D02*
X110344650Y-130665005D01*
X110395099Y-130686261D01*
X110419526Y-130697684D01*
X110437155Y-130699749D01*
X110441053Y-130683916D01*
X110441057Y-130683468D01*
X110449312Y-130668351D01*
X110477781Y-130660603D01*
X110532961Y-130658421D01*
X110624869Y-130658421D01*
X110624869Y-131460526D01*
X110441053Y-131460526D01*
X110441053Y-130907483D01*
X110395358Y-130865134D01*
X110381082Y-130853098D01*
X110338558Y-130832534D01*
X110286192Y-130831710D01*
X110214889Y-130849856D01*
X110190852Y-130851005D01*
X110162656Y-130833402D01*
X110125126Y-130791562D01*
X110106921Y-130768419D01*
X110085391Y-130735742D01*
X110082073Y-130714942D01*
X110094128Y-130697395D01*
X110131135Y-130675206D01*
X110188612Y-130657645D01*
X110250972Y-130648938D01*
X110303684Y-130652216D01*
G36*
X110303684Y-130652216D02*
G01*
X110344650Y-130665005D01*
X110395099Y-130686261D01*
X110419526Y-130697684D01*
X110437155Y-130699749D01*
X110441053Y-130683916D01*
X110441057Y-130683468D01*
X110449312Y-130668351D01*
X110477781Y-130660603D01*
X110532961Y-130658421D01*
X110624869Y-130658421D01*
X110624869Y-131460526D01*
X110441053Y-131460526D01*
X110441053Y-130907483D01*
X110395358Y-130865134D01*
X110381082Y-130853098D01*
X110338558Y-130832534D01*
X110286192Y-130831710D01*
X110214889Y-130849856D01*
X110190852Y-130851005D01*
X110162656Y-130833402D01*
X110125126Y-130791562D01*
X110106921Y-130768419D01*
X110085391Y-130735742D01*
X110082073Y-130714942D01*
X110094128Y-130697395D01*
X110131135Y-130675206D01*
X110188612Y-130657645D01*
X110250972Y-130648938D01*
X110303684Y-130652216D01*
G37*
X110547063Y-131922716D02*
X110597550Y-131946344D01*
X110641579Y-131980978D01*
X110641579Y-131946344D01*
X110642676Y-131933194D01*
X110652885Y-131919252D01*
X110680493Y-131913094D01*
X110733487Y-131911710D01*
X110825395Y-131911710D01*
X110825395Y-132730526D01*
X110641579Y-132730526D01*
X110641579Y-132463944D01*
X110641557Y-132448640D01*
X110639989Y-132341060D01*
X110636141Y-132253427D01*
X110630287Y-132190224D01*
X110622701Y-132155929D01*
X110615736Y-132142982D01*
X110572860Y-132102378D01*
X110514458Y-132084404D01*
X110450686Y-132092789D01*
X110435044Y-132098472D01*
X110401721Y-132108517D01*
X110378947Y-132105398D01*
X110356031Y-132084979D01*
X110322283Y-132043127D01*
X110267547Y-131974017D01*
X110306020Y-131942864D01*
X110342592Y-131924112D01*
X110406833Y-131911447D01*
X110479240Y-131911033D01*
X110547063Y-131922716D01*
G36*
X110547063Y-131922716D02*
G01*
X110597550Y-131946344D01*
X110641579Y-131980978D01*
X110641579Y-131946344D01*
X110642676Y-131933194D01*
X110652885Y-131919252D01*
X110680493Y-131913094D01*
X110733487Y-131911710D01*
X110825395Y-131911710D01*
X110825395Y-132730526D01*
X110641579Y-132730526D01*
X110641579Y-132463944D01*
X110641557Y-132448640D01*
X110639989Y-132341060D01*
X110636141Y-132253427D01*
X110630287Y-132190224D01*
X110622701Y-132155929D01*
X110615736Y-132142982D01*
X110572860Y-132102378D01*
X110514458Y-132084404D01*
X110450686Y-132092789D01*
X110435044Y-132098472D01*
X110401721Y-132108517D01*
X110378947Y-132105398D01*
X110356031Y-132084979D01*
X110322283Y-132043127D01*
X110267547Y-131974017D01*
X110306020Y-131942864D01*
X110342592Y-131924112D01*
X110406833Y-131911447D01*
X110479240Y-131911033D01*
X110547063Y-131922716D01*
G37*
X114033816Y-132730526D02*
X113866711Y-132730526D01*
X113866711Y-132472601D01*
X113866526Y-132412605D01*
X113864626Y-132313237D01*
X113859816Y-132239673D01*
X113851052Y-132186827D01*
X113837290Y-132149614D01*
X113817487Y-132122949D01*
X113790600Y-132101746D01*
X113761248Y-132085947D01*
X113726491Y-132081467D01*
X113677058Y-132091429D01*
X113661173Y-132095576D01*
X113621520Y-132101818D01*
X113593167Y-132092875D01*
X113560306Y-132065195D01*
X113554070Y-132059175D01*
X113519594Y-132021937D01*
X113497361Y-131991660D01*
X113494311Y-131984366D01*
X113500354Y-131957432D01*
X113530998Y-131935898D01*
X113579363Y-131920786D01*
X113638566Y-131913114D01*
X113701728Y-131913904D01*
X113761967Y-131924175D01*
X113812402Y-131944948D01*
X113828388Y-131954648D01*
X113855302Y-131968845D01*
X113865264Y-131965594D01*
X113866711Y-131944886D01*
X113867050Y-131937451D01*
X113875112Y-131920982D01*
X113900119Y-131913486D01*
X113950264Y-131911710D01*
X114033816Y-131911710D01*
X114033816Y-132730526D01*
G36*
X114033816Y-132730526D02*
G01*
X113866711Y-132730526D01*
X113866711Y-132472601D01*
X113866526Y-132412605D01*
X113864626Y-132313237D01*
X113859816Y-132239673D01*
X113851052Y-132186827D01*
X113837290Y-132149614D01*
X113817487Y-132122949D01*
X113790600Y-132101746D01*
X113761248Y-132085947D01*
X113726491Y-132081467D01*
X113677058Y-132091429D01*
X113661173Y-132095576D01*
X113621520Y-132101818D01*
X113593167Y-132092875D01*
X113560306Y-132065195D01*
X113554070Y-132059175D01*
X113519594Y-132021937D01*
X113497361Y-131991660D01*
X113494311Y-131984366D01*
X113500354Y-131957432D01*
X113530998Y-131935898D01*
X113579363Y-131920786D01*
X113638566Y-131913114D01*
X113701728Y-131913904D01*
X113761967Y-131924175D01*
X113812402Y-131944948D01*
X113828388Y-131954648D01*
X113855302Y-131968845D01*
X113865264Y-131965594D01*
X113866711Y-131944886D01*
X113867050Y-131937451D01*
X113875112Y-131920982D01*
X113900119Y-131913486D01*
X113950264Y-131911710D01*
X114033816Y-131911710D01*
X114033816Y-132730526D01*
G37*
X110959079Y-130918533D02*
X110960489Y-131035550D01*
X110966007Y-131130058D01*
X110977185Y-131198751D01*
X110995572Y-131245478D01*
X111022717Y-131274089D01*
X111060168Y-131288432D01*
X111109474Y-131292358D01*
X111156552Y-131288854D01*
X111194574Y-131275139D01*
X111222210Y-131247355D01*
X111241009Y-131201651D01*
X111252519Y-131134179D01*
X111258290Y-131041089D01*
X111259869Y-130918533D01*
X111259869Y-130658421D01*
X111426974Y-130658421D01*
X111426974Y-130972004D01*
X111426688Y-131055705D01*
X111424459Y-131163943D01*
X111418869Y-131246489D01*
X111408561Y-131308068D01*
X111392183Y-131353405D01*
X111368379Y-131387226D01*
X111335796Y-131414257D01*
X111293079Y-131439221D01*
X111203377Y-131470825D01*
X111109761Y-131472887D01*
X111021496Y-131443783D01*
X110982986Y-131424917D01*
X110963880Y-131422097D01*
X110959079Y-131435428D01*
X110951109Y-131450396D01*
X110922578Y-131458281D01*
X110867172Y-131460526D01*
X110775264Y-131460526D01*
X110775264Y-130658421D01*
X110959079Y-130658421D01*
X110959079Y-130918533D01*
G36*
X110959079Y-130918533D02*
G01*
X110960489Y-131035550D01*
X110966007Y-131130058D01*
X110977185Y-131198751D01*
X110995572Y-131245478D01*
X111022717Y-131274089D01*
X111060168Y-131288432D01*
X111109474Y-131292358D01*
X111156552Y-131288854D01*
X111194574Y-131275139D01*
X111222210Y-131247355D01*
X111241009Y-131201651D01*
X111252519Y-131134179D01*
X111258290Y-131041089D01*
X111259869Y-130918533D01*
X111259869Y-130658421D01*
X111426974Y-130658421D01*
X111426974Y-130972004D01*
X111426688Y-131055705D01*
X111424459Y-131163943D01*
X111418869Y-131246489D01*
X111408561Y-131308068D01*
X111392183Y-131353405D01*
X111368379Y-131387226D01*
X111335796Y-131414257D01*
X111293079Y-131439221D01*
X111203377Y-131470825D01*
X111109761Y-131472887D01*
X111021496Y-131443783D01*
X110982986Y-131424917D01*
X110963880Y-131422097D01*
X110959079Y-131435428D01*
X110951109Y-131450396D01*
X110922578Y-131458281D01*
X110867172Y-131460526D01*
X110775264Y-131460526D01*
X110775264Y-130658421D01*
X110959079Y-130658421D01*
X110959079Y-130918533D01*
G37*
X113752937Y-130656840D02*
X113829112Y-130680773D01*
X113862699Y-130697040D01*
X113879592Y-130698720D01*
X113883422Y-130683916D01*
X113883425Y-130683468D01*
X113891680Y-130668351D01*
X113920149Y-130660603D01*
X113975329Y-130658421D01*
X114067237Y-130658421D01*
X114067237Y-131460526D01*
X113883422Y-131460526D01*
X113883422Y-131184043D01*
X113883296Y-131090680D01*
X113882436Y-131013988D01*
X113880137Y-130960322D01*
X113875690Y-130924212D01*
X113868390Y-130900191D01*
X113857530Y-130882791D01*
X113842405Y-130866543D01*
X113821801Y-130849261D01*
X113762555Y-130826042D01*
X113700366Y-130832857D01*
X113643398Y-130869581D01*
X113627115Y-130886673D01*
X113615426Y-130903971D01*
X113607586Y-130926990D01*
X113602827Y-130961271D01*
X113600379Y-131012353D01*
X113599473Y-131085777D01*
X113599343Y-131187081D01*
X113599343Y-131460526D01*
X113415527Y-131460526D01*
X113415894Y-131163914D01*
X113415919Y-131150702D01*
X113417513Y-131024535D01*
X113422408Y-130926528D01*
X113431864Y-130851915D01*
X113447139Y-130795931D01*
X113469490Y-130753809D01*
X113500175Y-130720784D01*
X113540454Y-130692090D01*
X113582043Y-130672226D01*
X113665800Y-130654178D01*
X113752937Y-130656840D01*
G36*
X113752937Y-130656840D02*
G01*
X113829112Y-130680773D01*
X113862699Y-130697040D01*
X113879592Y-130698720D01*
X113883422Y-130683916D01*
X113883425Y-130683468D01*
X113891680Y-130668351D01*
X113920149Y-130660603D01*
X113975329Y-130658421D01*
X114067237Y-130658421D01*
X114067237Y-131460526D01*
X113883422Y-131460526D01*
X113883422Y-131184043D01*
X113883296Y-131090680D01*
X113882436Y-131013988D01*
X113880137Y-130960322D01*
X113875690Y-130924212D01*
X113868390Y-130900191D01*
X113857530Y-130882791D01*
X113842405Y-130866543D01*
X113821801Y-130849261D01*
X113762555Y-130826042D01*
X113700366Y-130832857D01*
X113643398Y-130869581D01*
X113627115Y-130886673D01*
X113615426Y-130903971D01*
X113607586Y-130926990D01*
X113602827Y-130961271D01*
X113600379Y-131012353D01*
X113599473Y-131085777D01*
X113599343Y-131187081D01*
X113599343Y-131460526D01*
X113415527Y-131460526D01*
X113415894Y-131163914D01*
X113415919Y-131150702D01*
X113417513Y-131024535D01*
X113422408Y-130926528D01*
X113431864Y-130851915D01*
X113447139Y-130795931D01*
X113469490Y-130753809D01*
X113500175Y-130720784D01*
X113540454Y-130692090D01*
X113582043Y-130672226D01*
X113665800Y-130654178D01*
X113752937Y-130656840D01*
G37*
X109833610Y-130662247D02*
X109924791Y-130697771D01*
X110001907Y-130756413D01*
X110058864Y-130836956D01*
X110062710Y-130845169D01*
X110087130Y-130925267D01*
X110099330Y-131020948D01*
X110099234Y-131120569D01*
X110086764Y-131212488D01*
X110061843Y-131285066D01*
X110031073Y-131335650D01*
X109963344Y-131407310D01*
X109878657Y-131452862D01*
X109806202Y-131471282D01*
X109695875Y-131473293D01*
X109590302Y-131445513D01*
X109496682Y-131389142D01*
X109436088Y-131339196D01*
X109490664Y-131282887D01*
X109525144Y-131249530D01*
X109556332Y-131230958D01*
X109585250Y-131235047D01*
X109622237Y-131260000D01*
X109636985Y-131269768D01*
X109699291Y-131289762D01*
X109770903Y-131289749D01*
X109837950Y-131269143D01*
X109863196Y-131252595D01*
X109900228Y-131203730D01*
X109918792Y-131131958D01*
X109919987Y-131034136D01*
X109919983Y-131034081D01*
X109906171Y-130946562D01*
X109875744Y-130885881D01*
X109825676Y-130848345D01*
X109752941Y-130830261D01*
X109707137Y-130827829D01*
X109667116Y-130837789D01*
X109626070Y-130866642D01*
X109572954Y-130911336D01*
X109505688Y-130857279D01*
X109481113Y-130836570D01*
X109450416Y-130806899D01*
X109438422Y-130789413D01*
X109442669Y-130781533D01*
X109467135Y-130757340D01*
X109506110Y-130726571D01*
X109536605Y-130706549D01*
X109633424Y-130665419D01*
X109734457Y-130651057D01*
X109833610Y-130662247D01*
G36*
X109833610Y-130662247D02*
G01*
X109924791Y-130697771D01*
X110001907Y-130756413D01*
X110058864Y-130836956D01*
X110062710Y-130845169D01*
X110087130Y-130925267D01*
X110099330Y-131020948D01*
X110099234Y-131120569D01*
X110086764Y-131212488D01*
X110061843Y-131285066D01*
X110031073Y-131335650D01*
X109963344Y-131407310D01*
X109878657Y-131452862D01*
X109806202Y-131471282D01*
X109695875Y-131473293D01*
X109590302Y-131445513D01*
X109496682Y-131389142D01*
X109436088Y-131339196D01*
X109490664Y-131282887D01*
X109525144Y-131249530D01*
X109556332Y-131230958D01*
X109585250Y-131235047D01*
X109622237Y-131260000D01*
X109636985Y-131269768D01*
X109699291Y-131289762D01*
X109770903Y-131289749D01*
X109837950Y-131269143D01*
X109863196Y-131252595D01*
X109900228Y-131203730D01*
X109918792Y-131131958D01*
X109919987Y-131034136D01*
X109919983Y-131034081D01*
X109906171Y-130946562D01*
X109875744Y-130885881D01*
X109825676Y-130848345D01*
X109752941Y-130830261D01*
X109707137Y-130827829D01*
X109667116Y-130837789D01*
X109626070Y-130866642D01*
X109572954Y-130911336D01*
X109505688Y-130857279D01*
X109481113Y-130836570D01*
X109450416Y-130806899D01*
X109438422Y-130789413D01*
X109442669Y-130781533D01*
X109467135Y-130757340D01*
X109506110Y-130726571D01*
X109536605Y-130706549D01*
X109633424Y-130665419D01*
X109734457Y-130651057D01*
X109833610Y-130662247D01*
G37*
X112224982Y-131117116D02*
X112220320Y-131170001D01*
X112199714Y-131270965D01*
X112162857Y-131348007D01*
X112106761Y-131406201D01*
X112028434Y-131450617D01*
X111998023Y-131461188D01*
X111919263Y-131474377D01*
X111836384Y-131474018D01*
X111766450Y-131459531D01*
X111765076Y-131459005D01*
X111708718Y-131425852D01*
X111651780Y-131374530D01*
X111604535Y-131315840D01*
X111577255Y-131260584D01*
X111569169Y-131220193D01*
X111562246Y-131144569D01*
X111561085Y-131077161D01*
X111729442Y-131077161D01*
X111739507Y-131158014D01*
X111763151Y-131224451D01*
X111798973Y-131267862D01*
X111812551Y-131275316D01*
X111864327Y-131288864D01*
X111924213Y-131291651D01*
X111974596Y-131282237D01*
X111994260Y-131268736D01*
X112021862Y-131221523D01*
X112039230Y-131147630D01*
X112045264Y-131050663D01*
X112045167Y-131022750D01*
X112043071Y-130966190D01*
X112036100Y-130929294D01*
X112021475Y-130902031D01*
X111996418Y-130874372D01*
X111948736Y-130840849D01*
X111886663Y-130827143D01*
X111826689Y-130840197D01*
X111776891Y-130877951D01*
X111745345Y-130938349D01*
X111734358Y-130990502D01*
X111729442Y-131077161D01*
X111561085Y-131077161D01*
X111560763Y-131058442D01*
X111564478Y-130972719D01*
X111573145Y-130898305D01*
X111586522Y-130846106D01*
X111617679Y-130787006D01*
X111683808Y-130714340D01*
X111768331Y-130668310D01*
X111868734Y-130650090D01*
X111982505Y-130660858D01*
X112001435Y-130665445D01*
X112089595Y-130705000D01*
X112156028Y-130769941D01*
X112200735Y-130860271D01*
X112223718Y-130975994D01*
X112224387Y-131050663D01*
X112224982Y-131117116D01*
G36*
X112224982Y-131117116D02*
G01*
X112220320Y-131170001D01*
X112199714Y-131270965D01*
X112162857Y-131348007D01*
X112106761Y-131406201D01*
X112028434Y-131450617D01*
X111998023Y-131461188D01*
X111919263Y-131474377D01*
X111836384Y-131474018D01*
X111766450Y-131459531D01*
X111765076Y-131459005D01*
X111708718Y-131425852D01*
X111651780Y-131374530D01*
X111604535Y-131315840D01*
X111577255Y-131260584D01*
X111569169Y-131220193D01*
X111562246Y-131144569D01*
X111561085Y-131077161D01*
X111729442Y-131077161D01*
X111739507Y-131158014D01*
X111763151Y-131224451D01*
X111798973Y-131267862D01*
X111812551Y-131275316D01*
X111864327Y-131288864D01*
X111924213Y-131291651D01*
X111974596Y-131282237D01*
X111994260Y-131268736D01*
X112021862Y-131221523D01*
X112039230Y-131147630D01*
X112045264Y-131050663D01*
X112045167Y-131022750D01*
X112043071Y-130966190D01*
X112036100Y-130929294D01*
X112021475Y-130902031D01*
X111996418Y-130874372D01*
X111948736Y-130840849D01*
X111886663Y-130827143D01*
X111826689Y-130840197D01*
X111776891Y-130877951D01*
X111745345Y-130938349D01*
X111734358Y-130990502D01*
X111729442Y-131077161D01*
X111561085Y-131077161D01*
X111560763Y-131058442D01*
X111564478Y-130972719D01*
X111573145Y-130898305D01*
X111586522Y-130846106D01*
X111617679Y-130787006D01*
X111683808Y-130714340D01*
X111768331Y-130668310D01*
X111868734Y-130650090D01*
X111982505Y-130660858D01*
X112001435Y-130665445D01*
X112089595Y-130705000D01*
X112156028Y-130769941D01*
X112200735Y-130860271D01*
X112223718Y-130975994D01*
X112224387Y-131050663D01*
X112224982Y-131117116D01*
G37*
X112358063Y-132174107D02*
X112380655Y-132241510D01*
X112407379Y-132316127D01*
X112429696Y-132372654D01*
X112445759Y-132406486D01*
X112453724Y-132413016D01*
X112455646Y-132407337D01*
X112466049Y-132372507D01*
X112482619Y-132314335D01*
X112503516Y-132239333D01*
X112526900Y-132154013D01*
X112590518Y-131920066D01*
X112687655Y-131914990D01*
X112695854Y-131914584D01*
X112748235Y-131914046D01*
X112773406Y-131919423D01*
X112776612Y-131931701D01*
X112772562Y-131943692D01*
X112759241Y-131984734D01*
X112738384Y-132049736D01*
X112711479Y-132134048D01*
X112680012Y-132233022D01*
X112645469Y-132342006D01*
X112522505Y-132730526D01*
X112368689Y-132730526D01*
X112296213Y-132484046D01*
X112282830Y-132438785D01*
X112258096Y-132356502D01*
X112236962Y-132287940D01*
X112221329Y-132239225D01*
X112213102Y-132216483D01*
X112210758Y-132214787D01*
X112199351Y-132229456D01*
X112183065Y-132268248D01*
X112164606Y-132325102D01*
X112163631Y-132328441D01*
X112138917Y-132412347D01*
X112110641Y-132507351D01*
X112084730Y-132593528D01*
X112042714Y-132732253D01*
X111887750Y-132722171D01*
X111815987Y-132496579D01*
X111784480Y-132397454D01*
X111749187Y-132286281D01*
X111715393Y-132179704D01*
X111687418Y-132091349D01*
X111630613Y-131911710D01*
X111820656Y-131911710D01*
X111866720Y-132082993D01*
X111878965Y-132128251D01*
X111902125Y-132212625D01*
X111923572Y-132289384D01*
X111939876Y-132346184D01*
X111966969Y-132438092D01*
X112053374Y-132179079D01*
X112139780Y-131920066D01*
X112205870Y-131915104D01*
X112271959Y-131910143D01*
X112358063Y-132174107D01*
G36*
X112358063Y-132174107D02*
G01*
X112380655Y-132241510D01*
X112407379Y-132316127D01*
X112429696Y-132372654D01*
X112445759Y-132406486D01*
X112453724Y-132413016D01*
X112455646Y-132407337D01*
X112466049Y-132372507D01*
X112482619Y-132314335D01*
X112503516Y-132239333D01*
X112526900Y-132154013D01*
X112590518Y-131920066D01*
X112687655Y-131914990D01*
X112695854Y-131914584D01*
X112748235Y-131914046D01*
X112773406Y-131919423D01*
X112776612Y-131931701D01*
X112772562Y-131943692D01*
X112759241Y-131984734D01*
X112738384Y-132049736D01*
X112711479Y-132134048D01*
X112680012Y-132233022D01*
X112645469Y-132342006D01*
X112522505Y-132730526D01*
X112368689Y-132730526D01*
X112296213Y-132484046D01*
X112282830Y-132438785D01*
X112258096Y-132356502D01*
X112236962Y-132287940D01*
X112221329Y-132239225D01*
X112213102Y-132216483D01*
X112210758Y-132214787D01*
X112199351Y-132229456D01*
X112183065Y-132268248D01*
X112164606Y-132325102D01*
X112163631Y-132328441D01*
X112138917Y-132412347D01*
X112110641Y-132507351D01*
X112084730Y-132593528D01*
X112042714Y-132732253D01*
X111887750Y-132722171D01*
X111815987Y-132496579D01*
X111784480Y-132397454D01*
X111749187Y-132286281D01*
X111715393Y-132179704D01*
X111687418Y-132091349D01*
X111630613Y-131911710D01*
X111820656Y-131911710D01*
X111866720Y-132082993D01*
X111878965Y-132128251D01*
X111902125Y-132212625D01*
X111923572Y-132289384D01*
X111939876Y-132346184D01*
X111966969Y-132438092D01*
X112053374Y-132179079D01*
X112139780Y-131920066D01*
X112205870Y-131915104D01*
X112271959Y-131910143D01*
X112358063Y-132174107D01*
G37*
X113497986Y-132383659D02*
X113495868Y-132455101D01*
X113491608Y-132504866D01*
X113490878Y-132509427D01*
X113462206Y-132591004D01*
X113409846Y-132660165D01*
X113341158Y-132707021D01*
X113267396Y-132726416D01*
X113176668Y-132724911D01*
X113093205Y-132698906D01*
X113071465Y-132687932D01*
X113043510Y-132676174D01*
X113032872Y-132679832D01*
X113031185Y-132698906D01*
X113030410Y-132708418D01*
X113020407Y-132722485D01*
X112992623Y-132728962D01*
X112939277Y-132730526D01*
X112847369Y-132730526D01*
X112847369Y-132329328D01*
X113031185Y-132329328D01*
X113032502Y-132398832D01*
X113037848Y-132445106D01*
X113049262Y-132476807D01*
X113068783Y-132503373D01*
X113120329Y-132542873D01*
X113180650Y-132556115D01*
X113239144Y-132539740D01*
X113288410Y-132494060D01*
X113301432Y-132460634D01*
X113311051Y-132401441D01*
X113315280Y-132329626D01*
X113313948Y-132255967D01*
X113306884Y-132191239D01*
X113293917Y-132146222D01*
X113289774Y-132138840D01*
X113249840Y-132101738D01*
X113195722Y-132085301D01*
X113137600Y-132089124D01*
X113085653Y-132112802D01*
X113050063Y-132155929D01*
X113048592Y-132159556D01*
X113039767Y-132200026D01*
X113033542Y-132260499D01*
X113031185Y-132329328D01*
X112847369Y-132329328D01*
X112847369Y-131594210D01*
X113031185Y-131594210D01*
X113031185Y-131983732D01*
X113065232Y-131952920D01*
X113098014Y-131933769D01*
X113160059Y-131917760D01*
X113232589Y-131912602D01*
X113303419Y-131918935D01*
X113360368Y-131937400D01*
X113401128Y-131963666D01*
X113443113Y-132008412D01*
X113471370Y-132068588D01*
X113488355Y-132149988D01*
X113496528Y-132258405D01*
X113497729Y-132302230D01*
X113497816Y-132329626D01*
X113497986Y-132383659D01*
G36*
X113497986Y-132383659D02*
G01*
X113495868Y-132455101D01*
X113491608Y-132504866D01*
X113490878Y-132509427D01*
X113462206Y-132591004D01*
X113409846Y-132660165D01*
X113341158Y-132707021D01*
X113267396Y-132726416D01*
X113176668Y-132724911D01*
X113093205Y-132698906D01*
X113071465Y-132687932D01*
X113043510Y-132676174D01*
X113032872Y-132679832D01*
X113031185Y-132698906D01*
X113030410Y-132708418D01*
X113020407Y-132722485D01*
X112992623Y-132728962D01*
X112939277Y-132730526D01*
X112847369Y-132730526D01*
X112847369Y-132329328D01*
X113031185Y-132329328D01*
X113032502Y-132398832D01*
X113037848Y-132445106D01*
X113049262Y-132476807D01*
X113068783Y-132503373D01*
X113120329Y-132542873D01*
X113180650Y-132556115D01*
X113239144Y-132539740D01*
X113288410Y-132494060D01*
X113301432Y-132460634D01*
X113311051Y-132401441D01*
X113315280Y-132329626D01*
X113313948Y-132255967D01*
X113306884Y-132191239D01*
X113293917Y-132146222D01*
X113289774Y-132138840D01*
X113249840Y-132101738D01*
X113195722Y-132085301D01*
X113137600Y-132089124D01*
X113085653Y-132112802D01*
X113050063Y-132155929D01*
X113048592Y-132159556D01*
X113039767Y-132200026D01*
X113033542Y-132260499D01*
X113031185Y-132329328D01*
X112847369Y-132329328D01*
X112847369Y-131594210D01*
X113031185Y-131594210D01*
X113031185Y-131983732D01*
X113065232Y-131952920D01*
X113098014Y-131933769D01*
X113160059Y-131917760D01*
X113232589Y-131912602D01*
X113303419Y-131918935D01*
X113360368Y-131937400D01*
X113401128Y-131963666D01*
X113443113Y-132008412D01*
X113471370Y-132068588D01*
X113488355Y-132149988D01*
X113496528Y-132258405D01*
X113497729Y-132302230D01*
X113497816Y-132329626D01*
X113497986Y-132383659D01*
G37*
X116387431Y-131105368D02*
X116385273Y-131157701D01*
X116380376Y-131221519D01*
X116372033Y-131266752D01*
X116358256Y-131302593D01*
X116337057Y-131338236D01*
X116336154Y-131339587D01*
X116283953Y-131397335D01*
X116220083Y-131441380D01*
X116145813Y-131467517D01*
X116048110Y-131476003D01*
X115952350Y-131459316D01*
X115866755Y-131419106D01*
X115799545Y-131357022D01*
X115780250Y-131327688D01*
X115744216Y-131236496D01*
X115726344Y-131123984D01*
X115726650Y-131095524D01*
X115906249Y-131095524D01*
X115906588Y-131148750D01*
X115912231Y-131184284D01*
X115925089Y-131211589D01*
X115947072Y-131240124D01*
X115977579Y-131268440D01*
X116038592Y-131293710D01*
X116104106Y-131289016D01*
X116166719Y-131253896D01*
X116184381Y-131237122D01*
X116203239Y-131208407D01*
X116213696Y-131168046D01*
X116219624Y-131105154D01*
X116221257Y-131057910D01*
X116212311Y-130961428D01*
X116184860Y-130892352D01*
X116138781Y-130850301D01*
X116084766Y-130830165D01*
X116020349Y-130831860D01*
X115960637Y-130865855D01*
X115946361Y-130878797D01*
X115928347Y-130901440D01*
X115917659Y-130931064D01*
X115911729Y-130976482D01*
X115907988Y-131046506D01*
X115906249Y-131095524D01*
X115726650Y-131095524D01*
X115727723Y-130995624D01*
X115729482Y-130977418D01*
X115754024Y-130860812D01*
X115799430Y-130770290D01*
X115865795Y-130705754D01*
X115953216Y-130667104D01*
X116061791Y-130654243D01*
X116102811Y-130655450D01*
X116186934Y-130670220D01*
X116255722Y-130705474D01*
X116319854Y-130765828D01*
X116330110Y-130777942D01*
X116357774Y-130818737D01*
X116375955Y-130864930D01*
X116386036Y-130923468D01*
X116389401Y-131001299D01*
X116388329Y-131057910D01*
X116387431Y-131105368D01*
G36*
X116387431Y-131105368D02*
G01*
X116385273Y-131157701D01*
X116380376Y-131221519D01*
X116372033Y-131266752D01*
X116358256Y-131302593D01*
X116337057Y-131338236D01*
X116336154Y-131339587D01*
X116283953Y-131397335D01*
X116220083Y-131441380D01*
X116145813Y-131467517D01*
X116048110Y-131476003D01*
X115952350Y-131459316D01*
X115866755Y-131419106D01*
X115799545Y-131357022D01*
X115780250Y-131327688D01*
X115744216Y-131236496D01*
X115726344Y-131123984D01*
X115726650Y-131095524D01*
X115906249Y-131095524D01*
X115906588Y-131148750D01*
X115912231Y-131184284D01*
X115925089Y-131211589D01*
X115947072Y-131240124D01*
X115977579Y-131268440D01*
X116038592Y-131293710D01*
X116104106Y-131289016D01*
X116166719Y-131253896D01*
X116184381Y-131237122D01*
X116203239Y-131208407D01*
X116213696Y-131168046D01*
X116219624Y-131105154D01*
X116221257Y-131057910D01*
X116212311Y-130961428D01*
X116184860Y-130892352D01*
X116138781Y-130850301D01*
X116084766Y-130830165D01*
X116020349Y-130831860D01*
X115960637Y-130865855D01*
X115946361Y-130878797D01*
X115928347Y-130901440D01*
X115917659Y-130931064D01*
X115911729Y-130976482D01*
X115907988Y-131046506D01*
X115906249Y-131095524D01*
X115726650Y-131095524D01*
X115727723Y-130995624D01*
X115729482Y-130977418D01*
X115754024Y-130860812D01*
X115799430Y-130770290D01*
X115865795Y-130705754D01*
X115953216Y-130667104D01*
X116061791Y-130654243D01*
X116102811Y-130655450D01*
X116186934Y-130670220D01*
X116255722Y-130705474D01*
X116319854Y-130765828D01*
X116330110Y-130777942D01*
X116357774Y-130818737D01*
X116375955Y-130864930D01*
X116386036Y-130923468D01*
X116389401Y-131001299D01*
X116388329Y-131057910D01*
X116387431Y-131105368D01*
G37*
X109416367Y-131005627D02*
X109414216Y-131133529D01*
X109413936Y-131136044D01*
X109389909Y-131253405D01*
X109346499Y-131344652D01*
X109282353Y-131411791D01*
X109196119Y-131456824D01*
X109180289Y-131461974D01*
X109082173Y-131477151D01*
X108980698Y-131468688D01*
X108886359Y-131438445D01*
X108809649Y-131388285D01*
X108752190Y-131335197D01*
X108813266Y-131286904D01*
X108874341Y-131238611D01*
X108947947Y-131274371D01*
X109033115Y-131303347D01*
X109108301Y-131304215D01*
X109169816Y-131277592D01*
X109214083Y-131224155D01*
X109229952Y-131192136D01*
X109238811Y-131164771D01*
X109233685Y-131146285D01*
X109210687Y-131134938D01*
X109165931Y-131128987D01*
X109095529Y-131126693D01*
X108995593Y-131126316D01*
X108753290Y-131126316D01*
X108753290Y-131010430D01*
X108755100Y-130959555D01*
X108925706Y-130959555D01*
X108933900Y-130968912D01*
X108958160Y-130973783D01*
X109004272Y-130975630D01*
X109078019Y-130975921D01*
X109117566Y-130975457D01*
X109179971Y-130972388D01*
X109222303Y-130967013D01*
X109237895Y-130959997D01*
X109233906Y-130934108D01*
X109205788Y-130884570D01*
X109158932Y-130843875D01*
X109103074Y-130819295D01*
X109047951Y-130818105D01*
X109006458Y-130837815D01*
X108959440Y-130882668D01*
X108929545Y-130938322D01*
X108927794Y-130944245D01*
X108925706Y-130959555D01*
X108755100Y-130959555D01*
X108755471Y-130949138D01*
X108761876Y-130888496D01*
X108771025Y-130847502D01*
X108777695Y-130831852D01*
X108826243Y-130762149D01*
X108896391Y-130704013D01*
X108978426Y-130665949D01*
X109021216Y-130655554D01*
X109123170Y-130650822D01*
X109214015Y-130674893D01*
X109291253Y-130725088D01*
X109352389Y-130798727D01*
X109394926Y-130893133D01*
X109407671Y-130959997D01*
X109416367Y-131005627D01*
G36*
X109416367Y-131005627D02*
G01*
X109414216Y-131133529D01*
X109413936Y-131136044D01*
X109389909Y-131253405D01*
X109346499Y-131344652D01*
X109282353Y-131411791D01*
X109196119Y-131456824D01*
X109180289Y-131461974D01*
X109082173Y-131477151D01*
X108980698Y-131468688D01*
X108886359Y-131438445D01*
X108809649Y-131388285D01*
X108752190Y-131335197D01*
X108813266Y-131286904D01*
X108874341Y-131238611D01*
X108947947Y-131274371D01*
X109033115Y-131303347D01*
X109108301Y-131304215D01*
X109169816Y-131277592D01*
X109214083Y-131224155D01*
X109229952Y-131192136D01*
X109238811Y-131164771D01*
X109233685Y-131146285D01*
X109210687Y-131134938D01*
X109165931Y-131128987D01*
X109095529Y-131126693D01*
X108995593Y-131126316D01*
X108753290Y-131126316D01*
X108753290Y-131010430D01*
X108755100Y-130959555D01*
X108925706Y-130959555D01*
X108933900Y-130968912D01*
X108958160Y-130973783D01*
X109004272Y-130975630D01*
X109078019Y-130975921D01*
X109117566Y-130975457D01*
X109179971Y-130972388D01*
X109222303Y-130967013D01*
X109237895Y-130959997D01*
X109233906Y-130934108D01*
X109205788Y-130884570D01*
X109158932Y-130843875D01*
X109103074Y-130819295D01*
X109047951Y-130818105D01*
X109006458Y-130837815D01*
X108959440Y-130882668D01*
X108929545Y-130938322D01*
X108927794Y-130944245D01*
X108925706Y-130959555D01*
X108755100Y-130959555D01*
X108755471Y-130949138D01*
X108761876Y-130888496D01*
X108771025Y-130847502D01*
X108777695Y-130831852D01*
X108826243Y-130762149D01*
X108896391Y-130704013D01*
X108978426Y-130665949D01*
X109021216Y-130655554D01*
X109123170Y-130650822D01*
X109214015Y-130674893D01*
X109291253Y-130725088D01*
X109352389Y-130798727D01*
X109394926Y-130893133D01*
X109407671Y-130959997D01*
X109416367Y-131005627D01*
G37*
X112711399Y-130657879D02*
X112807909Y-130682068D01*
X112878411Y-130726902D01*
X112923307Y-130792681D01*
X112942999Y-130879707D01*
X112939012Y-130963023D01*
X112910235Y-131033297D01*
X112855048Y-131085254D01*
X112772348Y-131119910D01*
X112661026Y-131138279D01*
X112588692Y-131147906D01*
X112522670Y-131168737D01*
X112488583Y-131198904D01*
X112486526Y-131238352D01*
X112500243Y-131262949D01*
X112542726Y-131292101D01*
X112603117Y-131305889D01*
X112673889Y-131304004D01*
X112747512Y-131286133D01*
X112816457Y-131251967D01*
X112885197Y-131206477D01*
X113006119Y-131328835D01*
X112955987Y-131369755D01*
X112936494Y-131383973D01*
X112881650Y-131416275D01*
X112822303Y-131444109D01*
X112775335Y-131460083D01*
X112706562Y-131471654D01*
X112621777Y-131471807D01*
X112517806Y-131459067D01*
X112424145Y-131426777D01*
X112357849Y-131375486D01*
X112318760Y-131305065D01*
X112306722Y-131215387D01*
X112315436Y-131136497D01*
X112343408Y-131071907D01*
X112393768Y-131025651D01*
X112469703Y-130994888D01*
X112574400Y-130976778D01*
X112586425Y-130975467D01*
X112651611Y-130967106D01*
X112704490Y-130958357D01*
X112734573Y-130950913D01*
X112744612Y-130944920D01*
X112761584Y-130914013D01*
X112758828Y-130874450D01*
X112736146Y-130840105D01*
X112724236Y-130832615D01*
X112674606Y-130820613D01*
X112610500Y-130821420D01*
X112543653Y-130834192D01*
X112485799Y-130858086D01*
X112425008Y-130893954D01*
X112377854Y-130838852D01*
X112366412Y-130824853D01*
X112340634Y-130787353D01*
X112330022Y-130761937D01*
X112341166Y-130746353D01*
X112375644Y-130722026D01*
X112425428Y-130695848D01*
X112432443Y-130692648D01*
X112498092Y-130667548D01*
X112561372Y-130655547D01*
X112639900Y-130653137D01*
X112711399Y-130657879D01*
G36*
X112711399Y-130657879D02*
G01*
X112807909Y-130682068D01*
X112878411Y-130726902D01*
X112923307Y-130792681D01*
X112942999Y-130879707D01*
X112939012Y-130963023D01*
X112910235Y-131033297D01*
X112855048Y-131085254D01*
X112772348Y-131119910D01*
X112661026Y-131138279D01*
X112588692Y-131147906D01*
X112522670Y-131168737D01*
X112488583Y-131198904D01*
X112486526Y-131238352D01*
X112500243Y-131262949D01*
X112542726Y-131292101D01*
X112603117Y-131305889D01*
X112673889Y-131304004D01*
X112747512Y-131286133D01*
X112816457Y-131251967D01*
X112885197Y-131206477D01*
X113006119Y-131328835D01*
X112955987Y-131369755D01*
X112936494Y-131383973D01*
X112881650Y-131416275D01*
X112822303Y-131444109D01*
X112775335Y-131460083D01*
X112706562Y-131471654D01*
X112621777Y-131471807D01*
X112517806Y-131459067D01*
X112424145Y-131426777D01*
X112357849Y-131375486D01*
X112318760Y-131305065D01*
X112306722Y-131215387D01*
X112315436Y-131136497D01*
X112343408Y-131071907D01*
X112393768Y-131025651D01*
X112469703Y-130994888D01*
X112574400Y-130976778D01*
X112586425Y-130975467D01*
X112651611Y-130967106D01*
X112704490Y-130958357D01*
X112734573Y-130950913D01*
X112744612Y-130944920D01*
X112761584Y-130914013D01*
X112758828Y-130874450D01*
X112736146Y-130840105D01*
X112724236Y-130832615D01*
X112674606Y-130820613D01*
X112610500Y-130821420D01*
X112543653Y-130834192D01*
X112485799Y-130858086D01*
X112425008Y-130893954D01*
X112377854Y-130838852D01*
X112366412Y-130824853D01*
X112340634Y-130787353D01*
X112330022Y-130761937D01*
X112341166Y-130746353D01*
X112375644Y-130722026D01*
X112425428Y-130695848D01*
X112432443Y-130692648D01*
X112498092Y-130667548D01*
X112561372Y-130655547D01*
X112639900Y-130653137D01*
X112711399Y-130657879D01*
G37*
X110273418Y-132321118D02*
X110271245Y-132383498D01*
X110251455Y-132502794D01*
X110210734Y-132596598D01*
X110148724Y-132665581D01*
X110065066Y-132710412D01*
X110038037Y-132718332D01*
X109941524Y-132729395D01*
X109839615Y-132720059D01*
X109747566Y-132691246D01*
X109715138Y-132674892D01*
X109668643Y-132646878D01*
X109640465Y-132623827D01*
X109636305Y-132618560D01*
X109628522Y-132599299D01*
X109639736Y-132578361D01*
X109673886Y-132546650D01*
X109690367Y-132532845D01*
X109722832Y-132507583D01*
X109739855Y-132497258D01*
X109744732Y-132498321D01*
X109772681Y-132509819D01*
X109814408Y-132530000D01*
X109828013Y-132536638D01*
X109908271Y-132561289D01*
X109977997Y-132554935D01*
X110039140Y-132517467D01*
X110046255Y-132510544D01*
X110080268Y-132467178D01*
X110099702Y-132425559D01*
X110110466Y-132379605D01*
X109605527Y-132379605D01*
X109605620Y-132291875D01*
X109605673Y-132283150D01*
X109612490Y-132212763D01*
X109789343Y-132212763D01*
X109791431Y-132227361D01*
X109802152Y-132237422D01*
X109827707Y-132243006D01*
X109874289Y-132245408D01*
X109948093Y-132245921D01*
X109989124Y-132245389D01*
X110049688Y-132242280D01*
X110091345Y-132237012D01*
X110106843Y-132230298D01*
X110093626Y-132175033D01*
X110054930Y-132123452D01*
X109999121Y-132087666D01*
X109934651Y-132075288D01*
X109887185Y-132089242D01*
X109839738Y-132123353D01*
X109803669Y-132167796D01*
X109789343Y-132212763D01*
X109612490Y-132212763D01*
X109616127Y-132175216D01*
X109646555Y-132087413D01*
X109699649Y-132011723D01*
X109732038Y-131979705D01*
X109798932Y-131936845D01*
X109878807Y-131916078D01*
X109979700Y-131914618D01*
X110028435Y-131920343D01*
X110118396Y-131950071D01*
X110187271Y-132004178D01*
X110235664Y-132083498D01*
X110264179Y-132188866D01*
X110267074Y-132230298D01*
X110273418Y-132321118D01*
G36*
X110273418Y-132321118D02*
G01*
X110271245Y-132383498D01*
X110251455Y-132502794D01*
X110210734Y-132596598D01*
X110148724Y-132665581D01*
X110065066Y-132710412D01*
X110038037Y-132718332D01*
X109941524Y-132729395D01*
X109839615Y-132720059D01*
X109747566Y-132691246D01*
X109715138Y-132674892D01*
X109668643Y-132646878D01*
X109640465Y-132623827D01*
X109636305Y-132618560D01*
X109628522Y-132599299D01*
X109639736Y-132578361D01*
X109673886Y-132546650D01*
X109690367Y-132532845D01*
X109722832Y-132507583D01*
X109739855Y-132497258D01*
X109744732Y-132498321D01*
X109772681Y-132509819D01*
X109814408Y-132530000D01*
X109828013Y-132536638D01*
X109908271Y-132561289D01*
X109977997Y-132554935D01*
X110039140Y-132517467D01*
X110046255Y-132510544D01*
X110080268Y-132467178D01*
X110099702Y-132425559D01*
X110110466Y-132379605D01*
X109605527Y-132379605D01*
X109605620Y-132291875D01*
X109605673Y-132283150D01*
X109612490Y-132212763D01*
X109789343Y-132212763D01*
X109791431Y-132227361D01*
X109802152Y-132237422D01*
X109827707Y-132243006D01*
X109874289Y-132245408D01*
X109948093Y-132245921D01*
X109989124Y-132245389D01*
X110049688Y-132242280D01*
X110091345Y-132237012D01*
X110106843Y-132230298D01*
X110093626Y-132175033D01*
X110054930Y-132123452D01*
X109999121Y-132087666D01*
X109934651Y-132075288D01*
X109887185Y-132089242D01*
X109839738Y-132123353D01*
X109803669Y-132167796D01*
X109789343Y-132212763D01*
X109612490Y-132212763D01*
X109616127Y-132175216D01*
X109646555Y-132087413D01*
X109699649Y-132011723D01*
X109732038Y-131979705D01*
X109798932Y-131936845D01*
X109878807Y-131916078D01*
X109979700Y-131914618D01*
X110028435Y-131920343D01*
X110118396Y-131950071D01*
X110187271Y-132004178D01*
X110235664Y-132083498D01*
X110264179Y-132188866D01*
X110267074Y-132230298D01*
X110273418Y-132321118D01*
G37*
X114848543Y-130959091D02*
X114854389Y-131076138D01*
X114852928Y-131127216D01*
X114836454Y-131238843D01*
X114800151Y-131326856D01*
X114742120Y-131394884D01*
X114660461Y-131446551D01*
X114581246Y-131470670D01*
X114481871Y-131475285D01*
X114381607Y-131457537D01*
X114292172Y-131418327D01*
X114259030Y-131396515D01*
X114222515Y-131368556D01*
X114205853Y-131350158D01*
X114206798Y-131342567D01*
X114225448Y-131316703D01*
X114260498Y-131285367D01*
X114321241Y-131239036D01*
X114392418Y-131274584D01*
X114411665Y-131283383D01*
X114468323Y-131302506D01*
X114515811Y-131310131D01*
X114550828Y-131303848D01*
X114605778Y-131273591D01*
X114651967Y-131226620D01*
X114678387Y-131172270D01*
X114689150Y-131126316D01*
X114184211Y-131126316D01*
X114184304Y-131038585D01*
X114185069Y-131010781D01*
X114190649Y-130951119D01*
X114368027Y-130951119D01*
X114368352Y-130954537D01*
X114377540Y-130965181D01*
X114403504Y-130971720D01*
X114451779Y-130975014D01*
X114527903Y-130975921D01*
X114552923Y-130975910D01*
X114617902Y-130975310D01*
X114656964Y-130972715D01*
X114675903Y-130966662D01*
X114680511Y-130955686D01*
X114676581Y-130938322D01*
X114675981Y-130936353D01*
X114642127Y-130875930D01*
X114588757Y-130834329D01*
X114525115Y-130818842D01*
X114501591Y-130820080D01*
X114457928Y-130834896D01*
X114416041Y-130872579D01*
X114404758Y-130885903D01*
X114378513Y-130923956D01*
X114368027Y-130951119D01*
X114190649Y-130951119D01*
X114191366Y-130943449D01*
X114201926Y-130887734D01*
X114213501Y-130856543D01*
X114254195Y-130788700D01*
X114308695Y-130727086D01*
X114366330Y-130684866D01*
X114382982Y-130677027D01*
X114479945Y-130651021D01*
X114578960Y-130653762D01*
X114672052Y-130684092D01*
X114751244Y-130740848D01*
X114794078Y-130793190D01*
X114829101Y-130866928D01*
X114847825Y-130955686D01*
X114848543Y-130959091D01*
G36*
X114848543Y-130959091D02*
G01*
X114854389Y-131076138D01*
X114852928Y-131127216D01*
X114836454Y-131238843D01*
X114800151Y-131326856D01*
X114742120Y-131394884D01*
X114660461Y-131446551D01*
X114581246Y-131470670D01*
X114481871Y-131475285D01*
X114381607Y-131457537D01*
X114292172Y-131418327D01*
X114259030Y-131396515D01*
X114222515Y-131368556D01*
X114205853Y-131350158D01*
X114206798Y-131342567D01*
X114225448Y-131316703D01*
X114260498Y-131285367D01*
X114321241Y-131239036D01*
X114392418Y-131274584D01*
X114411665Y-131283383D01*
X114468323Y-131302506D01*
X114515811Y-131310131D01*
X114550828Y-131303848D01*
X114605778Y-131273591D01*
X114651967Y-131226620D01*
X114678387Y-131172270D01*
X114689150Y-131126316D01*
X114184211Y-131126316D01*
X114184304Y-131038585D01*
X114185069Y-131010781D01*
X114190649Y-130951119D01*
X114368027Y-130951119D01*
X114368352Y-130954537D01*
X114377540Y-130965181D01*
X114403504Y-130971720D01*
X114451779Y-130975014D01*
X114527903Y-130975921D01*
X114552923Y-130975910D01*
X114617902Y-130975310D01*
X114656964Y-130972715D01*
X114675903Y-130966662D01*
X114680511Y-130955686D01*
X114676581Y-130938322D01*
X114675981Y-130936353D01*
X114642127Y-130875930D01*
X114588757Y-130834329D01*
X114525115Y-130818842D01*
X114501591Y-130820080D01*
X114457928Y-130834896D01*
X114416041Y-130872579D01*
X114404758Y-130885903D01*
X114378513Y-130923956D01*
X114368027Y-130951119D01*
X114190649Y-130951119D01*
X114191366Y-130943449D01*
X114201926Y-130887734D01*
X114213501Y-130856543D01*
X114254195Y-130788700D01*
X114308695Y-130727086D01*
X114366330Y-130684866D01*
X114382982Y-130677027D01*
X114479945Y-130651021D01*
X114578960Y-130653762D01*
X114672052Y-130684092D01*
X114751244Y-130740848D01*
X114794078Y-130793190D01*
X114829101Y-130866928D01*
X114847825Y-130955686D01*
X114848543Y-130959091D01*
G37*
X111635668Y-132510600D02*
X111615509Y-132586464D01*
X111571698Y-132651365D01*
X111505241Y-132698051D01*
X111498719Y-132700889D01*
X111426005Y-132721330D01*
X111344071Y-132729299D01*
X111266172Y-132724427D01*
X111205560Y-132706348D01*
X111181348Y-132694554D01*
X111163580Y-132691741D01*
X111159606Y-132706451D01*
X111152078Y-132720055D01*
X111122953Y-132728156D01*
X111066420Y-132730526D01*
X110973235Y-132730526D01*
X110978690Y-132408849D01*
X110979273Y-132379605D01*
X111159606Y-132379605D01*
X111159606Y-132438092D01*
X111165900Y-132481806D01*
X111193027Y-132530000D01*
X111203040Y-132538858D01*
X111244081Y-132557494D01*
X111305823Y-132562290D01*
X111342871Y-132560417D01*
X111412195Y-132546309D01*
X111455163Y-132520024D01*
X111469655Y-132483344D01*
X111453551Y-132438052D01*
X111444154Y-132426200D01*
X111402187Y-132399613D01*
X111335766Y-132384432D01*
X111241070Y-132379605D01*
X111159606Y-132379605D01*
X110979273Y-132379605D01*
X110980172Y-132334462D01*
X110984076Y-132223099D01*
X110990657Y-132137946D01*
X111001214Y-132074360D01*
X111017048Y-132027699D01*
X111039459Y-131993321D01*
X111069747Y-131966583D01*
X111109213Y-131942844D01*
X111129573Y-131933780D01*
X111200008Y-131916673D01*
X111284959Y-131909600D01*
X111372788Y-131912432D01*
X111451857Y-131925041D01*
X111510527Y-131947297D01*
X111530935Y-131960219D01*
X111577921Y-131998519D01*
X111593824Y-132030589D01*
X111589962Y-132036786D01*
X111565894Y-132058432D01*
X111527039Y-132087308D01*
X111507174Y-132100824D01*
X111473346Y-132119974D01*
X111451363Y-132121803D01*
X111430953Y-132108585D01*
X111380086Y-132081816D01*
X111311640Y-132070808D01*
X111241694Y-132079236D01*
X111240370Y-132079618D01*
X111191036Y-132101052D01*
X111166616Y-132134603D01*
X111159862Y-132190091D01*
X111159606Y-132242879D01*
X111334010Y-132248577D01*
X111361796Y-132249515D01*
X111431848Y-132252775D01*
X111478809Y-132257897D01*
X111510552Y-132266798D01*
X111534948Y-132281397D01*
X111559869Y-132303612D01*
X111601015Y-132354995D01*
X111631171Y-132431026D01*
X111634128Y-132483344D01*
X111635668Y-132510600D01*
G36*
X111635668Y-132510600D02*
G01*
X111615509Y-132586464D01*
X111571698Y-132651365D01*
X111505241Y-132698051D01*
X111498719Y-132700889D01*
X111426005Y-132721330D01*
X111344071Y-132729299D01*
X111266172Y-132724427D01*
X111205560Y-132706348D01*
X111181348Y-132694554D01*
X111163580Y-132691741D01*
X111159606Y-132706451D01*
X111152078Y-132720055D01*
X111122953Y-132728156D01*
X111066420Y-132730526D01*
X110973235Y-132730526D01*
X110978690Y-132408849D01*
X110979273Y-132379605D01*
X111159606Y-132379605D01*
X111159606Y-132438092D01*
X111165900Y-132481806D01*
X111193027Y-132530000D01*
X111203040Y-132538858D01*
X111244081Y-132557494D01*
X111305823Y-132562290D01*
X111342871Y-132560417D01*
X111412195Y-132546309D01*
X111455163Y-132520024D01*
X111469655Y-132483344D01*
X111453551Y-132438052D01*
X111444154Y-132426200D01*
X111402187Y-132399613D01*
X111335766Y-132384432D01*
X111241070Y-132379605D01*
X111159606Y-132379605D01*
X110979273Y-132379605D01*
X110980172Y-132334462D01*
X110984076Y-132223099D01*
X110990657Y-132137946D01*
X111001214Y-132074360D01*
X111017048Y-132027699D01*
X111039459Y-131993321D01*
X111069747Y-131966583D01*
X111109213Y-131942844D01*
X111129573Y-131933780D01*
X111200008Y-131916673D01*
X111284959Y-131909600D01*
X111372788Y-131912432D01*
X111451857Y-131925041D01*
X111510527Y-131947297D01*
X111530935Y-131960219D01*
X111577921Y-131998519D01*
X111593824Y-132030589D01*
X111589962Y-132036786D01*
X111565894Y-132058432D01*
X111527039Y-132087308D01*
X111507174Y-132100824D01*
X111473346Y-132119974D01*
X111451363Y-132121803D01*
X111430953Y-132108585D01*
X111380086Y-132081816D01*
X111311640Y-132070808D01*
X111241694Y-132079236D01*
X111240370Y-132079618D01*
X111191036Y-132101052D01*
X111166616Y-132134603D01*
X111159862Y-132190091D01*
X111159606Y-132242879D01*
X111334010Y-132248577D01*
X111361796Y-132249515D01*
X111431848Y-132252775D01*
X111478809Y-132257897D01*
X111510552Y-132266798D01*
X111534948Y-132281397D01*
X111559869Y-132303612D01*
X111601015Y-132354995D01*
X111631171Y-132431026D01*
X111634128Y-132483344D01*
X111635668Y-132510600D01*
G37*
X114848912Y-132507796D02*
X114848722Y-132510000D01*
X114828360Y-132595846D01*
X114783067Y-132660412D01*
X114710593Y-132706937D01*
X114673140Y-132718256D01*
X114608990Y-132727078D01*
X114538840Y-132729185D01*
X114475548Y-132724330D01*
X114431976Y-132712268D01*
X114405512Y-132702606D01*
X114379601Y-132712268D01*
X114370123Y-132717866D01*
X114332294Y-132726943D01*
X114281132Y-132730526D01*
X114200922Y-132730526D01*
X114200922Y-132407142D01*
X114200928Y-132379605D01*
X114384737Y-132379605D01*
X114384737Y-132443857D01*
X114390915Y-132492753D01*
X114415297Y-132535765D01*
X114429249Y-132545074D01*
X114479051Y-132559583D01*
X114541225Y-132563205D01*
X114602196Y-132555845D01*
X114648388Y-132537408D01*
X114671399Y-132513030D01*
X114685527Y-132469713D01*
X114672998Y-132435376D01*
X114631582Y-132405520D01*
X114565005Y-132386366D01*
X114477182Y-132379605D01*
X114384737Y-132379605D01*
X114200928Y-132379605D01*
X114200928Y-132379176D01*
X114201232Y-132273767D01*
X114202376Y-132195401D01*
X114204877Y-132138871D01*
X114209256Y-132098970D01*
X114216032Y-132070492D01*
X114225725Y-132048230D01*
X114238853Y-132026978D01*
X114281084Y-131977180D01*
X114340930Y-131939160D01*
X114419543Y-131918184D01*
X114523136Y-131911736D01*
X114526503Y-131911743D01*
X114598513Y-131914995D01*
X114662966Y-131923103D01*
X114706952Y-131934470D01*
X114719010Y-131940166D01*
X114757391Y-131964289D01*
X114792124Y-131992960D01*
X114814977Y-132018760D01*
X114817716Y-132034273D01*
X114812370Y-132038465D01*
X114754127Y-132083218D01*
X114715181Y-132109613D01*
X114689431Y-132120262D01*
X114670772Y-132117780D01*
X114653101Y-132104782D01*
X114620490Y-132088556D01*
X114565533Y-132077737D01*
X114503420Y-132074931D01*
X114447217Y-132080642D01*
X114409984Y-132095376D01*
X114408025Y-132097169D01*
X114391294Y-132130850D01*
X114384737Y-132181125D01*
X114384737Y-132245921D01*
X114539310Y-132245983D01*
X114610314Y-132247107D01*
X114670082Y-132251996D01*
X114712837Y-132262055D01*
X114747380Y-132278665D01*
X114755419Y-132283767D01*
X114813576Y-132339847D01*
X114844510Y-132414004D01*
X114847125Y-132469713D01*
X114848912Y-132507796D01*
G36*
X114848912Y-132507796D02*
G01*
X114848722Y-132510000D01*
X114828360Y-132595846D01*
X114783067Y-132660412D01*
X114710593Y-132706937D01*
X114673140Y-132718256D01*
X114608990Y-132727078D01*
X114538840Y-132729185D01*
X114475548Y-132724330D01*
X114431976Y-132712268D01*
X114405512Y-132702606D01*
X114379601Y-132712268D01*
X114370123Y-132717866D01*
X114332294Y-132726943D01*
X114281132Y-132730526D01*
X114200922Y-132730526D01*
X114200922Y-132407142D01*
X114200928Y-132379605D01*
X114384737Y-132379605D01*
X114384737Y-132443857D01*
X114390915Y-132492753D01*
X114415297Y-132535765D01*
X114429249Y-132545074D01*
X114479051Y-132559583D01*
X114541225Y-132563205D01*
X114602196Y-132555845D01*
X114648388Y-132537408D01*
X114671399Y-132513030D01*
X114685527Y-132469713D01*
X114672998Y-132435376D01*
X114631582Y-132405520D01*
X114565005Y-132386366D01*
X114477182Y-132379605D01*
X114384737Y-132379605D01*
X114200928Y-132379605D01*
X114200928Y-132379176D01*
X114201232Y-132273767D01*
X114202376Y-132195401D01*
X114204877Y-132138871D01*
X114209256Y-132098970D01*
X114216032Y-132070492D01*
X114225725Y-132048230D01*
X114238853Y-132026978D01*
X114281084Y-131977180D01*
X114340930Y-131939160D01*
X114419543Y-131918184D01*
X114523136Y-131911736D01*
X114526503Y-131911743D01*
X114598513Y-131914995D01*
X114662966Y-131923103D01*
X114706952Y-131934470D01*
X114719010Y-131940166D01*
X114757391Y-131964289D01*
X114792124Y-131992960D01*
X114814977Y-132018760D01*
X114817716Y-132034273D01*
X114812370Y-132038465D01*
X114754127Y-132083218D01*
X114715181Y-132109613D01*
X114689431Y-132120262D01*
X114670772Y-132117780D01*
X114653101Y-132104782D01*
X114620490Y-132088556D01*
X114565533Y-132077737D01*
X114503420Y-132074931D01*
X114447217Y-132080642D01*
X114409984Y-132095376D01*
X114408025Y-132097169D01*
X114391294Y-132130850D01*
X114384737Y-132181125D01*
X114384737Y-132245921D01*
X114539310Y-132245983D01*
X114610314Y-132247107D01*
X114670082Y-132251996D01*
X114712837Y-132262055D01*
X114747380Y-132278665D01*
X114755419Y-132283767D01*
X114813576Y-132339847D01*
X114844510Y-132414004D01*
X114847125Y-132469713D01*
X114848912Y-132507796D01*
G37*
X115604606Y-132732273D02*
X115516875Y-132727222D01*
X115429145Y-132722171D01*
X115424974Y-132454802D01*
X115423740Y-132389788D01*
X115420237Y-132292111D01*
X115414224Y-132220434D01*
X115404597Y-132169940D01*
X115390249Y-132135810D01*
X115370075Y-132113227D01*
X115342970Y-132097372D01*
X115292112Y-132081180D01*
X115241534Y-132087472D01*
X115188125Y-132122077D01*
X115136711Y-132165339D01*
X115136711Y-132730526D01*
X114952895Y-132730526D01*
X114952895Y-132424010D01*
X114953072Y-132327935D01*
X114954049Y-132242562D01*
X114956399Y-132180071D01*
X114960691Y-132134794D01*
X114967495Y-132101068D01*
X114977378Y-132073227D01*
X114990910Y-132045605D01*
X114994119Y-132039741D01*
X115036792Y-131982627D01*
X115086735Y-131942714D01*
X115146948Y-131921756D01*
X115226680Y-131912427D01*
X115306527Y-131917480D01*
X115371488Y-131937205D01*
X115420790Y-131962700D01*
X115420790Y-131410931D01*
X115353237Y-131446142D01*
X115325019Y-131458934D01*
X115235950Y-131477023D01*
X115147434Y-131464521D01*
X115065381Y-131422952D01*
X114995704Y-131353843D01*
X114984789Y-131337600D01*
X114974298Y-131313790D01*
X114967455Y-131281418D01*
X114963504Y-131234271D01*
X114961688Y-131166135D01*
X114961362Y-131095142D01*
X115137891Y-131095142D01*
X115138040Y-131154431D01*
X115142573Y-131193969D01*
X115152760Y-131222189D01*
X115169872Y-131247519D01*
X115191610Y-131271069D01*
X115226372Y-131288892D01*
X115278750Y-131293421D01*
X115325020Y-131289480D01*
X115370817Y-131269759D01*
X115400312Y-131229809D01*
X115416104Y-131165600D01*
X115420790Y-131073101D01*
X115419578Y-131023894D01*
X115407481Y-130931006D01*
X115382523Y-130868196D01*
X115344844Y-130835906D01*
X115306789Y-130826822D01*
X115240513Y-130831081D01*
X115184516Y-130857452D01*
X115171114Y-130869545D01*
X115156913Y-130890467D01*
X115148133Y-130921611D01*
X115142919Y-130970710D01*
X115139416Y-131045498D01*
X115137891Y-131095142D01*
X114961362Y-131095142D01*
X114961250Y-131070797D01*
X114961400Y-131027296D01*
X114963962Y-130926111D01*
X114971097Y-130850522D01*
X114984606Y-130794817D01*
X115006294Y-130753283D01*
X115037960Y-130720206D01*
X115081408Y-130689874D01*
X115116640Y-130672468D01*
X115200173Y-130653271D01*
X115288222Y-130655887D01*
X115366481Y-130680772D01*
X115400067Y-130697039D01*
X115416960Y-130698720D01*
X115420790Y-130683916D01*
X115420794Y-130683468D01*
X115429048Y-130668351D01*
X115457517Y-130660603D01*
X115512698Y-130658421D01*
X115604606Y-130658421D01*
X115604606Y-131073101D01*
X115604606Y-132732273D01*
G36*
X115604606Y-132732273D02*
G01*
X115516875Y-132727222D01*
X115429145Y-132722171D01*
X115424974Y-132454802D01*
X115423740Y-132389788D01*
X115420237Y-132292111D01*
X115414224Y-132220434D01*
X115404597Y-132169940D01*
X115390249Y-132135810D01*
X115370075Y-132113227D01*
X115342970Y-132097372D01*
X115292112Y-132081180D01*
X115241534Y-132087472D01*
X115188125Y-132122077D01*
X115136711Y-132165339D01*
X115136711Y-132730526D01*
X114952895Y-132730526D01*
X114952895Y-132424010D01*
X114953072Y-132327935D01*
X114954049Y-132242562D01*
X114956399Y-132180071D01*
X114960691Y-132134794D01*
X114967495Y-132101068D01*
X114977378Y-132073227D01*
X114990910Y-132045605D01*
X114994119Y-132039741D01*
X115036792Y-131982627D01*
X115086735Y-131942714D01*
X115146948Y-131921756D01*
X115226680Y-131912427D01*
X115306527Y-131917480D01*
X115371488Y-131937205D01*
X115420790Y-131962700D01*
X115420790Y-131410931D01*
X115353237Y-131446142D01*
X115325019Y-131458934D01*
X115235950Y-131477023D01*
X115147434Y-131464521D01*
X115065381Y-131422952D01*
X114995704Y-131353843D01*
X114984789Y-131337600D01*
X114974298Y-131313790D01*
X114967455Y-131281418D01*
X114963504Y-131234271D01*
X114961688Y-131166135D01*
X114961362Y-131095142D01*
X115137891Y-131095142D01*
X115138040Y-131154431D01*
X115142573Y-131193969D01*
X115152760Y-131222189D01*
X115169872Y-131247519D01*
X115191610Y-131271069D01*
X115226372Y-131288892D01*
X115278750Y-131293421D01*
X115325020Y-131289480D01*
X115370817Y-131269759D01*
X115400312Y-131229809D01*
X115416104Y-131165600D01*
X115420790Y-131073101D01*
X115419578Y-131023894D01*
X115407481Y-130931006D01*
X115382523Y-130868196D01*
X115344844Y-130835906D01*
X115306789Y-130826822D01*
X115240513Y-130831081D01*
X115184516Y-130857452D01*
X115171114Y-130869545D01*
X115156913Y-130890467D01*
X115148133Y-130921611D01*
X115142919Y-130970710D01*
X115139416Y-131045498D01*
X115137891Y-131095142D01*
X114961362Y-131095142D01*
X114961250Y-131070797D01*
X114961400Y-131027296D01*
X114963962Y-130926111D01*
X114971097Y-130850522D01*
X114984606Y-130794817D01*
X115006294Y-130753283D01*
X115037960Y-130720206D01*
X115081408Y-130689874D01*
X115116640Y-130672468D01*
X115200173Y-130653271D01*
X115288222Y-130655887D01*
X115366481Y-130680772D01*
X115400067Y-130697039D01*
X115416960Y-130698720D01*
X115420790Y-130683916D01*
X115420794Y-130683468D01*
X115429048Y-130668351D01*
X115457517Y-130660603D01*
X115512698Y-130658421D01*
X115604606Y-130658421D01*
X115604606Y-131073101D01*
X115604606Y-132732273D01*
G37*
X113064254Y-125118576D02*
X113139803Y-125519322D01*
X113418567Y-125634238D01*
X113697332Y-125749154D01*
X114031756Y-125521748D01*
X114097946Y-125476917D01*
X114185693Y-125418071D01*
X114261663Y-125367810D01*
X114321911Y-125328715D01*
X114362491Y-125303365D01*
X114379457Y-125294342D01*
X114389877Y-125300759D01*
X114421025Y-125327647D01*
X114468161Y-125371774D01*
X114527293Y-125429087D01*
X114594426Y-125495535D01*
X114665566Y-125567065D01*
X114736719Y-125639626D01*
X114803892Y-125709167D01*
X114863090Y-125771635D01*
X114910319Y-125822978D01*
X114941586Y-125859145D01*
X114952895Y-125876083D01*
X114950264Y-125883361D01*
X114932048Y-125915824D01*
X114898782Y-125969249D01*
X114853164Y-126039449D01*
X114797890Y-126122236D01*
X114735658Y-126213421D01*
X114701506Y-126263152D01*
X114642757Y-126349731D01*
X114592388Y-126425291D01*
X114553086Y-126485733D01*
X114527535Y-126526961D01*
X114518422Y-126544876D01*
X114518571Y-126545869D01*
X114526611Y-126568580D01*
X114545054Y-126614955D01*
X114571331Y-126678937D01*
X114602871Y-126754468D01*
X114637102Y-126835489D01*
X114671454Y-126915943D01*
X114703355Y-126989772D01*
X114730235Y-127050918D01*
X114749522Y-127093322D01*
X114758646Y-127110926D01*
X114764045Y-127112488D01*
X114796846Y-127119531D01*
X114855306Y-127131199D01*
X114934746Y-127146580D01*
X115030486Y-127164760D01*
X115137846Y-127184830D01*
X115194431Y-127195471D01*
X115298289Y-127215773D01*
X115389097Y-127234522D01*
X115461891Y-127250642D01*
X115511708Y-127263056D01*
X115533586Y-127270686D01*
X115537516Y-127278250D01*
X115544034Y-127315209D01*
X115549156Y-127376765D01*
X115552884Y-127457127D01*
X115555223Y-127550503D01*
X115556177Y-127651101D01*
X115555749Y-127753128D01*
X115553945Y-127850793D01*
X115550766Y-127938304D01*
X115546219Y-128009869D01*
X115540306Y-128059696D01*
X115533031Y-128081993D01*
X115528617Y-128084508D01*
X115495694Y-128095296D01*
X115438582Y-128109569D01*
X115363882Y-128125764D01*
X115278196Y-128142319D01*
X115249285Y-128147592D01*
X115115755Y-128172113D01*
X115010813Y-128191821D01*
X114930820Y-128207531D01*
X114872139Y-128220062D01*
X114831132Y-128230229D01*
X114804161Y-128238851D01*
X114787588Y-128246745D01*
X114777775Y-128254727D01*
X114776635Y-128256067D01*
X114760588Y-128283997D01*
X114736843Y-128335104D01*
X114707701Y-128403392D01*
X114675463Y-128482866D01*
X114642430Y-128567529D01*
X114610904Y-128651387D01*
X114583186Y-128728444D01*
X114561577Y-128792704D01*
X114548379Y-128838172D01*
X114545893Y-128858852D01*
X114547555Y-128861535D01*
X114564765Y-128887484D01*
X114597130Y-128935345D01*
X114641650Y-129000710D01*
X114695323Y-129079170D01*
X114755149Y-129166315D01*
X114771567Y-129190292D01*
X114829303Y-129276295D01*
X114879200Y-129353211D01*
X114918409Y-129416477D01*
X114944083Y-129461532D01*
X114953374Y-129483815D01*
X114951372Y-129489673D01*
X114930503Y-129518541D01*
X114889331Y-129565680D01*
X114830803Y-129627920D01*
X114757867Y-129702087D01*
X114673473Y-129785008D01*
X114625234Y-129831421D01*
X114548962Y-129903708D01*
X114482205Y-129965624D01*
X114428546Y-130013911D01*
X114391570Y-130045307D01*
X114374863Y-130056554D01*
X114363385Y-130052384D01*
X114328045Y-130032663D01*
X114276723Y-130000410D01*
X114216113Y-129959711D01*
X114173020Y-129930011D01*
X114086987Y-129871030D01*
X113995179Y-129808390D01*
X113911323Y-129751469D01*
X113747053Y-129640359D01*
X113609160Y-129714916D01*
X113576690Y-129732125D01*
X113517642Y-129761560D01*
X113471979Y-129781883D01*
X113447574Y-129789460D01*
X113439588Y-129779730D01*
X113419756Y-129742679D01*
X113390462Y-129681593D01*
X113353338Y-129600349D01*
X113310013Y-129502823D01*
X113262118Y-129392891D01*
X113211281Y-129274432D01*
X113159133Y-129151321D01*
X113107304Y-129027435D01*
X113057424Y-128906650D01*
X113011123Y-128792844D01*
X112970031Y-128689893D01*
X112935778Y-128601673D01*
X112909993Y-128532062D01*
X112894308Y-128484936D01*
X112890351Y-128464172D01*
X112890619Y-128463565D01*
X112909050Y-128444370D01*
X112947602Y-128414306D01*
X112998316Y-128379609D01*
X113014324Y-128369014D01*
X113136125Y-128268498D01*
X113236929Y-128148777D01*
X113314351Y-128014834D01*
X113366004Y-127871653D01*
X113389500Y-127724216D01*
X113382454Y-127577507D01*
X113353910Y-127447020D01*
X113302659Y-127315257D01*
X113227945Y-127197706D01*
X113125414Y-127086042D01*
X113085127Y-127050369D01*
X112954889Y-126962480D01*
X112814197Y-126903288D01*
X112667127Y-126872265D01*
X112517758Y-126868879D01*
X112370167Y-126892602D01*
X112228429Y-126942904D01*
X112096623Y-127019255D01*
X111978826Y-127121125D01*
X111879114Y-127247984D01*
X111859943Y-127279400D01*
X111794783Y-127422992D01*
X111760177Y-127572517D01*
X111755218Y-127724105D01*
X111779001Y-127873882D01*
X111830619Y-128017976D01*
X111909166Y-128152515D01*
X112013736Y-128273625D01*
X112143422Y-128377434D01*
X112147634Y-128380232D01*
X112197810Y-128415590D01*
X112235417Y-128445653D01*
X112252594Y-128464172D01*
X112250426Y-128478690D01*
X112236951Y-128520965D01*
X112213058Y-128586486D01*
X112180375Y-128671377D01*
X112140533Y-128771759D01*
X112095160Y-128883757D01*
X112045887Y-129003491D01*
X111994341Y-129127084D01*
X111942154Y-129250659D01*
X111890953Y-129370339D01*
X111842368Y-129482245D01*
X111798030Y-129582500D01*
X111759566Y-129667227D01*
X111728606Y-129732547D01*
X111706779Y-129774584D01*
X111695716Y-129789460D01*
X111686516Y-129787446D01*
X111650371Y-129772966D01*
X111596951Y-129747578D01*
X111534131Y-129714916D01*
X111396238Y-129640359D01*
X111231968Y-129751469D01*
X111183436Y-129784370D01*
X111093166Y-129845845D01*
X111003171Y-129907418D01*
X110927177Y-129959711D01*
X110885237Y-129988209D01*
X110830726Y-130023616D01*
X110790309Y-130047855D01*
X110770568Y-130056842D01*
X110762087Y-130053026D01*
X110731429Y-130029656D01*
X110684168Y-129988510D01*
X110624416Y-129933635D01*
X110556288Y-129869077D01*
X110483896Y-129798885D01*
X110411356Y-129727106D01*
X110342780Y-129657786D01*
X110282282Y-129594973D01*
X110233976Y-129542714D01*
X110201976Y-129505057D01*
X110190395Y-129486048D01*
X110191063Y-129482431D01*
X110204847Y-129452993D01*
X110234292Y-129402062D01*
X110276553Y-129334238D01*
X110328785Y-129254123D01*
X110388142Y-129166315D01*
X110404789Y-129142096D01*
X110463244Y-129056868D01*
X110514733Y-128981521D01*
X110556256Y-128920463D01*
X110584811Y-128878104D01*
X110597398Y-128858852D01*
X110597707Y-128858027D01*
X110593993Y-128834473D01*
X110579807Y-128786759D01*
X110557451Y-128720879D01*
X110529227Y-128642830D01*
X110497435Y-128558607D01*
X110464378Y-128474205D01*
X110432356Y-128395621D01*
X110403671Y-128328850D01*
X110380623Y-128279886D01*
X110365515Y-128254727D01*
X110364002Y-128253165D01*
X110353185Y-128245263D01*
X110334915Y-128237294D01*
X110305556Y-128228441D01*
X110261470Y-128217887D01*
X110199018Y-128204815D01*
X110114564Y-128188408D01*
X110004469Y-128167848D01*
X109865095Y-128142319D01*
X109836187Y-128136946D01*
X109753377Y-128120337D01*
X109683718Y-128104600D01*
X109633812Y-128091298D01*
X109610259Y-128081993D01*
X109606319Y-128074230D01*
X109599750Y-128036942D01*
X109594544Y-127975125D01*
X109590706Y-127894572D01*
X109588239Y-127801075D01*
X109587147Y-127700426D01*
X109587435Y-127598417D01*
X109589107Y-127500839D01*
X109592165Y-127413485D01*
X109596615Y-127342147D01*
X109602460Y-127292617D01*
X109609704Y-127270686D01*
X109617101Y-127267446D01*
X109653896Y-127257233D01*
X109716091Y-127242789D01*
X109798723Y-127225189D01*
X109896828Y-127205510D01*
X110005444Y-127184830D01*
X110064750Y-127173781D01*
X110166398Y-127154621D01*
X110253890Y-127137844D01*
X110322549Y-127124361D01*
X110367693Y-127115084D01*
X110384644Y-127110926D01*
X110385281Y-127110069D01*
X110396077Y-127088293D01*
X110416657Y-127042671D01*
X110444449Y-126979258D01*
X110476882Y-126904107D01*
X110511382Y-126823270D01*
X110545378Y-126742799D01*
X110576297Y-126668749D01*
X110601566Y-126607172D01*
X110618615Y-126564121D01*
X110624869Y-126545650D01*
X110622110Y-126539150D01*
X110603750Y-126508222D01*
X110570446Y-126456163D01*
X110524874Y-126387059D01*
X110469711Y-126304993D01*
X110407632Y-126214052D01*
X110373573Y-126164248D01*
X110314797Y-126076931D01*
X110264403Y-126000298D01*
X110225080Y-125938531D01*
X110199514Y-125895806D01*
X110190395Y-125876305D01*
X110196732Y-125865727D01*
X110223237Y-125834119D01*
X110266720Y-125786283D01*
X110323189Y-125726273D01*
X110388653Y-125658142D01*
X110459121Y-125585945D01*
X110530601Y-125513733D01*
X110599100Y-125445562D01*
X110660629Y-125385483D01*
X110711194Y-125337551D01*
X110746805Y-125305820D01*
X110763470Y-125294342D01*
X110772720Y-125298805D01*
X110806689Y-125319502D01*
X110861505Y-125354727D01*
X110933218Y-125401896D01*
X111017878Y-125458431D01*
X111111535Y-125521748D01*
X111445959Y-125749154D01*
X112003487Y-125519322D01*
X112079036Y-125118576D01*
X112154585Y-124717829D01*
X112988706Y-124717829D01*
X113064254Y-125118576D01*
G36*
X113064254Y-125118576D02*
G01*
X113139803Y-125519322D01*
X113418567Y-125634238D01*
X113697332Y-125749154D01*
X114031756Y-125521748D01*
X114097946Y-125476917D01*
X114185693Y-125418071D01*
X114261663Y-125367810D01*
X114321911Y-125328715D01*
X114362491Y-125303365D01*
X114379457Y-125294342D01*
X114389877Y-125300759D01*
X114421025Y-125327647D01*
X114468161Y-125371774D01*
X114527293Y-125429087D01*
X114594426Y-125495535D01*
X114665566Y-125567065D01*
X114736719Y-125639626D01*
X114803892Y-125709167D01*
X114863090Y-125771635D01*
X114910319Y-125822978D01*
X114941586Y-125859145D01*
X114952895Y-125876083D01*
X114950264Y-125883361D01*
X114932048Y-125915824D01*
X114898782Y-125969249D01*
X114853164Y-126039449D01*
X114797890Y-126122236D01*
X114735658Y-126213421D01*
X114701506Y-126263152D01*
X114642757Y-126349731D01*
X114592388Y-126425291D01*
X114553086Y-126485733D01*
X114527535Y-126526961D01*
X114518422Y-126544876D01*
X114518571Y-126545869D01*
X114526611Y-126568580D01*
X114545054Y-126614955D01*
X114571331Y-126678937D01*
X114602871Y-126754468D01*
X114637102Y-126835489D01*
X114671454Y-126915943D01*
X114703355Y-126989772D01*
X114730235Y-127050918D01*
X114749522Y-127093322D01*
X114758646Y-127110926D01*
X114764045Y-127112488D01*
X114796846Y-127119531D01*
X114855306Y-127131199D01*
X114934746Y-127146580D01*
X115030486Y-127164760D01*
X115137846Y-127184830D01*
X115194431Y-127195471D01*
X115298289Y-127215773D01*
X115389097Y-127234522D01*
X115461891Y-127250642D01*
X115511708Y-127263056D01*
X115533586Y-127270686D01*
X115537516Y-127278250D01*
X115544034Y-127315209D01*
X115549156Y-127376765D01*
X115552884Y-127457127D01*
X115555223Y-127550503D01*
X115556177Y-127651101D01*
X115555749Y-127753128D01*
X115553945Y-127850793D01*
X115550766Y-127938304D01*
X115546219Y-128009869D01*
X115540306Y-128059696D01*
X115533031Y-128081993D01*
X115528617Y-128084508D01*
X115495694Y-128095296D01*
X115438582Y-128109569D01*
X115363882Y-128125764D01*
X115278196Y-128142319D01*
X115249285Y-128147592D01*
X115115755Y-128172113D01*
X115010813Y-128191821D01*
X114930820Y-128207531D01*
X114872139Y-128220062D01*
X114831132Y-128230229D01*
X114804161Y-128238851D01*
X114787588Y-128246745D01*
X114777775Y-128254727D01*
X114776635Y-128256067D01*
X114760588Y-128283997D01*
X114736843Y-128335104D01*
X114707701Y-128403392D01*
X114675463Y-128482866D01*
X114642430Y-128567529D01*
X114610904Y-128651387D01*
X114583186Y-128728444D01*
X114561577Y-128792704D01*
X114548379Y-128838172D01*
X114545893Y-128858852D01*
X114547555Y-128861535D01*
X114564765Y-128887484D01*
X114597130Y-128935345D01*
X114641650Y-129000710D01*
X114695323Y-129079170D01*
X114755149Y-129166315D01*
X114771567Y-129190292D01*
X114829303Y-129276295D01*
X114879200Y-129353211D01*
X114918409Y-129416477D01*
X114944083Y-129461532D01*
X114953374Y-129483815D01*
X114951372Y-129489673D01*
X114930503Y-129518541D01*
X114889331Y-129565680D01*
X114830803Y-129627920D01*
X114757867Y-129702087D01*
X114673473Y-129785008D01*
X114625234Y-129831421D01*
X114548962Y-129903708D01*
X114482205Y-129965624D01*
X114428546Y-130013911D01*
X114391570Y-130045307D01*
X114374863Y-130056554D01*
X114363385Y-130052384D01*
X114328045Y-130032663D01*
X114276723Y-130000410D01*
X114216113Y-129959711D01*
X114173020Y-129930011D01*
X114086987Y-129871030D01*
X113995179Y-129808390D01*
X113911323Y-129751469D01*
X113747053Y-129640359D01*
X113609160Y-129714916D01*
X113576690Y-129732125D01*
X113517642Y-129761560D01*
X113471979Y-129781883D01*
X113447574Y-129789460D01*
X113439588Y-129779730D01*
X113419756Y-129742679D01*
X113390462Y-129681593D01*
X113353338Y-129600349D01*
X113310013Y-129502823D01*
X113262118Y-129392891D01*
X113211281Y-129274432D01*
X113159133Y-129151321D01*
X113107304Y-129027435D01*
X113057424Y-128906650D01*
X113011123Y-128792844D01*
X112970031Y-128689893D01*
X112935778Y-128601673D01*
X112909993Y-128532062D01*
X112894308Y-128484936D01*
X112890351Y-128464172D01*
X112890619Y-128463565D01*
X112909050Y-128444370D01*
X112947602Y-128414306D01*
X112998316Y-128379609D01*
X113014324Y-128369014D01*
X113136125Y-128268498D01*
X113236929Y-128148777D01*
X113314351Y-128014834D01*
X113366004Y-127871653D01*
X113389500Y-127724216D01*
X113382454Y-127577507D01*
X113353910Y-127447020D01*
X113302659Y-127315257D01*
X113227945Y-127197706D01*
X113125414Y-127086042D01*
X113085127Y-127050369D01*
X112954889Y-126962480D01*
X112814197Y-126903288D01*
X112667127Y-126872265D01*
X112517758Y-126868879D01*
X112370167Y-126892602D01*
X112228429Y-126942904D01*
X112096623Y-127019255D01*
X111978826Y-127121125D01*
X111879114Y-127247984D01*
X111859943Y-127279400D01*
X111794783Y-127422992D01*
X111760177Y-127572517D01*
X111755218Y-127724105D01*
X111779001Y-127873882D01*
X111830619Y-128017976D01*
X111909166Y-128152515D01*
X112013736Y-128273625D01*
X112143422Y-128377434D01*
X112147634Y-128380232D01*
X112197810Y-128415590D01*
X112235417Y-128445653D01*
X112252594Y-128464172D01*
X112250426Y-128478690D01*
X112236951Y-128520965D01*
X112213058Y-128586486D01*
X112180375Y-128671377D01*
X112140533Y-128771759D01*
X112095160Y-128883757D01*
X112045887Y-129003491D01*
X111994341Y-129127084D01*
X111942154Y-129250659D01*
X111890953Y-129370339D01*
X111842368Y-129482245D01*
X111798030Y-129582500D01*
X111759566Y-129667227D01*
X111728606Y-129732547D01*
X111706779Y-129774584D01*
X111695716Y-129789460D01*
X111686516Y-129787446D01*
X111650371Y-129772966D01*
X111596951Y-129747578D01*
X111534131Y-129714916D01*
X111396238Y-129640359D01*
X111231968Y-129751469D01*
X111183436Y-129784370D01*
X111093166Y-129845845D01*
X111003171Y-129907418D01*
X110927177Y-129959711D01*
X110885237Y-129988209D01*
X110830726Y-130023616D01*
X110790309Y-130047855D01*
X110770568Y-130056842D01*
X110762087Y-130053026D01*
X110731429Y-130029656D01*
X110684168Y-129988510D01*
X110624416Y-129933635D01*
X110556288Y-129869077D01*
X110483896Y-129798885D01*
X110411356Y-129727106D01*
X110342780Y-129657786D01*
X110282282Y-129594973D01*
X110233976Y-129542714D01*
X110201976Y-129505057D01*
X110190395Y-129486048D01*
X110191063Y-129482431D01*
X110204847Y-129452993D01*
X110234292Y-129402062D01*
X110276553Y-129334238D01*
X110328785Y-129254123D01*
X110388142Y-129166315D01*
X110404789Y-129142096D01*
X110463244Y-129056868D01*
X110514733Y-128981521D01*
X110556256Y-128920463D01*
X110584811Y-128878104D01*
X110597398Y-128858852D01*
X110597707Y-128858027D01*
X110593993Y-128834473D01*
X110579807Y-128786759D01*
X110557451Y-128720879D01*
X110529227Y-128642830D01*
X110497435Y-128558607D01*
X110464378Y-128474205D01*
X110432356Y-128395621D01*
X110403671Y-128328850D01*
X110380623Y-128279886D01*
X110365515Y-128254727D01*
X110364002Y-128253165D01*
X110353185Y-128245263D01*
X110334915Y-128237294D01*
X110305556Y-128228441D01*
X110261470Y-128217887D01*
X110199018Y-128204815D01*
X110114564Y-128188408D01*
X110004469Y-128167848D01*
X109865095Y-128142319D01*
X109836187Y-128136946D01*
X109753377Y-128120337D01*
X109683718Y-128104600D01*
X109633812Y-128091298D01*
X109610259Y-128081993D01*
X109606319Y-128074230D01*
X109599750Y-128036942D01*
X109594544Y-127975125D01*
X109590706Y-127894572D01*
X109588239Y-127801075D01*
X109587147Y-127700426D01*
X109587435Y-127598417D01*
X109589107Y-127500839D01*
X109592165Y-127413485D01*
X109596615Y-127342147D01*
X109602460Y-127292617D01*
X109609704Y-127270686D01*
X109617101Y-127267446D01*
X109653896Y-127257233D01*
X109716091Y-127242789D01*
X109798723Y-127225189D01*
X109896828Y-127205510D01*
X110005444Y-127184830D01*
X110064750Y-127173781D01*
X110166398Y-127154621D01*
X110253890Y-127137844D01*
X110322549Y-127124361D01*
X110367693Y-127115084D01*
X110384644Y-127110926D01*
X110385281Y-127110069D01*
X110396077Y-127088293D01*
X110416657Y-127042671D01*
X110444449Y-126979258D01*
X110476882Y-126904107D01*
X110511382Y-126823270D01*
X110545378Y-126742799D01*
X110576297Y-126668749D01*
X110601566Y-126607172D01*
X110618615Y-126564121D01*
X110624869Y-126545650D01*
X110622110Y-126539150D01*
X110603750Y-126508222D01*
X110570446Y-126456163D01*
X110524874Y-126387059D01*
X110469711Y-126304993D01*
X110407632Y-126214052D01*
X110373573Y-126164248D01*
X110314797Y-126076931D01*
X110264403Y-126000298D01*
X110225080Y-125938531D01*
X110199514Y-125895806D01*
X110190395Y-125876305D01*
X110196732Y-125865727D01*
X110223237Y-125834119D01*
X110266720Y-125786283D01*
X110323189Y-125726273D01*
X110388653Y-125658142D01*
X110459121Y-125585945D01*
X110530601Y-125513733D01*
X110599100Y-125445562D01*
X110660629Y-125385483D01*
X110711194Y-125337551D01*
X110746805Y-125305820D01*
X110763470Y-125294342D01*
X110772720Y-125298805D01*
X110806689Y-125319502D01*
X110861505Y-125354727D01*
X110933218Y-125401896D01*
X111017878Y-125458431D01*
X111111535Y-125521748D01*
X111445959Y-125749154D01*
X112003487Y-125519322D01*
X112079036Y-125118576D01*
X112154585Y-124717829D01*
X112988706Y-124717829D01*
X113064254Y-125118576D01*
G37*
D13*
%TO.C,U3*%
X111010000Y-82105000D02*
X110235000Y-82105000D01*
X111010000Y-82105000D02*
X111785000Y-82105000D01*
X111010000Y-85225000D02*
X110235000Y-85225000D01*
X111010000Y-85225000D02*
X111785000Y-85225000D01*
X109887500Y-85505000D02*
X109407500Y-85505000D01*
X109647500Y-85175000D01*
X109887500Y-85505000D01*
G36*
X109887500Y-85505000D02*
G01*
X109407500Y-85505000D01*
X109647500Y-85175000D01*
X109887500Y-85505000D01*
G37*
%TO.C,C7*%
X115638748Y-120465000D02*
X116161252Y-120465000D01*
X115638748Y-121935000D02*
X116161252Y-121935000D01*
%TO.C,C15*%
X147465000Y-93088748D02*
X147465000Y-93611252D01*
X148935000Y-93088748D02*
X148935000Y-93611252D01*
%TO.C,C8*%
X171665000Y-58811252D02*
X171665000Y-58288748D01*
X173135000Y-58811252D02*
X173135000Y-58288748D01*
%TO.C,R16*%
X110274564Y-79780000D02*
X109820436Y-79780000D01*
X110274564Y-81250000D02*
X109820436Y-81250000D01*
%TO.C,C17*%
X158850000Y-54490000D02*
X163060000Y-54490000D01*
X163060000Y-54490000D02*
X163060000Y-57510000D01*
X163060000Y-57510000D02*
X158850000Y-57510000D01*
%TO.C,C1*%
X178388748Y-66365000D02*
X178911252Y-66365000D01*
X178388748Y-67835000D02*
X178911252Y-67835000D01*
%TO.C,C18*%
X158850000Y-58490000D02*
X163060000Y-58490000D01*
X163060000Y-58490000D02*
X163060000Y-61510000D01*
X163060000Y-61510000D02*
X158850000Y-61510000D01*
%TO.C,D1*%
X173890000Y-58537500D02*
X173890000Y-57887500D01*
X173890000Y-58537500D02*
X173890000Y-59187500D01*
X177010000Y-58537500D02*
X177010000Y-57887500D01*
X177010000Y-58537500D02*
X177010000Y-59187500D01*
X173940000Y-57375000D02*
X173610000Y-57615000D01*
X173610000Y-57135000D01*
X173940000Y-57375000D01*
G36*
X173940000Y-57375000D02*
G01*
X173610000Y-57615000D01*
X173610000Y-57135000D01*
X173940000Y-57375000D01*
G37*
%TO.C,C2*%
X178388748Y-63865000D02*
X178911252Y-63865000D01*
X178388748Y-65335000D02*
X178911252Y-65335000D01*
%TO.C,C5*%
X116011252Y-113265000D02*
X115488748Y-113265000D01*
X116011252Y-114735000D02*
X115488748Y-114735000D01*
%TO.C,R6*%
X118465000Y-120714564D02*
X118465000Y-120260436D01*
X119935000Y-120714564D02*
X119935000Y-120260436D01*
%TO.C,R10*%
X177665000Y-46314564D02*
X177665000Y-45860436D01*
X179135000Y-46314564D02*
X179135000Y-45860436D01*
%TO.C,C9*%
X177765000Y-58811252D02*
X177765000Y-58288748D01*
X179235000Y-58811252D02*
X179235000Y-58288748D01*
%TO.C,C14*%
X149865000Y-93088748D02*
X149865000Y-93611252D01*
X151335000Y-93088748D02*
X151335000Y-93611252D01*
%TO.C,D9*%
X113110000Y-52150000D02*
X110450000Y-52150000D01*
X113110000Y-52150000D02*
X113110000Y-53850000D01*
X113110000Y-53850000D02*
X110450000Y-53850000D01*
%TO.C,TPS3823-1*%
X114290000Y-117737500D02*
X114290000Y-116937500D01*
X114290000Y-117737500D02*
X114290000Y-118537500D01*
X117410000Y-117737500D02*
X117410000Y-116937500D01*
X117410000Y-117737500D02*
X117410000Y-118537500D01*
X114340000Y-116437500D02*
X114010000Y-116677500D01*
X114010000Y-116197500D01*
X114340000Y-116437500D01*
G36*
X114340000Y-116437500D02*
G01*
X114010000Y-116677500D01*
X114010000Y-116197500D01*
X114340000Y-116437500D01*
G37*
%TO.C,C19*%
X158850000Y-62390000D02*
X163060000Y-62390000D01*
X163060000Y-62390000D02*
X163060000Y-65410000D01*
X163060000Y-65410000D02*
X158850000Y-65410000D01*
%TO.C,D2*%
X112110000Y-99150000D02*
X109450000Y-99150000D01*
X112110000Y-99150000D02*
X112110000Y-100850000D01*
X112110000Y-100850000D02*
X109450000Y-100850000D01*
%TO.C,R11*%
X172665000Y-46314564D02*
X172665000Y-45860436D01*
X174135000Y-46314564D02*
X174135000Y-45860436D01*
%TO.C,C20*%
X158850000Y-50490000D02*
X163060000Y-50490000D01*
X163060000Y-50490000D02*
X163060000Y-53510000D01*
X163060000Y-53510000D02*
X158850000Y-53510000D01*
%TO.C,D8*%
X99450000Y-73315000D02*
X99450000Y-75975000D01*
X99450000Y-73315000D02*
X101150000Y-73315000D01*
X101150000Y-73315000D02*
X101150000Y-75975000D01*
%TO.C,C10*%
X154165000Y-93138748D02*
X154165000Y-93661252D01*
X155635000Y-93138748D02*
X155635000Y-93661252D01*
%TO.C,R28*%
X111360436Y-54865000D02*
X111814564Y-54865000D01*
X111360436Y-56335000D02*
X111814564Y-56335000D01*
%TD*%
M02*
