%TF.GenerationSoftware,KiCad,Pcbnew,9.0.0*%
%TF.CreationDate,2025-05-16T13:45:13+04:00*%
%TF.ProjectId,_1921__015,1a313932-3112-4133-9031-352e6b696361,rev?*%
%TF.SameCoordinates,Original*%
%TF.FileFunction,Paste,Top*%
%TF.FilePolarity,Positive*%
%FSLAX46Y46*%
G04 Gerber Fmt 4.6, Leading zero omitted, Abs format (unit mm)*
G04 Created by KiCad (PCBNEW 9.0.0) date 2025-05-16 13:45:13*
%MOMM*%
%LPD*%
G01*
G04 APERTURE LIST*
G04 Aperture macros list*
%AMRoundRect*
0 Rectangle with rounded corners*
0 $1 Rounding radius*
0 $2 $3 $4 $5 $6 $7 $8 $9 X,Y pos of 4 corners*
0 Add a 4 corners polygon primitive as box body*
4,1,4,$2,$3,$4,$5,$6,$7,$8,$9,$2,$3,0*
0 Add four circle primitives for the rounded corners*
1,1,$1+$1,$2,$3*
1,1,$1+$1,$4,$5*
1,1,$1+$1,$6,$7*
1,1,$1+$1,$8,$9*
0 Add four rect primitives between the rounded corners*
20,1,$1+$1,$2,$3,$4,$5,0*
20,1,$1+$1,$4,$5,$6,$7,0*
20,1,$1+$1,$6,$7,$8,$9,0*
20,1,$1+$1,$8,$9,$2,$3,0*%
G04 Aperture macros list end*
%ADD10RoundRect,0.250000X-0.525000X-0.250000X0.525000X-0.250000X0.525000X0.250000X-0.525000X0.250000X0*%
%ADD11RoundRect,0.120000X-0.180000X0.430000X-0.180000X-0.430000X0.180000X-0.430000X0.180000X0.430000X0*%
%ADD12RoundRect,0.250000X-0.475000X0.250000X-0.475000X-0.250000X0.475000X-0.250000X0.475000X0.250000X0*%
%ADD13RoundRect,0.250000X-0.450000X0.262500X-0.450000X-0.262500X0.450000X-0.262500X0.450000X0.262500X0*%
%ADD14RoundRect,0.375000X0.375000X-0.625000X0.375000X0.625000X-0.375000X0.625000X-0.375000X-0.625000X0*%
%ADD15RoundRect,0.500000X1.400000X-0.500000X1.400000X0.500000X-1.400000X0.500000X-1.400000X-0.500000X0*%
%ADD16RoundRect,0.243750X-0.456250X0.243750X-0.456250X-0.243750X0.456250X-0.243750X0.456250X0.243750X0*%
%ADD17R,1.800000X1.000000*%
%ADD18RoundRect,0.250000X-0.262500X-0.450000X0.262500X-0.450000X0.262500X0.450000X-0.262500X0.450000X0*%
%ADD19RoundRect,0.243750X0.456250X-0.243750X0.456250X0.243750X-0.456250X0.243750X-0.456250X-0.243750X0*%
%ADD20RoundRect,0.250000X-0.250000X-0.475000X0.250000X-0.475000X0.250000X0.475000X-0.250000X0.475000X0*%
%ADD21R,1.450000X0.600000*%
%ADD22R,1.450000X0.300000*%
%ADD23RoundRect,0.075000X-0.075000X0.725000X-0.075000X-0.725000X0.075000X-0.725000X0.075000X0.725000X0*%
%ADD24RoundRect,0.075000X-0.725000X0.075000X-0.725000X-0.075000X0.725000X-0.075000X0.725000X0.075000X0*%
%ADD25RoundRect,0.250000X0.525000X0.250000X-0.525000X0.250000X-0.525000X-0.250000X0.525000X-0.250000X0*%
%ADD26RoundRect,0.250000X-0.925000X0.412500X-0.925000X-0.412500X0.925000X-0.412500X0.925000X0.412500X0*%
%ADD27RoundRect,0.250000X0.450000X-0.262500X0.450000X0.262500X-0.450000X0.262500X-0.450000X-0.262500X0*%
%ADD28RoundRect,0.075000X-0.737500X-0.075000X0.737500X-0.075000X0.737500X0.075000X-0.737500X0.075000X0*%
%ADD29RoundRect,0.250000X-1.450000X0.312500X-1.450000X-0.312500X1.450000X-0.312500X1.450000X0.312500X0*%
%ADD30RoundRect,0.250000X0.250000X0.475000X-0.250000X0.475000X-0.250000X-0.475000X0.250000X-0.475000X0*%
%ADD31RoundRect,0.250000X0.475000X-0.250000X0.475000X0.250000X-0.475000X0.250000X-0.475000X-0.250000X0*%
%ADD32RoundRect,0.150000X0.650000X0.150000X-0.650000X0.150000X-0.650000X-0.150000X0.650000X-0.150000X0*%
%ADD33RoundRect,0.250000X-0.412500X-0.925000X0.412500X-0.925000X0.412500X0.925000X-0.412500X0.925000X0*%
G04 APERTURE END LIST*
D10*
%TO.C,SW2*%
X118050000Y-100300000D03*
X123300000Y-100300000D03*
X118050000Y-103500000D03*
X123300000Y-103500000D03*
%TD*%
D11*
%TO.C,FL1*%
X159600000Y-61350000D03*
X159600000Y-64050000D03*
X158600000Y-64050000D03*
X158600000Y-61350000D03*
%TD*%
D12*
%TO.C,C16*%
X159100000Y-53750000D03*
X159100000Y-55650000D03*
%TD*%
D13*
%TO.C,R32*%
X152700000Y-112900000D03*
X152700000Y-114725000D03*
%TD*%
D14*
%TO.C,U4*%
X104950000Y-73577500D03*
X107250000Y-73577500D03*
D15*
X107250000Y-67277500D03*
D14*
X109550000Y-73577500D03*
%TD*%
D13*
%TO.C,R9*%
X175900000Y-93662500D03*
X175900000Y-95487500D03*
%TD*%
D16*
%TO.C,D12*%
X154800000Y-109000000D03*
X154800000Y-110875000D03*
%TD*%
D13*
%TO.C,R8*%
X178225000Y-93687500D03*
X178225000Y-95512500D03*
%TD*%
D17*
%TO.C,Y2*%
X170900000Y-78650000D03*
X170900000Y-81150000D03*
%TD*%
D13*
%TO.C,R39*%
X145400000Y-50887500D03*
X145400000Y-52712500D03*
%TD*%
D18*
%TO.C,R25*%
X110575000Y-61450000D03*
X112400000Y-61450000D03*
%TD*%
D19*
%TO.C,D20*%
X145400000Y-57075000D03*
X145400000Y-55200000D03*
%TD*%
D20*
%TO.C,C3*%
X173350000Y-78800000D03*
X175250000Y-78800000D03*
%TD*%
D16*
%TO.C,D10*%
X159000000Y-108975000D03*
X159000000Y-110850000D03*
%TD*%
D10*
%TO.C,SW1*%
X118100000Y-109500000D03*
X123350000Y-109500000D03*
X118100000Y-112700000D03*
X123350000Y-112700000D03*
%TD*%
D13*
%TO.C,R36*%
X144300000Y-112875000D03*
X144300000Y-114700000D03*
%TD*%
D21*
%TO.C,P3*%
X106395000Y-55320000D03*
X106395000Y-56120000D03*
D22*
X106395000Y-57320000D03*
X106395000Y-58320000D03*
X106395000Y-58820000D03*
X106395000Y-59820000D03*
D21*
X106395000Y-61020000D03*
X106395000Y-61820000D03*
X106395000Y-61820000D03*
X106395000Y-61020000D03*
D22*
X106395000Y-60320000D03*
X106395000Y-59320000D03*
X106395000Y-57820000D03*
X106395000Y-56820000D03*
D21*
X106395000Y-56120000D03*
X106395000Y-55320000D03*
%TD*%
D23*
%TO.C,\u041A1921\u0412\u0413015-1*%
X158625000Y-76825000D03*
X158125000Y-76825000D03*
X157625000Y-76825000D03*
X157125000Y-76825000D03*
X156625000Y-76825000D03*
X156125000Y-76825000D03*
X155625000Y-76825000D03*
X155125000Y-76825000D03*
X154625000Y-76825000D03*
X154125000Y-76825000D03*
X153625000Y-76825000D03*
X153125000Y-76825000D03*
X152625000Y-76825000D03*
X152125000Y-76825000D03*
X151625000Y-76825000D03*
X151125000Y-76825000D03*
X150625000Y-76825000D03*
X150125000Y-76825000D03*
X149625000Y-76825000D03*
X149125000Y-76825000D03*
X148625000Y-76825000D03*
X148125000Y-76825000D03*
X147625000Y-76825000D03*
X147125000Y-76825000D03*
X146625000Y-76825000D03*
D24*
X144950000Y-78500000D03*
X144950000Y-79000000D03*
X144950000Y-79500000D03*
X144950000Y-80000000D03*
X144950000Y-80500000D03*
X144950000Y-81000000D03*
X144950000Y-81500000D03*
X144950000Y-82000000D03*
X144950000Y-82500000D03*
X144950000Y-83000000D03*
X144950000Y-83500000D03*
X144950000Y-84000000D03*
X144950000Y-84500000D03*
X144950000Y-85000000D03*
X144950000Y-85500000D03*
X144950000Y-86000000D03*
X144950000Y-86500000D03*
X144950000Y-87000000D03*
X144950000Y-87500000D03*
X144950000Y-88000000D03*
X144950000Y-88500000D03*
X144950000Y-89000000D03*
X144950000Y-89500000D03*
X144950000Y-90000000D03*
X144950000Y-90500000D03*
D23*
X146625000Y-92175000D03*
X147125000Y-92175000D03*
X147625000Y-92175000D03*
X148125000Y-92175000D03*
X148625000Y-92175000D03*
X149125000Y-92175000D03*
X149625000Y-92175000D03*
X150125000Y-92175000D03*
X150625000Y-92175000D03*
X151125000Y-92175000D03*
X151625000Y-92175000D03*
X152125000Y-92175000D03*
X152625000Y-92175000D03*
X153125000Y-92175000D03*
X153625000Y-92175000D03*
X154125000Y-92175000D03*
X154625000Y-92175000D03*
X155125000Y-92175000D03*
X155625000Y-92175000D03*
X156125000Y-92175000D03*
X156625000Y-92175000D03*
X157125000Y-92175000D03*
X157625000Y-92175000D03*
X158125000Y-92175000D03*
X158625000Y-92175000D03*
D24*
X160300000Y-90500000D03*
X160300000Y-90000000D03*
X160300000Y-89500000D03*
X160300000Y-89000000D03*
X160300000Y-88500000D03*
X160300000Y-88000000D03*
X160300000Y-87500000D03*
X160300000Y-87000000D03*
X160300000Y-86500000D03*
X160300000Y-86000000D03*
X160300000Y-85500000D03*
X160300000Y-85000000D03*
X160300000Y-84500000D03*
X160300000Y-84000000D03*
X160300000Y-83500000D03*
X160300000Y-83000000D03*
X160300000Y-82500000D03*
X160300000Y-82000000D03*
X160300000Y-81500000D03*
X160300000Y-81000000D03*
X160300000Y-80500000D03*
X160300000Y-80000000D03*
X160300000Y-79500000D03*
X160300000Y-79000000D03*
X160300000Y-78500000D03*
%TD*%
D19*
%TO.C,D21*%
X148000000Y-57100000D03*
X148000000Y-55225000D03*
%TD*%
D13*
%TO.C,R4*%
X182775000Y-93687500D03*
X182775000Y-95512500D03*
%TD*%
%TO.C,R37*%
X142200000Y-112875000D03*
X142200000Y-114700000D03*
%TD*%
D25*
%TO.C,SW3*%
X171100000Y-75200000D03*
X165850000Y-75200000D03*
X171100000Y-72000000D03*
X165850000Y-72000000D03*
%TD*%
D21*
%TO.C,P1*%
X106515000Y-79205000D03*
X106515000Y-80005000D03*
D22*
X106515000Y-81205000D03*
X106515000Y-82205000D03*
X106515000Y-82705000D03*
X106515000Y-83705000D03*
D21*
X106515000Y-84905000D03*
X106515000Y-85705000D03*
X106515000Y-85705000D03*
X106515000Y-84905000D03*
D22*
X106515000Y-84205000D03*
X106515000Y-83205000D03*
X106515000Y-81705000D03*
X106515000Y-80705000D03*
D21*
X106515000Y-80005000D03*
X106515000Y-79205000D03*
%TD*%
D16*
%TO.C,D17*%
X142200000Y-109025000D03*
X142200000Y-110900000D03*
%TD*%
D13*
%TO.C,R31*%
X154800000Y-112887500D03*
X154800000Y-114712500D03*
%TD*%
D26*
%TO.C,C26*%
X101700000Y-69237500D03*
X101700000Y-72312500D03*
%TD*%
D27*
%TO.C,R23*%
X116900000Y-72700000D03*
X116900000Y-70875000D03*
%TD*%
D13*
%TO.C,R38*%
X140100000Y-112852500D03*
X140100000Y-114677500D03*
%TD*%
D27*
%TO.C,R5*%
X173600000Y-95500000D03*
X173600000Y-93675000D03*
%TD*%
D13*
%TO.C,R29*%
X159000000Y-112887500D03*
X159000000Y-114712500D03*
%TD*%
D16*
%TO.C,D16*%
X144300000Y-109020000D03*
X144300000Y-110895000D03*
%TD*%
D13*
%TO.C,R35*%
X146400000Y-112875000D03*
X146400000Y-114700000D03*
%TD*%
D16*
%TO.C,D14*%
X150600000Y-109000000D03*
X150600000Y-110875000D03*
%TD*%
%TO.C,D6*%
X116900000Y-66937500D03*
X116900000Y-68812500D03*
%TD*%
D28*
%TO.C,U1*%
X110500000Y-83175000D03*
X110500000Y-83675000D03*
X110500000Y-84175000D03*
X110500000Y-84675000D03*
X110500000Y-85175000D03*
X114725000Y-85175000D03*
X114725000Y-84675000D03*
X114725000Y-84175000D03*
X114725000Y-83675000D03*
X114725000Y-83175000D03*
%TD*%
D29*
%TO.C,F1*%
X113200000Y-69600000D03*
X113200000Y-73875000D03*
%TD*%
D30*
%TO.C,C28*%
X113700000Y-80775000D03*
X111800000Y-80775000D03*
%TD*%
D16*
%TO.C,D18*%
X140100000Y-109025000D03*
X140100000Y-110900000D03*
%TD*%
%TO.C,D19*%
X148500000Y-109000000D03*
X148500000Y-110875000D03*
%TD*%
D12*
%TO.C,C22*%
X160440000Y-66380000D03*
X160440000Y-68280000D03*
%TD*%
D16*
%TO.C,D15*%
X146400000Y-109025000D03*
X146400000Y-110900000D03*
%TD*%
%TO.C,D11*%
X156900000Y-108975000D03*
X156900000Y-110850000D03*
%TD*%
D13*
%TO.C,R7*%
X180475000Y-93687500D03*
X180475000Y-95512500D03*
%TD*%
%TO.C,R30*%
X156900000Y-112900000D03*
X156900000Y-114725000D03*
%TD*%
D31*
%TO.C,C13*%
X167600000Y-81400000D03*
X167600000Y-79500000D03*
%TD*%
D13*
%TO.C,R40*%
X148000000Y-50987500D03*
X148000000Y-52812500D03*
%TD*%
D31*
%TO.C,C12*%
X165300000Y-81400000D03*
X165300000Y-79500000D03*
%TD*%
D18*
%TO.C,R24*%
X110675000Y-55600000D03*
X112500000Y-55600000D03*
%TD*%
D13*
%TO.C,R34*%
X148500000Y-112875000D03*
X148500000Y-114700000D03*
%TD*%
D20*
%TO.C,C4*%
X173350000Y-81000000D03*
X175250000Y-81000000D03*
%TD*%
D32*
%TO.C,U8*%
X112800000Y-59400000D03*
X112800000Y-58450000D03*
X112800000Y-57500000D03*
X110500000Y-57500000D03*
X110500000Y-58450000D03*
X110500000Y-59400000D03*
%TD*%
D12*
%TO.C,C21*%
X158270000Y-66340000D03*
X158270000Y-68240000D03*
%TD*%
D16*
%TO.C,D13*%
X152700000Y-109000000D03*
X152700000Y-110875000D03*
%TD*%
D33*
%TO.C,C27*%
X111362500Y-76875000D03*
X114437500Y-76875000D03*
%TD*%
D13*
%TO.C,R33*%
X150600000Y-112887500D03*
X150600000Y-114712500D03*
%TD*%
M02*
