M48
; DRILL file {KiCad 9.0.0} date 2025-05-15T14:37:20+0400
; FORMAT={-:-/ absolute / metric / decimal}
; #@! TF.CreationDate,2025-05-15T14:37:20+04:00
; #@! TF.GenerationSoftware,Kicad,Pcbnew,9.0.0
; #@! TF.FileFunction,Plated,1,2,PTH
FMAT,2
METRIC
; #@! TA.AperFunction,Plated,PTH,ViaDrill
T1C0.300
; #@! TA.AperFunction,Plated,PTH,ViaDrill
T2C0.400
; #@! TA.AperFunction,Plated,PTH,ViaDrill
T3C0.500
; #@! TA.AperFunction,Plated,PTH,ComponentDrill
T4C0.600
; #@! TA.AperFunction,Plated,PTH,ComponentDrill
T5C0.850
; #@! TA.AperFunction,Plated,PTH,ComponentDrill
T6C1.000
; #@! TA.AperFunction,Plated,PTH,ViaDrill
T7C3.000
%
G90
G05
T1
X103.6Y-84.975
X106.9Y-111.6
X107.5Y-119.2
X107.5Y-121.9
X107.6Y-49.9
X107.81Y-64.96
X108.26Y-82.007
X108.3Y-79.115
X108.5Y-84.675
X108.538Y-83.637
X109.0Y-59.4
X109.1Y-57.5
X109.3Y-53.1
X109.8Y-64.575
X109.8Y-79.275
X109.8Y-119.0
X112.0Y-86.875
X114.2Y-115.5
X114.3Y-58.45
X115.0Y-111.1
X115.7Y-104.7
X115.8Y-63.3
X116.3Y-60.2
X116.5Y-109.6
X116.784Y-84.039
X118.0Y-117.7
X120.6Y-117.4
X124.1Y-79.8
X124.1Y-82.3
X126.2Y-118.7
X127.1Y-87.6
X127.9Y-45.5
X128.6Y-54.7
X128.6Y-68.5
X129.2Y-106.5
X130.4Y-107.6
X131.4Y-54.7
X131.4Y-68.5
X133.9Y-54.7
X134.0Y-94.5
X134.239Y-68.5
X134.5Y-47.7
X134.85Y-91.55
X135.5Y-81.9
X136.0Y-117.2
X136.8Y-54.7
X136.8Y-68.5
X137.2Y-47.7
X138.7Y-79.7
X139.7Y-47.7
X141.1Y-82.4
X141.96Y-93.1
X142.0Y-94.6
X142.2Y-47.7
X142.4Y-80.4
X142.5Y-79.0
X142.7Y-91.6
X143.1Y-46.3
X144.0Y-77.1
X145.0Y-103.9
X145.6Y-45.7
X146.075Y-73.278
X146.176Y-70.276
X146.7Y-94.3
X146.8Y-69.5
X146.9Y-79.5
X147.0Y-78.4
X147.4Y-103.8
X147.7Y-68.9
X148.0Y-96.3
X148.4Y-79.4
X148.5Y-68.5
X148.5Y-101.5
X148.7Y-44.0
X149.3Y-68.9
X149.3Y-96.9
X149.42Y-62.72
X149.55Y-65.68
X149.6Y-101.3
X149.8Y-56.7
X149.849Y-88.2
X150.544Y-71.108
X150.8Y-88.8
X151.3Y-99.2
X151.498Y-83.875
X151.7Y-101.4
X151.956Y-83.2
X152.1Y-84.475
X152.127Y-87.6
X152.194Y-80.856
X152.554Y-85.14
X152.601Y-82.7
X152.669Y-81.5
X152.679Y-88.2
X152.9Y-49.3
X152.9Y-87.0
X153.04Y-85.775
X153.286Y-82.1
X153.307Y-88.9
X153.54Y-86.4
X153.7Y-57.5
X153.9Y-78.5
X153.989Y-89.4
X154.176Y-70.2
X154.55Y-72.35
X154.626Y-90.0
X155.326Y-69.8
X155.7Y-68.1
X155.8Y-45.4
X155.9Y-69.0
X156.5Y-54.7
X156.55Y-80.05
X156.7Y-56.5
X157.0Y-64.3
X157.3Y-79.3
X157.306Y-72.406
X158.2Y-70.4
X158.3Y-72.1
X159.0Y-49.6
X159.0Y-57.9
X159.0Y-72.6
X159.081Y-93.332
X159.42Y-73.285
X159.595Y-91.705
X159.988Y-73.885
X160.5Y-74.5
X160.8Y-45.0
X160.9Y-42.9
X161.012Y-75.115
X161.512Y-75.74
X162.9Y-115.4
X163.0Y-76.1
X163.1Y-42.9
X163.2Y-91.3
X164.0Y-115.4
X164.094Y-92.743
X164.2Y-93.9
X164.4Y-48.5
X165.1Y-115.4
X166.0Y-43.5
X166.2Y-115.4
X167.2Y-115.4
X167.5Y-96.2
X168.0Y-93.3
X168.2Y-115.4
X168.4Y-95.0
X168.9Y-52.13
X169.3Y-96.8
X169.9Y-95.6
X169.9Y-105.0
X170.4Y-92.5
X170.5Y-106.626
X171.2Y-68.8
X171.224Y-108.176
X171.824Y-109.605
X172.8Y-102.7
X173.5Y-103.5
X173.8Y-86.45
X174.0Y-65.9
X174.2Y-63.8
X174.2Y-104.3
X174.4Y-87.05
X175.0Y-87.65
X175.0Y-105.2
X175.05Y-61.75
X175.6Y-88.275
X176.2Y-88.876
X176.3Y-53.0
X176.9Y-89.476
X177.5Y-90.077
X178.1Y-90.692
X178.7Y-91.279
X179.4Y-91.9
X180.4Y-48.9
X180.8Y-51.5
X183.1Y-43.9
X187.0Y-48.5
X187.0Y-51.0
X187.0Y-53.6
X187.0Y-56.1
X187.5Y-58.5
X187.5Y-60.8
X187.5Y-63.4
X187.5Y-66.1
X187.5Y-68.4
X187.5Y-71.0
X187.5Y-73.7
X187.5Y-76.3
X187.5Y-78.6
X187.5Y-81.1
X187.8Y-83.0
T2
X145.5Y-93.1
T3
X103.2Y-55.8
X103.2Y-60.9
X105.0Y-70.375
X108.4Y-125.8
X109.4Y-70.475
X110.3Y-102.0
X110.3Y-112.7
X116.2Y-74.675
X116.3Y-87.5
X120.5Y-125.8
X123.5Y-42.8
X124.0Y-36.6
X126.2Y-106.5
X133.0Y-124.5
X134.9Y-114.8
X136.6Y-94.6
X136.6Y-98.2
X136.6Y-101.4
X136.6Y-104.9
X138.0Y-111.5
X138.1Y-118.4
X141.3Y-86.0
X142.0Y-117.8
X144.5Y-96.8
X155.0Y-102.9
X160.8Y-93.6
X160.9Y-109.3
X169.0Y-54.1
X170.0Y-47.4
X172.3Y-55.2
X175.3Y-73.0
X178.7Y-76.2
T5
X174.2Y-49.8
X174.2Y-70.3
T6
X102.36Y-91.4
X102.36Y-93.94
X102.36Y-100.24
X102.36Y-102.78
X102.36Y-105.32
X102.36Y-107.86
X102.36Y-110.4
X102.36Y-112.94
X102.36Y-115.48
X102.36Y-118.02
X102.36Y-120.56
X102.36Y-123.1
X104.9Y-91.4
X104.9Y-93.94
X104.9Y-100.24
X104.9Y-102.78
X104.9Y-105.32
X104.9Y-107.86
X104.9Y-110.4
X104.9Y-112.94
X104.9Y-115.48
X104.9Y-118.02
X104.9Y-120.56
X104.9Y-123.1
X119.1Y-56.395
X119.1Y-58.935
X119.1Y-61.475
X119.1Y-75.795
X119.1Y-78.335
X119.1Y-80.875
X119.1Y-83.415
X119.1Y-85.955
X121.64Y-56.395
X121.64Y-58.935
X121.64Y-61.475
X121.64Y-75.795
X121.64Y-78.335
X121.64Y-80.875
X121.64Y-83.415
X121.64Y-85.955
X126.6Y-38.46
X126.6Y-41.0
X126.66Y-128.0
X126.66Y-130.54
X129.14Y-38.46
X129.14Y-41.0
X129.2Y-128.0
X129.2Y-130.54
X131.68Y-38.46
X131.68Y-41.0
X131.74Y-128.0
X131.74Y-130.54
X132.7Y-109.945
X132.7Y-112.485
X132.7Y-115.025
X132.75Y-100.46
X132.75Y-103.0
X134.22Y-38.46
X134.22Y-41.0
X134.28Y-128.0
X134.28Y-130.54
X136.76Y-38.46
X136.76Y-41.0
X136.82Y-128.0
X136.82Y-130.54
X139.3Y-38.46
X139.3Y-41.0
X139.36Y-128.0
X139.36Y-130.54
X141.84Y-38.46
X141.84Y-41.0
X141.9Y-128.0
X141.9Y-130.54
X144.38Y-38.46
X144.38Y-41.0
X144.44Y-128.0
X144.44Y-130.54
X146.92Y-38.46
X146.92Y-41.0
X146.98Y-128.0
X146.98Y-130.54
X149.46Y-38.46
X149.46Y-41.0
X149.52Y-128.0
X149.52Y-130.54
X152.0Y-38.46
X152.0Y-41.0
X152.06Y-128.0
X152.06Y-130.54
X154.54Y-38.46
X154.54Y-41.0
X154.6Y-128.0
X154.6Y-130.54
X154.7Y-50.82
X154.7Y-53.36
X154.7Y-55.9
X154.7Y-60.895
X154.7Y-63.435
X157.08Y-38.46
X157.08Y-41.0
X157.14Y-128.0
X157.14Y-130.54
X159.62Y-38.46
X159.62Y-41.0
X159.68Y-128.0
X159.68Y-130.54
X162.16Y-38.46
X162.16Y-41.0
X162.22Y-128.0
X162.22Y-130.54
X164.7Y-38.46
X164.7Y-41.0
X164.76Y-128.0
X164.76Y-130.54
X167.24Y-38.46
X167.24Y-41.0
X167.3Y-128.0
X167.3Y-130.54
X169.78Y-38.46
X169.78Y-41.0
X169.84Y-128.0
X169.84Y-130.54
X172.32Y-38.46
X172.32Y-41.0
X172.38Y-128.0
X172.38Y-130.54
X174.86Y-38.46
X174.86Y-41.0
X174.92Y-128.0
X174.92Y-130.54
X177.4Y-38.46
X177.4Y-41.0
X177.46Y-128.0
X177.46Y-130.54
X179.94Y-38.46
X179.94Y-41.0
X180.0Y-128.0
X180.0Y-130.54
X189.65Y-44.59
X189.65Y-47.13
X189.65Y-49.67
X189.65Y-52.21
X189.65Y-54.75
X189.65Y-57.29
X189.65Y-59.83
X189.65Y-62.37
X189.65Y-64.91
X189.65Y-67.45
X189.65Y-69.99
X189.65Y-72.53
X189.65Y-75.07
X189.65Y-77.61
X189.65Y-80.15
X189.65Y-82.69
X189.66Y-86.3
X189.66Y-88.84
X189.66Y-91.38
X189.66Y-93.92
X189.66Y-96.46
X189.66Y-99.0
X189.66Y-101.54
X189.66Y-104.08
X189.66Y-106.62
X189.66Y-109.16
X189.66Y-111.7
X189.66Y-114.24
X189.66Y-116.78
X189.66Y-119.32
X189.66Y-121.86
X189.66Y-124.4
X192.19Y-44.59
X192.19Y-47.13
X192.19Y-49.67
X192.19Y-52.21
X192.19Y-54.75
X192.19Y-57.29
X192.19Y-59.83
X192.19Y-62.37
X192.19Y-64.91
X192.19Y-67.45
X192.19Y-69.99
X192.19Y-72.53
X192.19Y-75.07
X192.19Y-77.61
X192.19Y-80.15
X192.19Y-82.69
X192.2Y-86.3
X192.2Y-88.84
X192.2Y-91.38
X192.2Y-93.92
X192.2Y-96.46
X192.2Y-99.0
X192.2Y-101.54
X192.2Y-104.08
X192.2Y-106.62
X192.2Y-109.16
X192.2Y-111.7
X192.2Y-114.24
X192.2Y-116.78
X192.2Y-119.32
X192.2Y-121.86
X192.2Y-124.4
T7
X103.3Y-39.5
X103.3Y-129.5
X193.3Y-39.5
X193.3Y-129.5
T4
G00X101.6Y-54.25
M15
G01X101.0Y-54.25
M16
G05
G00X101.6Y-62.89
M15
G01X101.0Y-62.89
M16
G05
G00X101.72Y-78.135
M15
G01X101.12Y-78.135
M16
G05
G00X101.72Y-86.775
M15
G01X101.12Y-86.775
M16
G05
G00X106.03Y-54.25
M15
G01X104.93Y-54.25
M16
G05
G00X106.03Y-62.89
M15
G01X104.93Y-62.89
M16
G05
G00X106.15Y-78.135
M15
G01X105.05Y-78.135
M16
G05
G00X106.15Y-86.775
M15
G01X105.05Y-86.775
M16
G05
T6
G00X110.5Y-47.0
M15
G01X110.5Y-44.8
M16
G05
G00X116.4Y-42.5
M15
G01X114.2Y-42.5
M16
G05
G00X116.6Y-48.8
M15
G01X114.0Y-48.8
M16
G05
M30
