%TF.GenerationSoftware,KiCad,Pcbnew,9.0.0*%
%TF.CreationDate,2025-05-16T13:45:13+04:00*%
%TF.ProjectId,_1921__015,1a313932-3112-4133-9031-352e6b696361,rev?*%
%TF.SameCoordinates,Original*%
%TF.FileFunction,Paste,Bot*%
%TF.FilePolarity,Positive*%
%FSLAX46Y46*%
G04 Gerber Fmt 4.6, Leading zero omitted, Abs format (unit mm)*
G04 Created by KiCad (PCBNEW 9.0.0) date 2025-05-16 13:45:13*
%MOMM*%
%LPD*%
G01*
G04 APERTURE LIST*
G04 Aperture macros list*
%AMRoundRect*
0 Rectangle with rounded corners*
0 $1 Rounding radius*
0 $2 $3 $4 $5 $6 $7 $8 $9 X,Y pos of 4 corners*
0 Add a 4 corners polygon primitive as box body*
4,1,4,$2,$3,$4,$5,$6,$7,$8,$9,$2,$3,0*
0 Add four circle primitives for the rounded corners*
1,1,$1+$1,$2,$3*
1,1,$1+$1,$4,$5*
1,1,$1+$1,$6,$7*
1,1,$1+$1,$8,$9*
0 Add four rect primitives between the rounded corners*
20,1,$1+$1,$2,$3,$4,$5,0*
20,1,$1+$1,$4,$5,$6,$7,0*
20,1,$1+$1,$6,$7,$8,$9,0*
20,1,$1+$1,$8,$9,$2,$3,0*%
G04 Aperture macros list end*
%ADD10RoundRect,0.250000X0.262500X0.450000X-0.262500X0.450000X-0.262500X-0.450000X0.262500X-0.450000X0*%
%ADD11RoundRect,0.250000X0.450000X-0.262500X0.450000X0.262500X-0.450000X0.262500X-0.450000X-0.262500X0*%
%ADD12RoundRect,0.250000X-0.450000X0.262500X-0.450000X-0.262500X0.450000X-0.262500X0.450000X0.262500X0*%
%ADD13R,1.200000X1.400000*%
%ADD14RoundRect,0.112500X0.112500X-0.187500X0.112500X0.187500X-0.112500X0.187500X-0.112500X-0.187500X0*%
%ADD15RoundRect,0.250000X-0.475000X0.250000X-0.475000X-0.250000X0.475000X-0.250000X0.475000X0.250000X0*%
%ADD16RoundRect,0.150000X-0.650000X-0.150000X0.650000X-0.150000X0.650000X0.150000X-0.650000X0.150000X0*%
%ADD17RoundRect,0.250000X-0.250000X-0.475000X0.250000X-0.475000X0.250000X0.475000X-0.250000X0.475000X0*%
%ADD18RoundRect,0.250000X0.475000X-0.250000X0.475000X0.250000X-0.475000X0.250000X-0.475000X-0.250000X0*%
%ADD19RoundRect,0.250000X0.412500X0.925000X-0.412500X0.925000X-0.412500X-0.925000X0.412500X-0.925000X0*%
%ADD20RoundRect,0.150000X-0.150000X0.587500X-0.150000X-0.587500X0.150000X-0.587500X0.150000X0.587500X0*%
%ADD21RoundRect,0.250000X0.250000X0.475000X-0.250000X0.475000X-0.250000X-0.475000X0.250000X-0.475000X0*%
%ADD22RoundRect,0.112500X0.187500X0.112500X-0.187500X0.112500X-0.187500X-0.112500X0.187500X-0.112500X0*%
%ADD23RoundRect,0.150000X-0.150000X0.512500X-0.150000X-0.512500X0.150000X-0.512500X0.150000X0.512500X0*%
%ADD24RoundRect,0.112500X-0.112500X0.187500X-0.112500X-0.187500X0.112500X-0.187500X0.112500X0.187500X0*%
%ADD25RoundRect,0.250000X-0.262500X-0.450000X0.262500X-0.450000X0.262500X0.450000X-0.262500X0.450000X0*%
G04 APERTURE END LIST*
D10*
%TO.C,R26*%
X112412500Y-61450000D03*
X110587500Y-61450000D03*
%TD*%
D11*
%TO.C,R3*%
X175400000Y-66712500D03*
X175400000Y-64887500D03*
%TD*%
%TO.C,R12*%
X175900000Y-47000000D03*
X175900000Y-45175000D03*
%TD*%
D12*
%TO.C,R1*%
X146700000Y-98000000D03*
X146700000Y-99825000D03*
%TD*%
%TO.C,R27*%
X111700000Y-57550000D03*
X111700000Y-59375000D03*
%TD*%
D13*
%TO.C,Y1*%
X172900000Y-64800000D03*
X172900000Y-67000000D03*
X171200000Y-67000000D03*
X171200000Y-64800000D03*
%TD*%
D14*
%TO.C,D7*%
X119100000Y-53375000D03*
X119100000Y-51275000D03*
%TD*%
D11*
%TO.C,R2*%
X149300000Y-99825000D03*
X149300000Y-98000000D03*
%TD*%
D10*
%TO.C,R15*%
X110825000Y-86775000D03*
X109000000Y-86775000D03*
%TD*%
D15*
%TO.C,C11*%
X157300000Y-92450000D03*
X157300000Y-94350000D03*
%TD*%
D16*
%TO.C,U3*%
X109860000Y-84615000D03*
X109860000Y-83665000D03*
X109860000Y-82715000D03*
X112160000Y-82715000D03*
X112160000Y-83665000D03*
X112160000Y-84615000D03*
%TD*%
D17*
%TO.C,C7*%
X114950000Y-121200000D03*
X116850000Y-121200000D03*
%TD*%
D15*
%TO.C,C15*%
X148200000Y-92400000D03*
X148200000Y-94300000D03*
%TD*%
D18*
%TO.C,C8*%
X172400000Y-59500000D03*
X172400000Y-57600000D03*
%TD*%
D10*
%TO.C,R16*%
X110960000Y-80515000D03*
X109135000Y-80515000D03*
%TD*%
D19*
%TO.C,C17*%
X162137500Y-56000000D03*
X159062500Y-56000000D03*
%TD*%
D17*
%TO.C,C1*%
X177700000Y-67100000D03*
X179600000Y-67100000D03*
%TD*%
D19*
%TO.C,C18*%
X162137500Y-60000000D03*
X159062500Y-60000000D03*
%TD*%
D20*
%TO.C,D1*%
X174500000Y-57600000D03*
X176400000Y-57600000D03*
X175450000Y-59475000D03*
%TD*%
D17*
%TO.C,C2*%
X177700000Y-64600000D03*
X179600000Y-64600000D03*
%TD*%
D21*
%TO.C,C5*%
X116700000Y-114000000D03*
X114800000Y-114000000D03*
%TD*%
D11*
%TO.C,R6*%
X119200000Y-121400000D03*
X119200000Y-119575000D03*
%TD*%
%TO.C,R10*%
X178400000Y-47000000D03*
X178400000Y-45175000D03*
%TD*%
D18*
%TO.C,C9*%
X178500000Y-59500000D03*
X178500000Y-57600000D03*
%TD*%
D15*
%TO.C,C14*%
X150600000Y-92400000D03*
X150600000Y-94300000D03*
%TD*%
D22*
%TO.C,D9*%
X112550000Y-53000000D03*
X110450000Y-53000000D03*
%TD*%
D23*
%TO.C,TPS3823-1*%
X114900000Y-116600000D03*
X115850000Y-116600000D03*
X116800000Y-116600000D03*
X116800000Y-118875000D03*
X114900000Y-118875000D03*
%TD*%
D19*
%TO.C,C19*%
X162137500Y-63900000D03*
X159062500Y-63900000D03*
%TD*%
D11*
%TO.C,R11*%
X173400000Y-47000000D03*
X173400000Y-45175000D03*
%TD*%
D19*
%TO.C,C20*%
X162137500Y-52000000D03*
X159062500Y-52000000D03*
%TD*%
D24*
%TO.C,D8*%
X100300000Y-73875000D03*
X100300000Y-75975000D03*
%TD*%
D15*
%TO.C,C10*%
X154900000Y-92450000D03*
X154900000Y-94350000D03*
%TD*%
D25*
%TO.C,R28*%
X110675000Y-55600000D03*
X112500000Y-55600000D03*
%TD*%
M02*
