%TF.GenerationSoftware,KiCad,Pcbnew,9.0.0*%
%TF.CreationDate,2025-05-20T14:46:27+04:00*%
%TF.ProjectId,_1921__015,1a313932-3112-4133-9031-352e6b696361,rev?*%
%TF.SameCoordinates,Original*%
%TF.FileFunction,Soldermask,Top*%
%TF.FilePolarity,Negative*%
%FSLAX46Y46*%
G04 Gerber Fmt 4.6, Leading zero omitted, Abs format (unit mm)*
G04 Created by KiCad (PCBNEW 9.0.0) date 2025-05-20 14:46:27*
%MOMM*%
%LPD*%
G01*
G04 APERTURE LIST*
G04 Aperture macros list*
%AMRoundRect*
0 Rectangle with rounded corners*
0 $1 Rounding radius*
0 $2 $3 $4 $5 $6 $7 $8 $9 X,Y pos of 4 corners*
0 Add a 4 corners polygon primitive as box body*
4,1,4,$2,$3,$4,$5,$6,$7,$8,$9,$2,$3,0*
0 Add four circle primitives for the rounded corners*
1,1,$1+$1,$2,$3*
1,1,$1+$1,$4,$5*
1,1,$1+$1,$6,$7*
1,1,$1+$1,$8,$9*
0 Add four rect primitives between the rounded corners*
20,1,$1+$1,$2,$3,$4,$5,0*
20,1,$1+$1,$4,$5,$6,$7,0*
20,1,$1+$1,$6,$7,$8,$9,0*
20,1,$1+$1,$8,$9,$2,$3,0*%
%AMFreePoly0*
4,1,6,1.000000,0.000000,0.500000,-0.750000,-0.500000,-0.750000,-0.500000,0.750000,0.500000,0.750000,1.000000,0.000000,1.000000,0.000000,$1*%
G04 Aperture macros list end*
%ADD10RoundRect,0.250000X-0.525000X-0.250000X0.525000X-0.250000X0.525000X0.250000X-0.525000X0.250000X0*%
%ADD11R,1.700000X1.700000*%
%ADD12O,1.700000X1.700000*%
%ADD13FreePoly0,90.000000*%
%ADD14FreePoly0,270.000000*%
%ADD15RoundRect,0.120000X-0.180000X0.430000X-0.180000X-0.430000X0.180000X-0.430000X0.180000X0.430000X0*%
%ADD16RoundRect,0.250000X-0.475000X0.250000X-0.475000X-0.250000X0.475000X-0.250000X0.475000X0.250000X0*%
%ADD17RoundRect,0.250000X-0.450000X0.262500X-0.450000X-0.262500X0.450000X-0.262500X0.450000X0.262500X0*%
%ADD18RoundRect,0.375000X0.375000X-0.625000X0.375000X0.625000X-0.375000X0.625000X-0.375000X-0.625000X0*%
%ADD19RoundRect,0.500000X1.400000X-0.500000X1.400000X0.500000X-1.400000X0.500000X-1.400000X-0.500000X0*%
%ADD20RoundRect,0.243750X-0.456250X0.243750X-0.456250X-0.243750X0.456250X-0.243750X0.456250X0.243750X0*%
%ADD21R,1.800000X1.000000*%
%ADD22RoundRect,0.250000X-0.262500X-0.450000X0.262500X-0.450000X0.262500X0.450000X-0.262500X0.450000X0*%
%ADD23RoundRect,0.243750X0.456250X-0.243750X0.456250X0.243750X-0.456250X0.243750X-0.456250X-0.243750X0*%
%ADD24RoundRect,0.250000X-0.250000X-0.475000X0.250000X-0.475000X0.250000X0.475000X-0.250000X0.475000X0*%
%ADD25C,0.650000*%
%ADD26R,1.450000X0.600000*%
%ADD27R,1.450000X0.300000*%
%ADD28O,2.100000X1.000000*%
%ADD29O,1.600000X1.000000*%
%ADD30RoundRect,0.075000X-0.075000X0.725000X-0.075000X-0.725000X0.075000X-0.725000X0.075000X0.725000X0*%
%ADD31RoundRect,0.075000X-0.725000X0.075000X-0.725000X-0.075000X0.725000X-0.075000X0.725000X0.075000X0*%
%ADD32RoundRect,0.250000X0.525000X0.250000X-0.525000X0.250000X-0.525000X-0.250000X0.525000X-0.250000X0*%
%ADD33R,2.000000X1.600000*%
%ADD34O,2.000000X1.600000*%
%ADD35RoundRect,0.250000X-0.925000X0.412500X-0.925000X-0.412500X0.925000X-0.412500X0.925000X0.412500X0*%
%ADD36RoundRect,0.250000X0.450000X-0.262500X0.450000X0.262500X-0.450000X0.262500X-0.450000X-0.262500X0*%
%ADD37RoundRect,0.075000X-0.737500X-0.075000X0.737500X-0.075000X0.737500X0.075000X-0.737500X0.075000X0*%
%ADD38RoundRect,0.250000X-1.450000X0.312500X-1.450000X-0.312500X1.450000X-0.312500X1.450000X0.312500X0*%
%ADD39RoundRect,0.250000X0.250000X0.475000X-0.250000X0.475000X-0.250000X-0.475000X0.250000X-0.475000X0*%
%ADD40C,1.700000*%
%ADD41RoundRect,0.250000X0.475000X-0.250000X0.475000X0.250000X-0.475000X0.250000X-0.475000X-0.250000X0*%
%ADD42R,4.600000X2.000000*%
%ADD43O,4.200000X2.000000*%
%ADD44O,2.000000X4.200000*%
%ADD45RoundRect,0.150000X0.650000X0.150000X-0.650000X0.150000X-0.650000X-0.150000X0.650000X-0.150000X0*%
%ADD46RoundRect,0.250000X-0.412500X-0.925000X0.412500X-0.925000X0.412500X0.925000X-0.412500X0.925000X0*%
%ADD47C,6.000000*%
G04 APERTURE END LIST*
%TO.C,JP1*%
G36*
X113150000Y-109200000D02*
G01*
X114650000Y-109200000D01*
X114650000Y-104200000D01*
X113150000Y-104200000D01*
X113150000Y-109200000D01*
G37*
%TD*%
D10*
%TO.C,SW2*%
X118050000Y-100300000D03*
X123300000Y-100300000D03*
X118050000Y-103500000D03*
X123300000Y-103500000D03*
%TD*%
D11*
%TO.C,J12*%
X154700000Y-60895000D03*
D12*
X154700000Y-63435000D03*
%TD*%
D11*
%TO.C,J3*%
X132700000Y-115025000D03*
D12*
X132700000Y-112485000D03*
X132700000Y-109945000D03*
%TD*%
D13*
%TO.C,JP1*%
X113900000Y-108700000D03*
D14*
X113900000Y-104700000D03*
%TD*%
D15*
%TO.C,FL1*%
X159600000Y-61350000D03*
X159600000Y-64050000D03*
X158600000Y-64050000D03*
X158600000Y-61350000D03*
%TD*%
D16*
%TO.C,C16*%
X159100000Y-53750000D03*
X159100000Y-55650000D03*
%TD*%
D17*
%TO.C,R32*%
X152700000Y-112900000D03*
X152700000Y-114725000D03*
%TD*%
D18*
%TO.C,U4*%
X104950000Y-73577500D03*
X107250000Y-73577500D03*
D19*
X107250000Y-67277500D03*
D18*
X109550000Y-73577500D03*
%TD*%
D11*
%TO.C,J5*%
X189650000Y-44590000D03*
D12*
X192190000Y-44590000D03*
X189650000Y-47130000D03*
X192190000Y-47130000D03*
X189650000Y-49670000D03*
X192190000Y-49670000D03*
X189650000Y-52210000D03*
X192190000Y-52210000D03*
X189650000Y-54750000D03*
X192190000Y-54750000D03*
X189650000Y-57290000D03*
X192190000Y-57290000D03*
X189650000Y-59830000D03*
X192190000Y-59830000D03*
X189650000Y-62370000D03*
X192190000Y-62370000D03*
X189650000Y-64910000D03*
X192190000Y-64910000D03*
X189650000Y-67450000D03*
X192190000Y-67450000D03*
X189650000Y-69990000D03*
X192190000Y-69990000D03*
X189650000Y-72530000D03*
X192190000Y-72530000D03*
X189650000Y-75070000D03*
X192190000Y-75070000D03*
X189650000Y-77610000D03*
X192190000Y-77610000D03*
X189650000Y-80150000D03*
X192190000Y-80150000D03*
X189650000Y-82690000D03*
X192190000Y-82690000D03*
%TD*%
D17*
%TO.C,R9*%
X175900000Y-93662500D03*
X175900000Y-95487500D03*
%TD*%
D20*
%TO.C,D12*%
X154800000Y-109000000D03*
X154800000Y-110875000D03*
%TD*%
D17*
%TO.C,R8*%
X178225000Y-93687500D03*
X178225000Y-95512500D03*
%TD*%
D21*
%TO.C,Y2*%
X170900000Y-78650000D03*
X170900000Y-81150000D03*
%TD*%
D17*
%TO.C,R39*%
X145400000Y-50887500D03*
X145400000Y-52712500D03*
%TD*%
D11*
%TO.C,J11*%
X119500000Y-75795000D03*
D12*
X122040000Y-75795000D03*
X119500000Y-78335000D03*
X122040000Y-78335000D03*
X119500000Y-80875000D03*
X122040000Y-80875000D03*
X119500000Y-83415000D03*
X122040000Y-83415000D03*
X119500000Y-85955000D03*
X122040000Y-85955000D03*
%TD*%
D22*
%TO.C,R25*%
X110575000Y-61450000D03*
X112400000Y-61450000D03*
%TD*%
D23*
%TO.C,D20*%
X145400000Y-57075000D03*
X145400000Y-55200000D03*
%TD*%
D24*
%TO.C,C3*%
X173350000Y-78800000D03*
X175250000Y-78800000D03*
%TD*%
D20*
%TO.C,D10*%
X159000000Y-108975000D03*
X159000000Y-110850000D03*
%TD*%
D10*
%TO.C,SW1*%
X118100000Y-109500000D03*
X123350000Y-109500000D03*
X118100000Y-112700000D03*
X123350000Y-112700000D03*
%TD*%
D17*
%TO.C,R36*%
X144300000Y-112875000D03*
X144300000Y-114700000D03*
%TD*%
D25*
%TO.C,P3*%
X104950000Y-55680000D03*
X104950000Y-61460000D03*
D26*
X106395000Y-55320000D03*
X106395000Y-56120000D03*
D27*
X106395000Y-57320000D03*
X106395000Y-58320000D03*
X106395000Y-58820000D03*
X106395000Y-59820000D03*
D26*
X106395000Y-61020000D03*
X106395000Y-61820000D03*
X106395000Y-61820000D03*
X106395000Y-61020000D03*
D27*
X106395000Y-60320000D03*
X106395000Y-59320000D03*
X106395000Y-57820000D03*
X106395000Y-56820000D03*
D26*
X106395000Y-56120000D03*
X106395000Y-55320000D03*
D28*
X105480000Y-54250000D03*
D29*
X101300000Y-54250000D03*
D28*
X105480000Y-62890000D03*
D29*
X101300000Y-62890000D03*
%TD*%
D30*
%TO.C,\u041A1921\u0412\u0413015-1*%
X158625000Y-76825000D03*
X158125000Y-76825000D03*
X157625000Y-76825000D03*
X157125000Y-76825000D03*
X156625000Y-76825000D03*
X156125000Y-76825000D03*
X155625000Y-76825000D03*
X155125000Y-76825000D03*
X154625000Y-76825000D03*
X154125000Y-76825000D03*
X153625000Y-76825000D03*
X153125000Y-76825000D03*
X152625000Y-76825000D03*
X152125000Y-76825000D03*
X151625000Y-76825000D03*
X151125000Y-76825000D03*
X150625000Y-76825000D03*
X150125000Y-76825000D03*
X149625000Y-76825000D03*
X149125000Y-76825000D03*
X148625000Y-76825000D03*
X148125000Y-76825000D03*
X147625000Y-76825000D03*
X147125000Y-76825000D03*
X146625000Y-76825000D03*
D31*
X144950000Y-78500000D03*
X144950000Y-79000000D03*
X144950000Y-79500000D03*
X144950000Y-80000000D03*
X144950000Y-80500000D03*
X144950000Y-81000000D03*
X144950000Y-81500000D03*
X144950000Y-82000000D03*
X144950000Y-82500000D03*
X144950000Y-83000000D03*
X144950000Y-83500000D03*
X144950000Y-84000000D03*
X144950000Y-84500000D03*
X144950000Y-85000000D03*
X144950000Y-85500000D03*
X144950000Y-86000000D03*
X144950000Y-86500000D03*
X144950000Y-87000000D03*
X144950000Y-87500000D03*
X144950000Y-88000000D03*
X144950000Y-88500000D03*
X144950000Y-89000000D03*
X144950000Y-89500000D03*
X144950000Y-90000000D03*
X144950000Y-90500000D03*
D30*
X146625000Y-92175000D03*
X147125000Y-92175000D03*
X147625000Y-92175000D03*
X148125000Y-92175000D03*
X148625000Y-92175000D03*
X149125000Y-92175000D03*
X149625000Y-92175000D03*
X150125000Y-92175000D03*
X150625000Y-92175000D03*
X151125000Y-92175000D03*
X151625000Y-92175000D03*
X152125000Y-92175000D03*
X152625000Y-92175000D03*
X153125000Y-92175000D03*
X153625000Y-92175000D03*
X154125000Y-92175000D03*
X154625000Y-92175000D03*
X155125000Y-92175000D03*
X155625000Y-92175000D03*
X156125000Y-92175000D03*
X156625000Y-92175000D03*
X157125000Y-92175000D03*
X157625000Y-92175000D03*
X158125000Y-92175000D03*
X158625000Y-92175000D03*
D31*
X160300000Y-90500000D03*
X160300000Y-90000000D03*
X160300000Y-89500000D03*
X160300000Y-89000000D03*
X160300000Y-88500000D03*
X160300000Y-88000000D03*
X160300000Y-87500000D03*
X160300000Y-87000000D03*
X160300000Y-86500000D03*
X160300000Y-86000000D03*
X160300000Y-85500000D03*
X160300000Y-85000000D03*
X160300000Y-84500000D03*
X160300000Y-84000000D03*
X160300000Y-83500000D03*
X160300000Y-83000000D03*
X160300000Y-82500000D03*
X160300000Y-82000000D03*
X160300000Y-81500000D03*
X160300000Y-81000000D03*
X160300000Y-80500000D03*
X160300000Y-80000000D03*
X160300000Y-79500000D03*
X160300000Y-79000000D03*
X160300000Y-78500000D03*
%TD*%
D11*
%TO.C,J7*%
X179940000Y-38460000D03*
D12*
X179940000Y-41000000D03*
X177400000Y-38460000D03*
X177400000Y-41000000D03*
X174860000Y-38460000D03*
X174860000Y-41000000D03*
X172320000Y-38460000D03*
X172320000Y-41000000D03*
X169780000Y-38460000D03*
X169780000Y-41000000D03*
X167240000Y-38460000D03*
X167240000Y-41000000D03*
X164700000Y-38460000D03*
X164700000Y-41000000D03*
X162160000Y-38460000D03*
X162160000Y-41000000D03*
X159620000Y-38460000D03*
X159620000Y-41000000D03*
X157080000Y-38460000D03*
X157080000Y-41000000D03*
X154540000Y-38460000D03*
X154540000Y-41000000D03*
X152000000Y-38460000D03*
X152000000Y-41000000D03*
X149460000Y-38460000D03*
X149460000Y-41000000D03*
X146920000Y-38460000D03*
X146920000Y-41000000D03*
X144380000Y-38460000D03*
X144380000Y-41000000D03*
X141840000Y-38460000D03*
X141840000Y-41000000D03*
X139300000Y-38460000D03*
X139300000Y-41000000D03*
X136760000Y-38460000D03*
X136760000Y-41000000D03*
X134220000Y-38460000D03*
X134220000Y-41000000D03*
X131680000Y-38460000D03*
X131680000Y-41000000D03*
X129140000Y-38460000D03*
X129140000Y-41000000D03*
X126600000Y-38460000D03*
X126600000Y-41000000D03*
%TD*%
D23*
%TO.C,D21*%
X148000000Y-57100000D03*
X148000000Y-55225000D03*
%TD*%
D17*
%TO.C,R4*%
X182775000Y-93687500D03*
X182775000Y-95512500D03*
%TD*%
D11*
%TO.C,J2*%
X104900000Y-123100000D03*
D12*
X102360000Y-123100000D03*
X104900000Y-120560000D03*
X102360000Y-120560000D03*
X104900000Y-118020000D03*
X102360000Y-118020000D03*
X104900000Y-115480000D03*
X102360000Y-115480000D03*
X104900000Y-112940000D03*
X102360000Y-112940000D03*
X104900000Y-110400000D03*
X102360000Y-110400000D03*
X104900000Y-107860000D03*
X102360000Y-107860000D03*
X104900000Y-105320000D03*
X102360000Y-105320000D03*
X104900000Y-102780000D03*
X102360000Y-102780000D03*
X104900000Y-100240000D03*
X102360000Y-100240000D03*
%TD*%
D17*
%TO.C,R37*%
X142200000Y-112875000D03*
X142200000Y-114700000D03*
%TD*%
D32*
%TO.C,SW3*%
X171100000Y-75200000D03*
X165850000Y-75200000D03*
X171100000Y-72000000D03*
X165850000Y-72000000D03*
%TD*%
D25*
%TO.C,P1*%
X105070000Y-79565000D03*
X105070000Y-85345000D03*
D26*
X106515000Y-79205000D03*
X106515000Y-80005000D03*
D27*
X106515000Y-81205000D03*
X106515000Y-82205000D03*
X106515000Y-82705000D03*
X106515000Y-83705000D03*
D26*
X106515000Y-84905000D03*
X106515000Y-85705000D03*
X106515000Y-85705000D03*
X106515000Y-84905000D03*
D27*
X106515000Y-84205000D03*
X106515000Y-83205000D03*
X106515000Y-81705000D03*
X106515000Y-80705000D03*
D26*
X106515000Y-80005000D03*
X106515000Y-79205000D03*
D28*
X105600000Y-78135000D03*
D29*
X101420000Y-78135000D03*
D28*
X105600000Y-86775000D03*
D29*
X101420000Y-86775000D03*
%TD*%
D33*
%TO.C,BT1*%
X174200000Y-49800000D03*
D34*
X174200000Y-70300000D03*
%TD*%
D20*
%TO.C,D17*%
X142200000Y-109025000D03*
X142200000Y-110900000D03*
%TD*%
D17*
%TO.C,R31*%
X154800000Y-112887500D03*
X154800000Y-114712500D03*
%TD*%
D35*
%TO.C,C26*%
X101700000Y-69237500D03*
X101700000Y-72312500D03*
%TD*%
D36*
%TO.C,R23*%
X116900000Y-72700000D03*
X116900000Y-70875000D03*
%TD*%
D17*
%TO.C,R38*%
X140100000Y-112852500D03*
X140100000Y-114677500D03*
%TD*%
D36*
%TO.C,R5*%
X173600000Y-95500000D03*
X173600000Y-93675000D03*
%TD*%
D17*
%TO.C,R29*%
X159000000Y-112887500D03*
X159000000Y-114712500D03*
%TD*%
D20*
%TO.C,D16*%
X144300000Y-109020000D03*
X144300000Y-110895000D03*
%TD*%
D17*
%TO.C,R35*%
X146400000Y-112875000D03*
X146400000Y-114700000D03*
%TD*%
D20*
%TO.C,D14*%
X150600000Y-109000000D03*
X150600000Y-110875000D03*
%TD*%
%TO.C,D6*%
X116900000Y-66937500D03*
X116900000Y-68812500D03*
%TD*%
D37*
%TO.C,U1*%
X110500000Y-83175000D03*
X110500000Y-83675000D03*
X110500000Y-84175000D03*
X110500000Y-84675000D03*
X110500000Y-85175000D03*
X114725000Y-85175000D03*
X114725000Y-84675000D03*
X114725000Y-84175000D03*
X114725000Y-83675000D03*
X114725000Y-83175000D03*
%TD*%
D38*
%TO.C,F1*%
X113200000Y-69600000D03*
X113200000Y-73875000D03*
%TD*%
D39*
%TO.C,C28*%
X113700000Y-80775000D03*
X111800000Y-80775000D03*
%TD*%
D20*
%TO.C,D18*%
X140100000Y-109025000D03*
X140100000Y-110900000D03*
%TD*%
%TO.C,D19*%
X148500000Y-109000000D03*
X148500000Y-110875000D03*
%TD*%
D16*
%TO.C,C22*%
X160440000Y-66380000D03*
X160440000Y-68280000D03*
%TD*%
D20*
%TO.C,D15*%
X146400000Y-109025000D03*
X146400000Y-110900000D03*
%TD*%
%TO.C,D11*%
X156900000Y-108975000D03*
X156900000Y-110850000D03*
%TD*%
D11*
%TO.C,J8*%
X119500000Y-53920000D03*
D40*
X122040000Y-53920000D03*
X119500000Y-56460000D03*
X122040000Y-56460000D03*
X119500000Y-59000000D03*
X122040000Y-59000000D03*
X119500000Y-61540000D03*
X122040000Y-61540000D03*
%TD*%
D17*
%TO.C,R7*%
X180475000Y-93687500D03*
X180475000Y-95512500D03*
%TD*%
D40*
%TO.C,RV1*%
X154700000Y-50820000D03*
X154700000Y-53360000D03*
X154700000Y-55900000D03*
%TD*%
D17*
%TO.C,R30*%
X156900000Y-112900000D03*
X156900000Y-114725000D03*
%TD*%
D41*
%TO.C,C13*%
X167600000Y-81400000D03*
X167600000Y-79500000D03*
%TD*%
D17*
%TO.C,R40*%
X148000000Y-50987500D03*
X148000000Y-52812500D03*
%TD*%
D11*
%TO.C,J1*%
X132750000Y-103000000D03*
D12*
X132750000Y-100460000D03*
%TD*%
D42*
%TO.C,J14*%
X115300000Y-48800000D03*
D43*
X115300000Y-42500000D03*
D44*
X110500000Y-45900000D03*
%TD*%
D41*
%TO.C,C12*%
X165300000Y-81400000D03*
X165300000Y-79500000D03*
%TD*%
D22*
%TO.C,R24*%
X110675000Y-55600000D03*
X112500000Y-55600000D03*
%TD*%
D11*
%TO.C,J6*%
X126660000Y-130540000D03*
D12*
X126660000Y-128000000D03*
X129200000Y-130540000D03*
X129200000Y-128000000D03*
X131740000Y-130540000D03*
X131740000Y-128000000D03*
X134280000Y-130540000D03*
X134280000Y-128000000D03*
X136820000Y-130540000D03*
X136820000Y-128000000D03*
X139360000Y-130540000D03*
X139360000Y-128000000D03*
X141900000Y-130540000D03*
X141900000Y-128000000D03*
X144440000Y-130540000D03*
X144440000Y-128000000D03*
X146980000Y-130540000D03*
X146980000Y-128000000D03*
X149520000Y-130540000D03*
X149520000Y-128000000D03*
X152060000Y-130540000D03*
X152060000Y-128000000D03*
X154600000Y-130540000D03*
X154600000Y-128000000D03*
X157140000Y-130540000D03*
X157140000Y-128000000D03*
X159680000Y-130540000D03*
X159680000Y-128000000D03*
X162220000Y-130540000D03*
X162220000Y-128000000D03*
X164760000Y-130540000D03*
X164760000Y-128000000D03*
X167300000Y-130540000D03*
X167300000Y-128000000D03*
X169840000Y-130540000D03*
X169840000Y-128000000D03*
X172380000Y-130540000D03*
X172380000Y-128000000D03*
X174920000Y-130540000D03*
X174920000Y-128000000D03*
X177460000Y-130540000D03*
X177460000Y-128000000D03*
X180000000Y-130540000D03*
X180000000Y-128000000D03*
%TD*%
D17*
%TO.C,R34*%
X148500000Y-112875000D03*
X148500000Y-114700000D03*
%TD*%
D24*
%TO.C,C4*%
X173350000Y-81000000D03*
X175250000Y-81000000D03*
%TD*%
D45*
%TO.C,U8*%
X112800000Y-59400000D03*
X112800000Y-58450000D03*
X112800000Y-57500000D03*
X110500000Y-57500000D03*
X110500000Y-58450000D03*
X110500000Y-59400000D03*
%TD*%
D16*
%TO.C,C21*%
X158270000Y-66340000D03*
X158270000Y-68240000D03*
%TD*%
D20*
%TO.C,D13*%
X152700000Y-109000000D03*
X152700000Y-110875000D03*
%TD*%
D11*
%TO.C,J4*%
X104900000Y-91400000D03*
D12*
X104900000Y-93940000D03*
X102360000Y-91400000D03*
X102360000Y-93940000D03*
%TD*%
D46*
%TO.C,C27*%
X111362500Y-76875000D03*
X114437500Y-76875000D03*
%TD*%
D17*
%TO.C,R33*%
X150600000Y-112887500D03*
X150600000Y-114712500D03*
%TD*%
D11*
%TO.C,J9*%
X189660000Y-86300000D03*
D12*
X192200000Y-86300000D03*
X189660000Y-88840000D03*
X192200000Y-88840000D03*
X189660000Y-91380000D03*
X192200000Y-91380000D03*
X189660000Y-93920000D03*
X192200000Y-93920000D03*
X189660000Y-96460000D03*
X192200000Y-96460000D03*
X189660000Y-99000000D03*
X192200000Y-99000000D03*
X189660000Y-101540000D03*
X192200000Y-101540000D03*
X189660000Y-104080000D03*
X192200000Y-104080000D03*
X189660000Y-106620000D03*
X192200000Y-106620000D03*
X189660000Y-109160000D03*
X192200000Y-109160000D03*
X189660000Y-111700000D03*
X192200000Y-111700000D03*
X189660000Y-114240000D03*
X192200000Y-114240000D03*
X189660000Y-116780000D03*
X192200000Y-116780000D03*
X189660000Y-119320000D03*
X192200000Y-119320000D03*
X189660000Y-121860000D03*
X192200000Y-121860000D03*
X189660000Y-124400000D03*
X192200000Y-124400000D03*
%TD*%
D47*
X193300000Y-39500000D03*
X103300000Y-39500000D03*
X193300000Y-129500000D03*
X103300000Y-129500000D03*
G36*
X186042915Y-126300222D02*
G01*
X186390386Y-126321063D01*
X186405129Y-126322838D01*
X186743949Y-126384398D01*
X186758373Y-126387923D01*
X187087397Y-126489538D01*
X187101296Y-126494761D01*
X187415824Y-126634981D01*
X187429000Y-126641828D01*
X187724508Y-126818636D01*
X187736771Y-126827009D01*
X188009034Y-127037878D01*
X188020207Y-127047657D01*
X188265296Y-127289542D01*
X188275222Y-127300586D01*
X188489656Y-127570053D01*
X188498189Y-127582205D01*
X188678871Y-127875363D01*
X188685891Y-127888447D01*
X188830234Y-128201096D01*
X188835640Y-128214926D01*
X188941579Y-128542598D01*
X188945292Y-128556974D01*
X189011302Y-128894945D01*
X189013271Y-128909663D01*
X189038682Y-129256826D01*
X189039002Y-129264247D01*
X189059960Y-130857020D01*
X189059854Y-130864033D01*
X189045588Y-131192428D01*
X189044189Y-131206379D01*
X188993487Y-131527601D01*
X188990521Y-131541306D01*
X188903878Y-131854743D01*
X188899384Y-131868025D01*
X188777909Y-132169678D01*
X188771944Y-132182368D01*
X188617190Y-132468376D01*
X188609831Y-132480311D01*
X188423774Y-132747024D01*
X188415114Y-132758052D01*
X188200136Y-133002052D01*
X188190286Y-133012032D01*
X187949139Y-133230198D01*
X187938226Y-133239002D01*
X187673986Y-133428552D01*
X187662148Y-133436068D01*
X187378199Y-133594571D01*
X187365589Y-133600702D01*
X187065568Y-133726133D01*
X187052347Y-133730802D01*
X186740069Y-133821564D01*
X186726404Y-133824710D01*
X186405883Y-133879634D01*
X186391951Y-133881217D01*
X186063763Y-133899802D01*
X186056752Y-133900000D01*
X185403481Y-133900000D01*
X185396528Y-133899805D01*
X185071058Y-133881527D01*
X185057240Y-133879970D01*
X184739304Y-133825950D01*
X184725747Y-133822856D01*
X184415851Y-133733576D01*
X184402727Y-133728983D01*
X184104784Y-133605572D01*
X184092255Y-133599539D01*
X183809993Y-133443538D01*
X183798219Y-133436139D01*
X183535216Y-133249528D01*
X183524344Y-133240859D01*
X183283872Y-133025960D01*
X183274039Y-133016127D01*
X183059140Y-132775655D01*
X183050471Y-132764783D01*
X182863860Y-132501780D01*
X182856461Y-132490006D01*
X182700460Y-132207744D01*
X182694427Y-132195215D01*
X182571016Y-131897272D01*
X182566423Y-131884148D01*
X182477143Y-131574252D01*
X182474049Y-131560695D01*
X182420029Y-131242759D01*
X182418472Y-131228940D01*
X182400195Y-130903471D01*
X182400000Y-130896519D01*
X182400000Y-129303480D01*
X182400195Y-129296528D01*
X182418472Y-128971059D01*
X182420029Y-128957240D01*
X182474049Y-128639304D01*
X182477143Y-128625747D01*
X182566423Y-128315851D01*
X182571016Y-128302727D01*
X182694427Y-128004784D01*
X182700460Y-127992255D01*
X182856461Y-127709993D01*
X182863860Y-127698219D01*
X183050471Y-127435216D01*
X183059140Y-127424344D01*
X183274039Y-127183872D01*
X183283872Y-127174039D01*
X183524344Y-126959140D01*
X183535216Y-126950471D01*
X183798219Y-126763860D01*
X183809993Y-126756461D01*
X184092255Y-126600460D01*
X184104784Y-126594427D01*
X184402727Y-126471016D01*
X184415851Y-126466423D01*
X184725747Y-126377143D01*
X184739304Y-126374049D01*
X185057240Y-126320029D01*
X185071059Y-126318472D01*
X185396529Y-126300195D01*
X185403481Y-126300000D01*
X186035491Y-126300000D01*
X186042915Y-126300222D01*
G37*
M02*
